<svg width="40" height="40" viewBox="0 0 40 40" fill="none" xmlns="http://www.w3.org/2000/svg">
<path d="M23.3335 18.3331H21.6668V16.6665C21.6668 16.2244 21.4912 15.8005 21.1786 15.4879C20.8661 15.1754 20.4422 14.9998 20.0001 14.9998C19.5581 14.9998 19.1342 15.1754 18.8216 15.4879C18.5091 15.8005 18.3335 16.2244 18.3335 16.6665V18.3331H16.6668C16.2248 18.3331 15.8008 18.5087 15.4883 18.8213C15.1757 19.1338 15.0001 19.5578 15.0001 19.9998C15.0001 20.4418 15.1757 20.8657 15.4883 21.1783C15.8008 21.4909 16.2248 21.6665 16.6668 21.6665H18.3335V23.3331C18.3335 23.7751 18.5091 24.1991 18.8216 24.5116C19.1342 24.8242 19.5581 24.9998 20.0001 24.9998C20.4422 24.9998 20.8661 24.8242 21.1786 24.5116C21.4912 24.1991 21.6668 23.7751 21.6668 23.3331V21.6665H23.3335C23.7755 21.6665 24.1994 21.4909 24.512 21.1783C24.8245 20.8657 25.0001 20.4418 25.0001 19.9998C25.0001 19.5578 24.8245 19.1338 24.512 18.8213C24.1994 18.5087 23.7755 18.3331 23.3335 18.3331ZM33.6001 8.33312C31.823 6.57429 29.4757 5.50857 26.9818 5.32826C24.488 5.14794 22.0118 5.86491 20.0001 7.34979C17.8796 5.77252 15.2401 5.05731 12.6133 5.34818C9.98655 5.63906 7.56753 6.91442 5.84342 8.91743C4.11931 10.9204 3.21817 13.5023 3.32147 16.1431C3.42477 18.784 4.52483 21.2876 6.40013 23.1498L16.4001 33.2331C17.3376 34.1695 18.6085 34.6954 19.9335 34.6954C21.2585 34.6954 22.5293 34.1695 23.4668 33.2331L33.4668 23.1498C34.4517 22.1875 35.2367 21.0401 35.7767 19.7735C36.3167 18.5069 36.6011 17.146 36.6135 15.7692C36.6259 14.3923 36.366 13.0265 35.8489 11.7504C35.3318 10.4743 34.5675 9.31294 33.6001 8.33312ZM31.2501 20.7665L21.2501 30.7665C21.0952 30.9227 20.9109 31.0467 20.7078 31.1313C20.5047 31.2159 20.2868 31.2594 20.0668 31.2594C19.8468 31.2594 19.6289 31.2159 19.4258 31.1313C19.2227 31.0467 19.0384 30.9227 18.8835 30.7665L8.88347 20.7665C7.5764 19.4304 6.84448 17.6356 6.84448 15.7665C6.84448 13.8973 7.5764 12.1025 8.88347 10.7665C10.2154 9.45143 12.0118 8.71407 13.8835 8.71407C15.7552 8.71407 17.5515 9.45143 18.8835 10.7665C19.0384 10.9227 19.2227 11.0467 19.4258 11.1313C19.6289 11.2159 19.8468 11.2595 20.0668 11.2595C20.2868 11.2595 20.5047 11.2159 20.7078 11.1313C20.9109 11.0467 21.0952 10.9227 21.2501 10.7665C22.5821 9.45143 24.3784 8.71407 26.2501 8.71407C28.1218 8.71407 29.9182 9.45143 31.2501 10.7665C32.5672 12.104 33.3055 13.9059 33.3055 15.7831C33.3055 17.6603 32.5672 19.4622 31.2501 20.7998V20.7665Z" fill="#010F4D"/>
</svg>
