<svg width="40" height="40" viewBox="0 0 40 40" fill="none" xmlns="http://www.w3.org/2000/svg">
<path d="M14.9998 16.6668H16.6665C17.1085 16.6668 17.5325 16.4912 17.845 16.1787C18.1576 15.8661 18.3332 15.4422 18.3332 15.0002C18.3332 14.5581 18.1576 14.1342 17.845 13.8217C17.5325 13.5091 17.1085 13.3335 16.6665 13.3335H14.9998C14.5578 13.3335 14.1339 13.5091 13.8213 13.8217C13.5088 14.1342 13.3332 14.5581 13.3332 15.0002C13.3332 15.4422 13.5088 15.8661 13.8213 16.1787C14.1339 16.4912 14.5578 16.6668 14.9998 16.6668ZM14.9998 20.0002C14.5578 20.0002 14.1339 20.1758 13.8213 20.4883C13.5088 20.8009 13.3332 21.2248 13.3332 21.6668C13.3332 22.1089 13.5088 22.5328 13.8213 22.8453C14.1339 23.1579 14.5578 23.3335 14.9998 23.3335H24.9998C25.4419 23.3335 25.8658 23.1579 26.1783 22.8453C26.4909 22.5328 26.6665 22.1089 26.6665 21.6668C26.6665 21.2248 26.4909 20.8009 26.1783 20.4883C25.8658 20.1758 25.4419 20.0002 24.9998 20.0002H14.9998ZM33.3332 14.9002C33.3158 14.7471 33.2823 14.5962 33.2332 14.4502V14.3002C33.153 14.1288 33.0461 13.9713 32.9165 13.8335L22.9165 3.8335C22.7787 3.70386 22.6212 3.59696 22.4498 3.51683C22.4001 3.50976 22.3496 3.50976 22.2998 3.51683C22.1305 3.41973 21.9435 3.3574 21.7498 3.3335H11.6665C10.3404 3.3335 9.06865 3.86028 8.13097 4.79796C7.19329 5.73564 6.6665 7.00741 6.6665 8.3335V31.6668C6.6665 32.9929 7.19329 34.2647 8.13097 35.2024C9.06865 36.14 10.3404 36.6668 11.6665 36.6668H28.3332C29.6593 36.6668 30.931 36.14 31.8687 35.2024C32.8064 34.2647 33.3332 32.9929 33.3332 31.6668V15.0002C33.3332 15.0002 33.3332 15.0002 33.3332 14.9002ZM23.3332 9.01683L27.6498 13.3335H24.9998C24.5578 13.3335 24.1339 13.1579 23.8213 12.8453C23.5088 12.5328 23.3332 12.1089 23.3332 11.6668V9.01683ZM29.9998 31.6668C29.9998 32.1089 29.8242 32.5328 29.5117 32.8453C29.1991 33.1579 28.7752 33.3335 28.3332 33.3335H11.6665C11.2245 33.3335 10.8006 33.1579 10.488 32.8453C10.1754 32.5328 9.99984 32.1089 9.99984 31.6668V8.3335C9.99984 7.89147 10.1754 7.46755 10.488 7.15498C10.8006 6.84242 11.2245 6.66683 11.6665 6.66683H19.9998V11.6668C19.9998 12.9929 20.5266 14.2647 21.4643 15.2024C22.402 16.14 23.6738 16.6668 24.9998 16.6668H29.9998V31.6668ZM24.9998 26.6668H14.9998C14.5578 26.6668 14.1339 26.8424 13.8213 27.155C13.5088 27.4675 13.3332 27.8915 13.3332 28.3335C13.3332 28.7755 13.5088 29.1994 13.8213 29.512C14.1339 29.8246 14.5578 30.0002 14.9998 30.0002H24.9998C25.4419 30.0002 25.8658 29.8246 26.1783 29.512C26.4909 29.1994 26.6665 28.7755 26.6665 28.3335C26.6665 27.8915 26.4909 27.4675 26.1783 27.155C25.8658 26.8424 25.4419 26.6668 24.9998 26.6668Z" fill="#010F4D"/>
</svg>
