<svg width="78" height="78" viewBox="0 0 78 78" fill="none" xmlns="http://www.w3.org/2000/svg">
<path d="M61.2741 4.41628C58.7395 1.56837 55.2261 0 51.381 0C47.0892 0 43.3689 2.02891 40.6223 5.86719C40.4163 6.15497 40.2237 6.44274 40.0431 6.72763C39.8627 6.44259 39.6701 6.15497 39.4641 5.86719C36.7173 2.02891 32.997 0 28.7052 0C24.8601 0 21.3465 1.56837 18.8121 4.41612C16.4069 7.11869 15.0822 10.7317 15.0822 14.5894C15.0822 18.7818 16.7094 22.6502 20.2027 26.7641C23.2507 30.3533 27.6227 34.0426 32.6853 38.3146C34.556 39.8933 36.4906 41.5257 38.5463 43.307C38.9757 43.6791 39.5093 43.8652 40.0429 43.8652C40.5764 43.8652 41.11 43.6791 41.5396 43.307C43.595 41.5262 45.5293 39.8938 47.4 38.3154C50.6513 35.5717 53.4592 33.2023 55.8958 30.904C60.6265 26.4416 65.004 21.3766 65.004 14.5896C65.004 10.7317 63.6794 7.11884 61.2741 4.41628ZM52.7594 27.5804C50.415 29.7919 47.6518 32.1235 44.4523 34.8234C43.0289 36.0243 41.5692 37.2561 40.0431 38.5644C38.5167 37.2563 37.0565 36.0241 35.6331 34.8229C25.6678 26.4137 19.6526 21.3379 19.6526 14.5896C19.6523 8.87719 23.544 4.56953 28.705 4.56953C31.4623 4.56953 33.8072 5.86719 35.6746 8.4264C37.2072 10.5266 37.8364 12.7039 37.8406 12.7185C38.1149 13.7083 39.0158 14.3935 40.0429 14.3935C41.0701 14.3935 41.971 13.7083 42.2453 12.7185C42.2678 12.637 44.5812 4.56953 51.381 4.56953C56.5419 4.56953 60.4338 8.87734 60.4338 14.5896C60.4338 18.7286 58.2821 22.3708 52.7594 27.5804Z" fill="#000B50"/>
<path d="M71.1445 46.0148C69.2488 46.0148 67.4201 46.8105 66.1275 48.1977L59.4112 55.4063C58.5431 52.616 55.9362 50.5842 52.8634 50.5842H42.3067C40.8288 50.5842 39.4036 50.0466 38.294 49.0703C32.3264 43.82 23.3566 43.7738 17.3323 48.9252C16.09 47.1667 14.0429 46.0149 11.7305 46.0149H2.2852C1.02321 46.0149 0 47.0378 0 48.2996V75.7153C0 76.977 1.02306 78 2.2852 78H11.7305C13.7827 78 15.6258 77.0925 16.8833 75.6592L18.2365 76.0395C22.8654 77.3404 27.6504 77.9998 32.4587 77.9998H52.8632C57.8713 77.9998 62.6551 75.6084 65.66 71.6028L76.631 56.9783C76.6312 56.978 76.6313 56.9777 76.6317 56.9774C77.5269 55.7839 78 54.3632 78 52.8686C78 49.0894 74.9246 46.0148 71.1445 46.0148ZM14.0157 71.1458C14.0157 72.4055 12.9906 73.4305 11.7305 73.4305H4.57025V50.584H11.7305C12.9905 50.584 14.0157 51.6088 14.0157 52.8687V71.1458ZM72.9751 54.2363L72.9747 54.2366L62.0039 68.8614C59.8575 71.7225 56.4404 73.4306 52.8632 73.4306H32.4591C28.069 73.4306 23.7 72.8284 19.4737 71.6407L18.58 71.3895C18.5829 71.3085 18.5862 71.2276 18.5862 71.1459V53.9014L20.1787 52.5003C24.4819 48.7146 30.9718 48.7143 35.2752 52.5003C37.2197 54.211 39.7167 55.1531 42.307 55.1531H52.8637C54.1237 55.1531 55.1489 56.1781 55.1489 57.4378C55.1489 58.6975 54.1238 59.7225 52.8637 59.7225H36.6225C35.3605 59.7225 34.3373 60.7453 34.3373 62.0072C34.3373 63.269 35.3604 64.2919 36.6225 64.2919H54.3949C56.2906 64.2919 58.119 63.4965 59.4113 62.1095L69.4717 51.3121C69.9092 50.8425 70.5033 50.584 71.1445 50.584C72.4045 50.584 73.4297 51.6088 73.4297 52.8687C73.4297 53.3669 73.2725 53.8397 72.9751 54.2363Z" fill="#000B50"/>
</svg>
