<svg width="83" height="83" viewBox="0 0 83 83" fill="none" xmlns="http://www.w3.org/2000/svg">
<path d="M82.5251 34.9089C82.1413 34.5254 81.5903 34.3592 81.0588 34.466L67.0863 37.2776C66.5006 37.3956 66.027 37.8262 65.8542 38.3979C65.6814 38.9697 65.8372 39.5904 66.2596 40.013L68.15 41.9031L60.7309 49.3209L54.9875 43.5785C54.6833 43.2746 54.271 43.1037 53.8411 43.1037C53.4111 43.1037 52.9989 43.2746 52.6947 43.5785L45.6472 50.625L48.2908 41.1277C48.9334 38.819 48.4704 36.4005 47.0205 34.4921C46.1324 33.3234 44.9599 32.4617 43.6344 31.968L45.7477 25.9321C46.3309 25.9833 46.9126 26.0094 47.4876 26.0094C52.1691 26.0094 56.7336 24.3596 60.3403 21.3642L60.7267 21.0434C62.6282 19.4638 62.9531 16.7187 61.4668 14.7943C60.7131 13.8183 59.6239 13.2062 58.3999 13.071C57.1753 12.9357 55.9789 13.2949 55.0314 14.0819L54.5925 14.4464C53.9458 14.9834 53.2386 15.4472 52.4906 15.8244C49.9907 17.0852 46.8688 16.5237 44.7944 14.4711C47.8119 13.5366 50.0099 10.7203 50.0099 7.40022C50.0101 3.31975 46.6896 0 42.6083 0C38.5269 0 35.2066 3.31975 35.2066 7.40038C35.2066 9.02427 35.7336 10.5266 36.6238 11.7481C34.94 12.1106 33.4246 12.9786 32.2651 14.2059C32.1975 14.2652 32.1327 14.3294 32.074 14.4017C29.2159 17.9117 25.4057 20.4294 21.0554 21.6823C19.8776 22.0217 18.9453 22.8036 18.3858 23.795L15.063 20.4727C13.609 19.0192 11.2436 19.0193 9.78954 20.4727L1.09223 29.1687C0.387801 29.8729 0 30.809 0 31.8051C0 32.801 0.387963 33.7371 1.09207 34.4414L13.0739 46.4212C13.7783 47.1253 14.7145 47.5131 15.7106 47.5131C16.7069 47.5131 17.6432 47.1252 18.3474 46.4212L22.8501 41.9193L20.7151 47.5168C20.396 48.3532 20.8156 49.29 21.6522 49.609C21.8423 49.6814 22.0375 49.7158 22.2297 49.7158C22.8827 49.7158 23.4983 49.3183 23.7449 48.6721L29.0622 34.7316H40.9675C42.3421 34.7316 43.6072 35.3592 44.4387 36.4535C45.2702 37.5478 45.5358 38.9347 45.1671 40.2586L41.4832 53.4931C41.3175 54.0887 40.7698 54.5046 40.1515 54.5046C39.5967 54.5046 39.2546 54.2009 39.1001 54.0198C38.9456 53.8387 38.6992 53.4531 38.7863 52.9055L40.7465 40.5842C40.8211 40.1156 40.6865 39.6381 40.3785 39.2772C40.0704 38.9164 39.6197 38.7086 39.1454 38.7086H35.3017C34.6903 38.7086 34.1309 39.0524 33.8549 39.5979C33.7602 39.7849 24.3536 58.3809 21.1838 64.6644C20.8665 65.2937 20.1767 65.6527 19.4693 65.5559L19.3925 65.5456C18.9098 65.4804 18.4906 65.2029 18.2417 64.7842C17.9929 64.3655 17.9499 63.8644 18.1235 63.4096L19.1225 60.7906C19.4416 59.9542 19.022 59.0176 18.1855 58.6984C17.3491 58.3794 16.4121 58.7991 16.0929 59.6353L15.0939 62.2543C14.5656 63.6396 14.6969 65.1651 15.4542 66.4398C16.2114 67.7144 17.4885 68.5596 18.9567 68.7583L19.0335 68.7685C19.2558 68.7988 19.4773 68.8133 19.6973 68.8133C21.5328 68.8133 23.24 67.7878 24.079 66.1244C26.8478 60.6358 34.3778 45.7478 36.2986 41.9506H37.2459L35.5841 52.3962C35.3713 53.7347 35.7539 55.0937 36.6341 56.1245C37.2002 56.7876 37.9333 57.2676 38.7449 57.5265L20.6848 75.5836C20.3808 75.8877 20.2099 76.2999 20.2099 76.7298C20.2099 77.1596 20.3808 77.572 20.6848 77.876L25.335 82.5252C25.6516 82.8416 26.0665 83 26.4814 83C26.8962 83 27.3111 82.8416 27.6277 82.5252L36.5674 73.587C37.2005 72.954 37.2005 71.9276 36.5674 71.2945C35.9342 70.6617 34.9079 70.6617 34.2745 71.2945L26.4814 79.0865L24.1241 76.7296L53.8414 47.0169L59.5848 52.7593C59.889 53.0633 60.3013 53.2341 60.7312 53.2341C61.1612 53.2341 61.5734 53.0633 61.8776 52.7593L71.5893 43.0491C72.2224 42.4161 72.2224 41.3897 71.5893 40.7565L70.6915 39.8588L79.3082 38.1251L77.5741 46.7404L76.2397 45.4061C75.6064 44.7733 74.5802 44.7733 73.9468 45.4061L60.7311 58.6196L54.9876 52.8772C54.3544 52.2444 53.3281 52.2444 52.6947 52.8772L43.4454 62.125C42.8123 62.758 42.8123 63.7844 43.4454 64.4175C44.0786 65.0503 45.1049 65.0503 45.7383 64.4175L53.8411 56.3161L59.5845 62.0585C60.2178 62.6913 61.244 62.6913 61.8774 62.0585L75.0931 48.845L77.4203 51.1718C77.8428 51.5942 78.4639 51.7503 79.0355 51.5772C79.6075 51.4045 80.0382 50.931 80.1561 50.3452L82.9682 36.3749C83.0752 35.8431 82.9088 35.2927 82.5251 34.9089ZM42.6083 3.24194C44.9017 3.24194 46.7675 5.10751 46.7675 7.40038C46.7675 9.6934 44.9016 11.559 42.6083 11.559C40.3149 11.559 38.449 9.6934 38.449 7.40038C38.449 5.10751 40.3149 3.24194 42.6083 3.24194ZM26.5658 31.9736L24.5928 30.0009C25.5298 29.6952 26.4502 29.3456 27.3513 28.9544L26.5658 31.9736ZM21.0943 26.3508C20.9027 25.6859 21.288 24.9892 21.9531 24.7976C24.6182 24.0299 27.1041 22.8447 29.3437 21.2968L28.4281 24.8159C26.6055 25.8229 24.6651 26.6282 22.6473 27.2093C22.6098 27.22 22.5706 27.2294 22.5318 27.2368C22.2327 27.2937 21.9334 27.2342 21.6822 27.091L21.2073 26.6162C21.1604 26.5333 21.1215 26.4452 21.0943 26.3508ZM12.0821 22.7651C12.177 22.6702 12.3017 22.6229 12.4262 22.6229C12.5507 22.6229 12.6754 22.6702 12.77 22.7651L18.6798 28.6738C18.9539 29.0481 19.2808 29.3744 19.649 29.6428L24.752 34.745C24.9417 34.9345 24.9417 35.2431 24.752 35.4326L21.5497 38.6344L17.9883 35.0736L18.6666 34.3954C19.2997 33.7624 19.2997 32.736 18.6666 32.1028L15.0172 28.454C14.384 27.8212 13.3577 27.8212 12.7243 28.454L12.046 29.1322L8.87986 25.9666L12.0821 22.7651ZM14.3013 34.1752C14.1461 34.3304 13.965 34.3537 13.8709 34.3537C13.7768 34.3537 13.5957 34.3304 13.4406 34.1754L12.9446 33.6796C12.7896 33.5244 12.7663 33.3434 12.7663 33.2493C12.7663 33.1552 12.7896 32.9741 12.9448 32.819L13.8709 31.8931L15.2273 33.2493L14.3013 34.1752ZM16.0545 44.1288C15.9366 44.2465 15.8026 44.2711 15.7106 44.2711C15.6189 44.2711 15.4845 44.2465 15.3668 44.1286L3.38499 32.1489C3.26713 32.031 3.24248 31.8968 3.24248 31.8051C3.24248 31.7131 3.26713 31.5789 3.38499 31.4613L6.5871 28.2595L9.90481 31.5765C9.65595 32.0916 9.52382 32.6603 9.52382 33.2493C9.52382 34.278 9.92459 35.2449 10.6519 35.9721L11.1477 36.4676V36.4678C11.8749 37.1949 12.8422 37.5956 13.8709 37.5956C14.46 37.5956 15.0287 37.4637 15.544 37.2147L19.2569 40.9271L16.0545 44.1288ZM30.0422 31.4896L33.3728 18.6883C33.9684 16.3995 36.0363 14.8011 38.4017 14.8011C39.8629 14.8011 41.2145 15.3901 42.2076 16.4598C45.2535 19.7413 50.0831 20.6703 53.9512 18.7191C54.9171 18.232 55.8302 17.6337 56.6648 16.9403L57.1037 16.5757C57.3683 16.3559 57.7021 16.2551 58.0442 16.2937C58.3854 16.3313 58.6896 16.5024 58.9007 16.7759C59.3081 17.3032 59.1977 18.0991 58.6549 18.5499L58.2687 18.8707C55.2428 21.3838 51.4141 22.7678 47.4878 22.7678C46.6352 22.7678 45.7638 22.6996 44.8975 22.5649C44.1244 22.4436 43.3765 22.893 43.118 23.631L40.3665 31.4896H30.0422Z" fill="#000B50"/>
<path d="M40.037 66.2653C39.6107 66.2653 39.1924 66.4386 38.8908 66.7402C38.5893 67.0415 38.4158 67.4598 38.4158 67.8862C38.4158 68.3142 38.5891 68.7308 38.8908 69.0321C39.1924 69.3352 39.6107 69.5072 40.037 69.5072C40.4634 69.5072 40.8817 69.3352 41.1831 69.0321C41.4846 68.7308 41.6583 68.314 41.6583 67.8862C41.6583 67.4598 41.4848 67.0415 41.1831 66.7402C40.8817 66.4386 40.4634 66.2653 40.037 66.2653Z" fill="#000B50"/>
<path d="M19.9158 55.7841C20.3422 55.7841 20.7605 55.6106 21.062 55.309C21.3634 55.0076 21.5371 54.5894 21.5371 54.1631C21.5371 53.7368 21.3636 53.3186 21.062 53.0171C20.7589 52.7156 20.3422 52.5421 19.9158 52.5421C19.4894 52.5421 19.0711 52.7154 18.768 53.0171C18.4666 53.3186 18.2946 53.7368 18.2946 54.1631C18.2946 54.5894 18.4666 55.0076 18.768 55.309C19.0711 55.6105 19.4878 55.7841 19.9158 55.7841Z" fill="#000B50"/>
</svg>
