<?xml version="1.0" encoding="utf-8"?>
<!-- Generator: Adobe Illustrator 22.1.0, SVG Export Plug-In . SVG Version: 6.00 Build 0)  -->
<svg version="1.1" id="objects" xmlns="http://www.w3.org/2000/svg" xmlns:xlink="http://www.w3.org/1999/xlink" x="0px" y="0px"
	 viewBox="0 0 680 520" style="enable-background:new 0 0 680 520;" xml:space="preserve">
<style type="text/css">
	.st0{fill:none;stroke:#97D539;stroke-width:2;stroke-miterlimit:10;stroke-dasharray:5;}
	.st1{fill:url(#SVGID_1_);}
	.st2{fill:#F4F4F4;}
	.st3{fill:#D5E6DB;}
	.st4{fill:#6F9AAC;}
</style>
<path class="st0" d="M7.1,488.1c39.1-0.1,91.2-22.2,101.6-64.6c4.2-17.1,0.5-35.4-13.1-47.9c-17.1-15.8-35.9-1.4-31.3,20.7
	c7.6,36.2,51.8,63,85.4,63.3c19.4,0.2,37.6-9.1,44.6-28.1c11.1-30.3-8.5-49.8-23.7-73.9c-19-29.9-65.5-84.7-40.8-121.7
	c17.3-26,59.9-24.4,85.2-13.8c29.8,12.5,53.8,38.7,67.3,67.7c20,43.2,11.4,94.4,50.2,129.6c16.7,15.2,36.8,15.6,54,0.7
	c15.7-13.6,15.1-33.2,16.4-52.1c1.7-25.5,1.7-51.3,0.3-76.8c-1.4-24.5-18.3-47.6-44.5-49.4c-6.8-0.5-14.4,3-16.3,9.5
	c-1.5,4.9,0.6,10.4,4,14.2c24.9,27.9,57.5,17.1,78.8-8.8c19.2-23.3,31.1-54.7,24.4-84.9c-2.1-9.8-6.5-24.5,5.7-30
	c9-4.1,19.6,3.6,24.6,10.5c11.3,15.6,24.4,43.5,46,20.3c5.5-5.9,8.7-13.5,11.6-21c3.4-8.9,6.8-18.9,12.5-26.6"/>
<g>
	
		<radialGradient id="SVGID_1_" cx="806.1945" cy="53.6583" r="75.2222" gradientTransform="matrix(0.7108 -0.8312 0.494 0.4225 -2.7183 764.7801)" gradientUnits="userSpaceOnUse">
		<stop  offset="0" style="stop-color:#CCCCCC"/>
		<stop  offset="0.2582" style="stop-color:#D2D2D2;stop-opacity:0.7418"/>
		<stop  offset="0.596" style="stop-color:#E2E2E2;stop-opacity:0.404"/>
		<stop  offset="0.9766" style="stop-color:#FDFDFD;stop-opacity:2.344590e-02"/>
		<stop  offset="1" style="stop-color:#FFFFFF;stop-opacity:0"/>
	</radialGradient>
	<path class="st1" d="M650.3,54.9c20.5,17.6,13.2,59.8-16.3,94.3c-29.5,34.5-70.1,48.3-90.6,30.7c-20.5-17.6-13.2-59.8,16.3-94.3
		C589.2,51.1,629.8,37.3,650.3,54.9z"/>
	<g>
		<polygon class="st2" points="640,26.7 517.9,54.4 553.3,75.1 		"/>
		<polygon class="st3" points="553.3,75.1 551.4,119.4 640,26.7 		"/>
		<polygon class="st4" points="551.4,119.4 567.2,88.4 640,26.7 		"/>
		<polygon class="st2" points="640,26.7 595.3,121.7 567.2,88.4 		"/>
	</g>
</g>
</svg>
