<?xml version="1.0" encoding="utf-8"?>
<!-- Generator: Adobe Illustrator 22.1.0, SVG Export Plug-In . SVG Version: 6.00 Build 0)  -->
<svg version="1.1" id="Layer_1" xmlns="http://www.w3.org/2000/svg" xmlns:xlink="http://www.w3.org/1999/xlink" x="0px" y="0px"
	 viewBox="0 0 495 495" style="enable-background:new 0 0 495 495;" xml:space="preserve">
<style type="text/css">
	.st0{fill:#00349E;stroke:#00349E;stroke-width:2;stroke-miterlimit:10;}
</style>
<path class="st0" d="M226.4,118.8L145,96.1c-3.9-1.1-8.1,0.9-9.6,4.7L93,207.9c-6.5,16.3-10.8,33.4-12.6,50.8
	C77,294.7,86,321.1,105.7,335L78,442.4c-0.6,0.2-1.1,0.3-1.7,0.3c-0.3,0-0.6,0.1-0.9,0.1l-37.9,6.7c-3.7,0.7-6.4,3.7-6.6,7.4
	c-0.2,3.7,2.2,7.1,5.8,8.1l101.5,29.6c3.5,1,7.3-0.5,9.1-3.6c1.8-3.2,1.3-7.2-1.3-9.7l-26.7-26c-0.3-0.3-0.7-0.6-1-0.8
	c-0.6-0.4-1.1-0.9-1.5-1.5l27.5-107c24.3-1.3,45.1-19.6,59.8-53.2c6.8-16.1,11.3-33.1,13.4-50.5l14.7-114.8
	C232.6,123.6,230.2,119.9,226.4,118.8z M147.6,113.4l67.9,18.9l-7.9,62c-8.1,3.1-27.9,8.9-43.4-1.4c-13.6-8.4-30.2-10.7-45.6-6.3
	L147.6,113.4z M108.6,467.1l3.3,3.2l-38-11l3.9-0.7c7.1-0.1,13.4-4.7,15.5-11.5l27-104.8h0.1c1.1,0.4,2.2,0.8,3.4,1.1l1.8,0.5
	c0.9,0.2,1.7,0.5,2.6,0.6l-27,105.1C99.7,456.5,102.7,463.4,108.6,467.1L108.6,467.1z M201.7,240.3c-1.9,15.9-6,31.4-12.3,46.1
	c-15.1,34.7-35.2,48.9-59.6,42.1l-1.7-0.5c-2.9-0.8-5.8-2-8.5-3.4c-0.5-0.3-0.9-0.5-1.4-0.7c-17.5-9.9-24.7-31.3-21.7-63.8
	c1.6-15.9,5.5-31.5,11.5-46.4l3.1-7.9c7.1-3.1,28.1-10.5,44.3,0.4c8.8,5.8,19.2,8.7,29.7,8.5c6.9-0.1,13.7-1,20.3-2.9L201.7,240.3z"
	/>
<path class="st0" d="M186.7,230c-4.4-0.5-8.3,2.6-8.9,6.9c-1.6,13.5-5.1,26.8-10.4,39.3c-14.5,33.2-26.4,29.9-31.6,28.5
	c-4.2-1.2-8.7,1.3-9.8,5.6c-1.2,4.2,1.3,8.7,5.6,9.8c3.1,0.9,6.2,1.3,9.4,1.4c16.2,0,29.7-12.8,41-38.8c5.9-13.9,9.8-28.6,11.5-43.7
	C194.2,234.6,191.1,230.6,186.7,230z"/>
<path class="st0" d="M375.7,262.4c2.3,24.8-2.7,35-7.4,39.1c-2.2,1.9-3.2,4.8-2.6,7.6s2.6,5.1,5.4,6s5.8,0.2,7.9-1.7
	c10.7-9.6,15-27.3,12.6-52.5c-1.6-15.2-5.3-30-11-44.2c-1.7-4-6.3-6-10.3-4.4c-4.1,1.6-6.1,6.2-4.5,10.2
	C370.9,235.3,374.3,248.7,375.7,262.4z"/>
<path class="st0" d="M458.4,449.6l-37.9-6.7c-0.3-0.1-0.6-0.1-0.9-0.1c-0.6,0-1.2-0.1-1.7-0.3L390.2,335
	c19.7-13.9,28.6-40.2,25.2-76.3c-1.8-17.4-6-34.5-12.5-50.8l-42.5-107.1c-1.5-3.8-5.6-5.8-9.5-4.7l-81.4,22.7
	c-3.8,1.1-6.3,4.8-5.7,8.7l8.9,70l0.7,5.7l5,39.1c2,17.4,6.5,34.4,13.4,50.5c14.7,33.5,35.4,51.9,59.8,53.2l27.5,107
	c-0.4,0.6-0.9,1.1-1.5,1.4c-0.4,0.2-0.7,0.5-1,0.8l-26.7,26c-2.6,2.6-3.2,6.6-1.3,9.7c1.8,3.2,5.6,4.7,9.1,3.7l101.5-29.5
	c3.6-1,5.9-4.4,5.8-8.1C464.7,453.4,462,450.3,458.4,449.6L458.4,449.6z M348.3,113.4l29,73.1c-15.7-4.2-32.4-1.9-46.2,6.6
	c-15,10-34.4,4.3-42.7,1l-7.9-61.8L348.3,113.4z M306.4,286.5c-6.2-14.7-10.3-30.3-12.2-46.1l-3.7-28.5c6.6,1.9,13.5,2.9,20.4,3
	c10.2,0.2,20.3-2.7,28.9-8.3c16.5-11,38.2-3.6,45-0.8l3.3,8.1c6,14.8,9.9,30.5,11.5,46.4c3,32.5-4.2,53.9-21.7,63.8
	c-0.5,0.2-1,0.4-1.4,0.7c-2.7,1.4-5.6,2.5-8.5,3.4l-1.7,0.5C341.6,335.3,321.6,321.2,306.4,286.5z M384,470.4l3.3-3.2
	c5.9-3.7,8.9-10.7,7.5-17.5l-27-105.1c0.9-0.2,1.7-0.4,2.6-0.6l1.8-0.5c1.2-0.3,2.3-0.7,3.4-1.1h0.1l27,104.8
	c2.1,6.8,8.4,11.4,15.5,11.5l3.9,0.7L384,470.4z"/>
<path class="st0" d="M168,81.8c0.9,3.6,4.1,6.1,7.7,6.1c0.7,0,1.3-0.1,1.9-0.2c4.3-1.1,6.9-5.4,5.8-9.7l-8-31.9
	c-0.6-2.8-2.8-5.1-5.5-5.9c-2.8-0.8-5.8-0.1-7.9,2c-2.1,2-2.9,5-2.1,7.8L168,81.8z"/>
<path class="st0" d="M204.8,79.3c0.9,0.3,1.9,0.5,2.8,0.5c3.3,0,6.3-2.1,7.5-5.2l24-63.9c1.5-4.1-0.6-8.7-4.7-10.3
	c-4.1-1.5-8.7,0.6-10.3,4.7l-24,63.9C198.6,73.2,200.7,77.8,204.8,79.3z"/>
<path class="st0" d="M245.2,51.9c2.2,3.8,7.1,5.2,10.9,3c3.8-2.2,5.2-7.1,3-10.9l-4.6-8c-2.2-3.8-7.1-5.2-10.9-3
	c-3.8,2.2-5.2,7.1-3,10.9L245.2,51.9z"/>
<path class="st0" d="M271.2,80.9c-3.8,2.2-5.2,7.1-3,10.9l4.6,8c1.4,2.5,4.1,4,6.9,4c1.4,0,2.8-0.4,4-1.1c3.8-2.2,5.2-7.1,3-10.9
	l-4.6-8c-1.1-1.8-2.8-3.2-4.9-3.7C275.2,79.5,273.1,79.8,271.2,80.9z"/>
<path class="st0" d="M301.1,26.3c-3.1-3.1-8.2-3.1-11.3,0L226,90.1c-2.1,2-2.9,5-2.2,7.8c0.7,2.8,2.9,5,5.7,5.7
	c2.8,0.7,5.8-0.1,7.8-2.2l63.9-63.9C304.2,34.5,304.2,29.4,301.1,26.3z"/>
<path class="st0" d="M295.9,58.4l8,24c1.4,4.2,5.9,6.5,10.1,5.1c4.2-1.4,6.5-5.9,5.1-10.1l-8-24c-1.4-4.2-5.9-6.5-10.1-5.1
	C296.8,49.7,294.5,54.2,295.9,58.4z"/>
</svg>
