<?xml version="1.0" encoding="utf-8"?>
<!-- Generator: Adobe Illustrator 22.1.0, SVG Export Plug-In . SVG Version: 6.00 Build 0)  -->
<svg version="1.1" id="Capa_1" xmlns="http://www.w3.org/2000/svg" xmlns:xlink="http://www.w3.org/1999/xlink" x="0px" y="0px"
	 viewBox="0 0 992.7 992.7" style="enable-background:new 0 0 992.7 992.7;" xml:space="preserve">
<style type="text/css">
	.st0{fill:#0D3798;}
	.st1{fill:#FFFFFF;stroke:#FFFFFF;stroke-width:5;stroke-miterlimit:10;}
	.st2{fill:#FFFFFF;}
</style>
<circle class="st0" cx="496.4" cy="496.4" r="472.1"/>
<g>
	<g>
		<g>
			<path class="st2" d="M714.3,467c-0.8-10.2-5.5-19.5-13.3-26.2l-37.7-32.3v-91.9c0-7.1-5.7-12.8-12.8-12.8h-51.1
				c-7.1,0-12.6,5.7-12.6,12.8v26.2l-64.7-55.1c-14.5-12.4-35.4-12.4-49.8,0L291.7,440.8c-16,13.7-18,37.8-4.1,54.1
				c10.6,12.3,27.6,16.2,42,11.2v195.5c0,7.1,5.5,12.8,12.6,12.8h308.3c7.1,0,12.8-5.7,12.8-12.8V506c14.9,5.3,31.5,0.9,41.9-11.2
				C711.8,487.1,715.1,477.2,714.3,467z M612.2,329.4h25.7v57.2l-25.7-21.9V329.4z M548.5,688.8H444.4V586.4h104.1V688.8z
				 M637.9,688.8h-64v-115c0-7.1-5.7-12.8-12.8-12.8H431.6c-7.1,0-12.6,5.7-12.6,12.8v115h-64V487.7L497.2,367l140.7,120.5
				L637.9,688.8L637.9,688.8z M685.8,478.2c-4.5,5.3-12.6,6.1-18,1.4L505.5,340.6c-4.8-4.1-11.8-4.1-16.6,0
				c-3.5,2.9-163.3,138.5-164,139.1c-5.4,4.6-13.4,4-18-1.4c-4.6-5.4-4-13.4,1.3-18l180.6-153.2c4.8-4.1,11.8-4.1,16.6,0
				l178.9,153.1C689.7,464.8,690.4,472.9,685.8,478.2z"/>
		</g>
	</g>
	<g>
		<g>
			<path class="st2" d="M535.5,431.6h-78.4c-7.1,0-12.6,5.7-12.6,12.8V521c0,7.1,5.5,12.8,12.6,12.8h78.4c7.1,0,12.8-5.7,12.8-12.8
				v-76.6C548.3,437.3,542.6,431.6,535.5,431.6z M522.9,508.2h-53v-51.1h53V508.2z"/>
		</g>
	</g>
	<g>
		<g>
			<circle class="st2" cx="510" cy="624.9" r="12.8"/>
		</g>
	</g>
</g>
</svg>
