<?xml version="1.0" encoding="utf-8"?>
<!-- Generator: Adobe Illustrator 22.1.0, SVG Export Plug-In . SVG Version: 6.00 Build 0)  -->
<svg version="1.1" id="Capa_1" xmlns="http://www.w3.org/2000/svg" xmlns:xlink="http://www.w3.org/1999/xlink" x="0px" y="0px"
	 viewBox="0 0 992.7 992.7" style="enable-background:new 0 0 992.7 992.7;" xml:space="preserve">
<style type="text/css">
	.st0{fill:#0D3798;}
	.st1{fill:#FFFFFF;stroke:#FFFFFF;stroke-width:5;stroke-miterlimit:10;}
	.st2{fill:#FFFFFF;}
</style>
<circle class="st0" cx="496.4" cy="496.4" r="472.1"/>
<g>
	<path class="st2" d="M646.7,349.9h-49.6c-0.4-6.7-6-12-12.7-12h-0.7v-27.4c0-17.8-14.6-32.2-32.6-32.2H441.6
		c-18,0-32.6,14.5-32.6,32.2V338h-0.7c-6.8,0-12.3,5.3-12.7,12h-49.6c-37,0-67.1,30.1-67.1,67.1v242.6c0,30.2,24.6,54.8,54.8,54.8
		H659c30.2,0,54.8-24.6,54.8-54.8V417C713.7,380,683.7,349.9,646.7,349.9z M504.3,375.5c11.4,2.3,21.3,8.7,28,18.3
		c6.9,9.8,9.5,21.7,7.4,33.6c-0.8,4.7-2.4,9.1-4.5,13.2l-35.9,4.1c-3.7,0.4-7,2.4-9.1,5.5l-52.6,76.5c-1.9,2.8-2.7,6.2-2,9.6
		c0.6,3.3,2.5,6.3,5.3,8.2l52.4,36.1c2.2,1.5,4.7,2.3,7.2,2.3c4.1,0,8.1-1.9,10.5-5.5l52.6-76.5c2.1-3,2.8-6.8,1.8-10.4l-9.1-35.4
		c4.1-7.1,7-14.8,8.4-23c3.3-18.5-0.8-37.2-11.6-52.7c-0.9-1.3-1.8-2.5-2.8-3.7h46.1v313.4H396.1V375.5H504.3z M539.4,490.9
		l-42.1,61.1l-31.4-21.6l42.1-61.1l25.1-2.9L539.4,490.9z M434.6,310.6c0-3.8,3-6.7,7-6.7h109.5c4,0,7,2.9,7,6.7V338h-0.7
		c-6.8,0-12.3,5.3-12.7,12H448c-0.4-6.7-6-12-12.7-12h-0.7V310.6z M304.5,659.6V417c0-22.9,18.6-41.5,41.5-41.5h24.5v313.4h-36.8
		C317.7,688.9,304.5,675.7,304.5,659.6z M688.2,659.6c0,16.1-13.1,29.2-29.2,29.2h-36.8V375.5h24.5c22.9,0,41.5,18.6,41.5,41.5
		V659.6L688.2,659.6z"/>
</g>
</svg>
