<?xml version="1.0" encoding="utf-8"?>
<!-- Generator: Adobe Illustrator 22.1.0, SVG Export Plug-In . SVG Version: 6.00 Build 0)  -->
<svg version="1.1" id="Capa_1" xmlns="http://www.w3.org/2000/svg" xmlns:xlink="http://www.w3.org/1999/xlink" x="0px" y="0px"
	 viewBox="0 0 18.2 18.2" style="enable-background:new 0 0 18.2 18.2;" xml:space="preserve">
<style type="text/css">
	.st0{fill:#ACACAC;}
</style>
<g>
	<path class="st0" d="M16.7,13.8c0,1.6-1.3,2.9-2.9,2.9H4.4c-1.6,0-2.9-1.3-2.9-2.9V4.4c0-1.6,1.3-2.9,2.9-2.9h9.4
		c1.6,0,2.9,1.3,2.9,2.9V13.8z M13.8,0H4.4C2,0,0,2,0,4.4v9.4c0,2.4,2,4.4,4.4,4.4h9.4c2.4,0,4.4-2,4.4-4.4V4.4
		C18.2,2,16.3,0,13.8,0"/>
	<path class="st0" d="M9.8,6.6c0-0.4,0.2-0.4,0.4-0.4h1V4.6l-1.4,0c-1.6,0-1.9,1.2-1.9,1.9v0.8H7v1.8h0.9v4.6h1.8V9.1h1.4l0.2-1.8
		H9.8V6.6z"/>
</g>
</svg>
