<?xml version="1.0" encoding="utf-8"?>
<!-- Generator: Adobe Illustrator 22.1.0, SVG Export Plug-In . SVG Version: 6.00 Build 0)  -->
<svg version="1.1" id="Capa_1" xmlns="http://www.w3.org/2000/svg" xmlns:xlink="http://www.w3.org/1999/xlink" x="0px" y="0px"
	 viewBox="0 0 512 512" style="enable-background:new 0 0 512 512;" xml:space="preserve">
<style type="text/css">
	.st0{fill:#00349E;}
</style>
<g>
	<g>
		<path class="st0" d="M256.8,103.9c-38.7,0-70.2,33.2-70.2,74.1c0,40.9,31.5,74.1,70.2,74.1s70.2-33.2,70.2-74.1
			C326.9,137.2,295.5,103.9,256.8,103.9z M256.8,222.2c-22.1,0-40.2-19.8-40.2-44.1s18-44.1,40.2-44.1s40.2,19.8,40.2,44.1
			S278.9,222.2,256.8,222.2z"/>
	</g>
</g>
<g>
	<g>
		<path class="st0" d="M406.1,113.9h-0.5c-33.6,0.3-60.6,29.3-60.3,64.7c0.3,35.2,27.6,63.7,60.9,63.7h0.5
			c16.5-0.1,31.8-7.1,43.2-19.5c11.2-12.2,17.2-28.2,17.1-45.1C466.8,142.4,439.5,113.9,406.1,113.9z M427.9,202.4
			c-5.7,6.3-13.3,9.7-21.4,9.8h-0.2c-16.9,0-30.8-15.1-30.9-33.9c-0.2-18.8,13.6-34.3,30.6-34.4h0.2c16.9,0,30.8,15.2,30.9,33.9
			C437.1,187.1,433.9,195.9,427.9,202.4z"/>
	</g>
</g>
<g>
	<g>
		<path class="st0" d="M421.7,249.7h-31c-23.9,0-45.6,9.3-61.7,24.5c-15.7-9.3-34-14.6-53.6-14.6h-37.3c-19.9,0-38.6,5.5-54.5,15.2
			c-16.2-15.5-38.2-25-62.3-25h-31C40.5,249.7,0,290.2,0,340v38.2h132.5V408H381v-29.8h131V340C512,290.2,471.5,249.7,421.7,249.7z
			 M133.9,348.3H30V340c0-33.2,27-60.3,60.3-60.3h31c14.8,0,28.4,5.4,38.9,14.2C146.6,308.8,137.2,327.5,133.9,348.3z M351,378
			h-50.6h-88.8h-49.1v-12.9c0-5.8,0.7-11.4,1.9-16.9c2.4-10.6,7.1-20.4,13.5-28.9c6.4-8.4,14.4-15.4,23.7-20.5
			c10.8-6,23.2-9.4,36.4-9.4h37.3c12.7,0,24.7,3.2,35.2,8.7c9.3,4.9,17.4,11.7,23.9,19.8c6.9,8.7,12,19,14.5,30.1
			c1.2,5.4,1.9,11.1,1.9,16.9L351,378L351,378z M482,348.3H379.6c-3.4-21-13-40-26.9-55c10.4-8.5,23.6-13.5,38-13.5h31
			c33.2,0,60.3,27,60.3,60.3L482,348.3L482,348.3z"/>
	</g>
</g>
<g>
	<g>
		<path class="st0" d="M105.8,113.9h-0.5c-33.6,0.3-60.6,29.3-60.3,64.7c0.3,35.2,27.6,63.7,60.9,63.7h0.5
			c16.5-0.1,31.8-7.1,43.2-19.5c11.2-12.2,17.2-28.2,17.1-45.1C166.4,142.4,139.1,113.9,105.8,113.9z M127.5,202.4
			c-5.7,6.3-13.3,9.7-21.4,9.8h-0.2c-16.9,0-30.8-15.1-30.9-33.9c-0.2-18.8,13.6-34.3,30.6-34.4h0.2c16.9,0,30.8,15.2,30.9,33.9
			C136.7,187.1,133.5,195.9,127.5,202.4z"/>
	</g>
</g>
</svg>
