<?xml version="1.0" encoding="utf-8"?>
<!-- Generator: Adobe Illustrator 22.1.0, SVG Export Plug-In . SVG Version: 6.00 Build 0)  -->
<svg version="1.1" id="Capa_1" xmlns="http://www.w3.org/2000/svg" xmlns:xlink="http://www.w3.org/1999/xlink" x="0px" y="0px"
	 viewBox="0 0 992.7 992.7" style="enable-background:new 0 0 992.7 992.7;" xml:space="preserve">
<style type="text/css">
	.st0{fill:#0D3798;}
	.st1{fill:#FFFFFF;stroke:#FFFFFF;stroke-width:5;stroke-miterlimit:10;}
	.st2{fill:#FFFFFF;}
</style>
<circle class="st0" cx="496.4" cy="496.4" r="472.1"/>
<g>
	<path class="st1" d="M495.6,333.7c4.7,0,8.6-3.8,8.6-8.6v-38.3c0-4.7-3.8-8.6-8.6-8.6c-4.7,0-8.6,3.8-8.6,8.6v38.3
		C487,329.9,490.9,333.7,495.6,333.7L495.6,333.7z"/>
	<path class="st1" d="M705.3,573l-15.2-15.1c-5.4-5.4-12.6-8.3-20.2-8.3c-4.9,0-9.6,1.2-13.8,3.5l-28.6-28.5l1.4-1.4
		c11.6-11.6,11.6-30.5,0-42c-4.1-4.1-9.3-6.9-14.9-8.1c0.8-2.7,1.2-5.5,1.2-8.3c0-8-3.1-15.4-8.7-21c-4.1-4.1-9.3-6.9-14.9-8.1
		c0.8-2.7,1.2-5.5,1.2-8.3c0-8-3.1-15.4-8.7-21c-4.2-4.2-9.4-6.9-14.9-8.1c2.9-10.1,0.4-21.4-7.5-29.4c-6.6-6.6-15.6-9.4-24.2-8.5
		l-56.6-10.7c-8.6-1.6-19.4-2.7-26.2,3.5c-0.4,0.4-0.9,0.8-1.3,1.3c-10.5-3.8-22.8-1.6-31.3,6.9c-5.6,5.6-8.7,13.1-8.7,21
		c0,2.9,0.4,5.7,1.2,8.3c-5.6,1.2-10.8,3.9-14.9,8.1c-5.6,5.6-8.7,13.1-8.7,21c0,2.9,0.4,5.7,1.2,8.4c-5.6,1.2-10.8,3.9-14.9,8
		c-5.6,5.6-8.7,13.1-8.7,21c0,6.1,1.8,11.9,5.2,16.8c-4.3,1.4-8.2,3.8-11.4,7.1c-11.6,11.6-11.6,30.4,0,42.1l1.4,1.4L335.1,553
		c-10.6-5-23.7-3.1-32.4,5.6l-15.2,15.1c-5.4,5.4-8.4,12.6-8.4,20.2c0,7.7,3,14.8,8.4,20.2l18.9,18.9c3.4,3.3,8.8,3.3,12.1,0
		c3.3-3.4,3.3-8.8,0-12.1l-18.9-18.9c-2.1-2.1-3.3-5-3.3-8.1c0-3.1,1.2-5.9,3.3-8.1l15.2-15.1c3.8-3.8,9.6-4.3,14-1.7
		c0.3,0.5,0.7,0.9,1.1,1.3c0.7,0.7,1.6,1.3,2.5,1.7l87,86.8c0.4,0.9,1,1.7,1.7,2.5c0.7,0.7,1.5,1.3,2.4,1.7c1.8,2.1,2.9,4.7,2.9,7.6
		c0,3.1-1.2,5.9-3.3,8.1l-15.1,15.1c-4.5,4.5-11.8,4.5-16.2,0L372.6,675c-3.3-3.3-8.8-3.3-12.1,0s-3.3,8.8,0,12.1l18.9,18.9
		c5.6,5.6,12.9,8.3,20.2,8.3c7.3,0,14.7-2.8,20.2-8.3l15.2-15.1c5.4-5.4,8.4-12.6,8.4-20.2c0-5.5-1.5-10.7-4.3-15.2l32.1-32.1
		c0,0,0.1-0.1,0.1-0.1c3.7-3.8,13.9-3.1,23.8-2.4c7,0.5,14.9,1,22.6,0.1l35.2,35.2c-2.3,4.2-3.5,8.8-3.5,13.7c0,7.7,3,14.8,8.4,20.2
		l15.2,15.1c5.4,5.4,12.6,8.3,20.2,8.3c7.7,0,14.8-3,20.2-8.3l91.9-91.8c5.4-5.4,8.4-12.6,8.4-20.2
		C713.6,585.6,710.7,578.4,705.3,573L705.3,573z M477.6,366.4l37.2,7l-22.3,22.3c-3.4-1.7-8.2-4.7-13.3-9.7
		c-7.1-6.8-12.2-14.6-12.6-19.5c0,0,0,0,0,0c0,0,0,0,0,0c0-0.4,0-0.6,0-0.8C467.7,365.4,470.7,365.1,477.6,366.4L477.6,366.4z
		 M434.2,373.4c4.3-4.3,11.1-4.8,16-1.5c2.8,11.7,12.7,22.2,17.2,26.5c3.3,3.2,14,12.7,24.7,15.3c1.5,2.1,2.2,4.6,2.2,7.2
		c0,3.4-1.3,6.5-3.7,8.9c-2.4,2.4-5.5,3.7-8.9,3.7c-3.4,0-6.5-1.3-8.9-3.7l0,0l0,0l-38.7-38.6c-2.4-2.4-3.7-5.5-3.7-8.9
		C430.5,378.9,431.8,375.8,434.2,373.4L434.2,373.4z M411.7,410.9c2.4-2.4,5.5-3.7,8.9-3.7c3.4,0,6.6,1.3,8.9,3.7l31.1,31.1
		c4.9,4.9,4.9,12.9,0,17.8c-2.4,2.4-5.5,3.7-8.9,3.7s-6.6-1.3-8.9-3.7l0,0l-23.6-23.6c0,0-0.1-0.1-0.1-0.1l-7.4-7.4
		c-2.4-2.4-3.7-5.5-3.7-8.9C408.1,416.4,409.4,413.2,411.7,410.9L411.7,410.9z M389.3,448.3c2.4-2.4,5.5-3.7,8.9-3.7
		c3.4,0,6.5,1.3,8.9,3.6l23.7,23.7c2.4,2.4,3.7,5.5,3.7,8.9c0,3.4-1.3,6.5-3.7,8.9c-2.4,2.4-5.5,3.7-8.9,3.7c-3.4,0-6.6-1.3-8.9-3.7
		l-8.6-8.6c0,0,0,0,0,0l-15-15c-2.4-2.4-3.7-5.5-3.7-8.9C385.6,453.8,386.9,450.6,389.3,448.3L389.3,448.3z M374.4,493.2
		c2.4-2.4,5.5-3.7,8.9-3.7c3.4,0,6.6,1.3,8.9,3.7l8.6,8.6c2.4,2.4,3.7,5.5,3.7,8.9c0,3.4-1.3,6.5-3.7,8.9c-2.4,2.4-5.5,3.7-8.9,3.7
		c-3.4,0-6.5-1.3-8.9-3.7l-1.1-1.1c0,0,0,0,0,0c0,0,0,0,0,0l-7.4-7.4C369.5,506.1,369.5,498.1,374.4,493.2L374.4,493.2z
		 M549.2,590.7c-3.3-3.4-8.8-3.4-12.1,0l-7.6,7.6c-7.3,7.3-20.4,6.3-33.1,5.5c-13.8-1-28.1-1.9-37.3,7.5l-31.6,31.6l-79-78.9
		l28-27.9c4.6,2.8,10,4.4,15.5,4.4c8,0,15.4-3.1,21-8.7c5.6-5.6,8.7-13.1,8.7-21c0-0.1,0-0.1,0-0.2c0.1,0,0.1,0,0.2,0
		c8,0,15.4-3.1,21-8.7c5.6-5.6,8.7-13.1,8.7-21c0-0.1,0-0.1,0-0.2c0.1,0,0.1,0,0.2,0c8,0,15.4-3.1,21.1-8.7
		c5.8-5.9,8.7-13.6,8.7-21.2c0.1,0,0.2,0,0.2,0c8,0,15.4-3.1,21-8.7c5.6-5.6,8.7-13.1,8.7-21c0-5.6-1.5-10.9-4.3-15.5l24.5-24.5
		c1.8-1.8,4.1-3,6.4-3.4c0.3,0,0.5-0.1,0.8-0.1c3.8-0.5,7.8,0.6,10.7,3.5c4.9,4.9,4.9,12.9,0,17.8l-7.5,7.4c0,0-0.1,0-0.1,0.1
		l-8.6,8.6c-3.4,3.3-3.4,8.8,0,12.1c3.3,3.4,8.8,3.4,12.1,0l7.5-7.5c0,0,0,0,0,0l1.1-1.1c4.9-4.9,12.9-4.9,17.8,0
		c2.4,2.4,3.7,5.5,3.7,8.9c0,3.4-1.3,6.5-3.7,8.9l-7.5,7.5c0,0,0,0,0,0l-8.6,8.6c-3.4,3.3-3.4,8.8,0,12.1c3.3,3.4,8.8,3.4,12.1,0
		l8.6-8.6c2.4-2.4,5.5-3.7,8.9-3.7c3.4,0,6.5,1.3,8.9,3.7c2.4,2.4,3.7,5.5,3.7,8.9c0,3.4-1.3,6.5-3.7,8.9l-15,15
		c-3.3,3.4-3.3,8.8,0,12.1c1.7,1.7,3.9,2.5,6.1,2.5c2.2,0,4.4-0.8,6.1-2.5l7.3-7.3c0,0,0.1-0.1,0.1-0.1c2.4-2.4,5.5-3.7,8.9-3.7
		c3.4,0,6.5,1.3,8.9,3.7c4.9,4.9,4.9,12.9,0,17.8l-7.5,7.4c0,0,0,0,0,0c0,0,0,0,0,0l-11.8,11.8c-3.4,3.3-3.4,8.8,0,12.1
		c1.7,1.7,3.9,2.5,6.1,2.5c2.2,0,4.4-0.8,6.1-2.5l5.8-5.8l27.7,27.7l-79,78.9L535.9,615c2-1.3,3.9-2.8,5.6-4.5l7.6-7.6
		C552.5,599.5,552.5,594.1,549.2,590.7L549.2,590.7z M693.2,601.3l-91.9,91.8c-2.2,2.1-5,3.3-8.1,3.3c-3.1,0-6-1.2-8.1-3.3
		L569.9,678c-2.1-2.1-3.3-5-3.3-8.1c0-3.1,1.2-5.9,3.3-8.1l91.9-91.8c2.2-2.1,5-3.3,8.1-3.3c3.1,0,6,1.2,8.1,3.3l15.2,15.1
		c2.1,2.1,3.3,5,3.3,8.1C696.5,596.3,695.3,599.2,693.2,601.3z"/>
	<path class="st1" d="M381.7,326.5c1.7,1.7,3.9,2.5,6.1,2.5c2.2,0,4.4-0.8,6.1-2.5c3.3-3.4,3.3-8.8,0-12.1l-31.3-31.2
		c-3.4-3.3-8.8-3.3-12.1,0c-3.3,3.4-3.3,8.8,0,12.1L381.7,326.5z"/>
	<path class="st1" d="M603.4,329c2.2,0,4.4-0.8,6.1-2.5l31.2-31.2c3.4-3.3,3.4-8.8,0-12.1c-3.3-3.4-8.8-3.4-12.1,0l-31.2,31.2
		c-3.4,3.3-3.4,8.8,0,12.1C599.1,328.2,601.2,329,603.4,329z"/>
	<path class="st1" d="M331.8,647.3c-3.3,3.4-3.3,8.8,0.1,12.1l0,0c1.7,1.6,3.8,2.5,6,2.5c2.2,0,4.4-0.9,6.1-2.6
		c3.3-3.4,3.3-8.8-0.1-12.1C340.6,643.9,335.2,643.9,331.8,647.3z"/>
	<path class="st1" d="M570.1,578.4c1.3,0,2.6-0.3,3.9-0.9c4.2-2.1,5.9-7.3,3.8-11.5c-2.1-4.2-7.3-5.9-11.5-3.8l0,0
		c-4.2,2.1-5.9,7.3-3.8,11.5C564,576.6,567,578.4,570.1,578.4L570.1,578.4z"/>
</g>
</svg>
