<svg width="51" height="51" viewBox="0 0 51 51" fill="none" xmlns="http://www.w3.org/2000/svg">
<path fill-rule="evenodd" clip-rule="evenodd" d="M25.3972 18.2543C25.3972 18.2543 29.3421 18.2543 32.1316 21.0438C32.1316 21.0438 34.9211 23.8333 34.9211 27.7782C34.9211 27.7782 34.9211 31.7232 32.1316 34.5127C32.1316 34.5127 29.3421 37.3022 25.3972 37.3022C25.3972 37.3022 21.4522 37.3022 18.6627 34.5127C18.6627 34.5127 15.8732 31.7232 15.8732 27.7782C15.8732 27.7782 15.8732 23.8333 18.6627 21.0438C18.6627 21.0438 21.4522 18.2543 25.3972 18.2543ZM25.3972 21.429C25.3972 21.429 22.7672 21.429 20.9075 23.2886C20.9075 23.2886 19.0479 25.1483 19.0479 27.7782C19.0479 27.7782 19.0479 30.4082 20.9075 32.2679C20.9075 32.2679 22.7672 34.1275 25.3972 34.1275C25.3972 34.1275 28.0271 34.1275 29.8868 32.2679C29.8868 32.2679 31.7465 30.4082 31.7465 27.7782C31.7465 27.7782 31.7465 25.1483 29.8868 23.2886C29.8868 23.2886 28.0271 21.429 25.3972 21.429Z" fill="#010F4D"/>
<path d="M47.1414 28.7278C47.3934 29.065 47.7696 29.289 48.1862 29.3493C48.2615 29.3601 48.3374 29.3656 48.4134 29.3656L48.4161 29.3656C48.7577 29.365 49.09 29.2542 49.3636 29.0497C49.7646 28.75 50.0007 28.2788 50.0007 27.7783L50.0006 27.7601C49.9967 27.4238 49.8861 27.0974 49.6848 26.828L49.6835 26.8262C47.7755 24.2742 44.9254 22.8492 44.9254 22.8492C42.0744 21.4236 38.8868 21.429 38.8868 21.429L38.8894 21.429C39.7661 21.429 40.4768 22.1396 40.4768 23.0163C40.4768 23.8916 39.7682 24.6017 38.893 24.6036L47.1414 28.7278Z" fill="#010F4D"/>
<path d="M7.28868 25.6887C9.46693 24.5995 11.9023 24.6036 11.9023 24.6036L11.9045 24.6036C11.9291 24.6036 11.954 24.6031 11.9785 24.6019C12.3727 24.5836 12.746 24.4191 13.0255 24.1406C13.3236 23.8434 13.4916 23.4399 13.4923 23.019L13.4923 23.0168C13.4923 22.9208 13.4836 22.8245 13.4662 22.7301C13.3283 21.9774 12.6729 21.4303 11.9076 21.429L11.9049 21.429C8.71882 21.4242 5.86893 22.8492 5.86893 22.8492C3.01887 24.2742 1.11093 26.8262 1.11093 26.8262L1.10978 26.8277C0.904508 27.1024 0.793701 27.4357 0.793701 27.7783L0.793788 27.7949C0.794526 27.8653 0.799953 27.9356 0.810032 28.0054C0.870265 28.422 1.09355 28.7977 1.43076 29.0497C1.70513 29.2548 2.03848 29.3656 2.38102 29.3656C2.40224 29.3656 2.42346 29.3652 2.44467 29.3643C2.92248 29.3451 3.36619 29.1116 3.65247 28.7285C5.11042 26.7778 7.28868 25.6887 7.28868 25.6887Z" fill="#010F4D"/>
<path d="M31.2936 38.9973C33.9983 40.6865 35.3981 43.5514 35.3981 43.5514L35.399 43.5532C35.6652 44.0983 36.2192 44.4451 36.8259 44.4451L36.8693 44.4445C37.096 44.4383 37.3186 44.3836 37.5223 44.2841C38.0674 44.0179 38.4132 43.4644 38.4132 42.8577L38.4126 42.8143C38.4064 42.5877 38.3517 42.365 38.2522 42.1613C36.4531 38.4776 32.9753 36.3046 32.9753 36.3046C29.4975 34.1326 25.3972 34.1326 25.3972 34.1326C21.2968 34.1326 17.819 36.3046 17.819 36.3046C14.3418 38.4763 12.5427 42.16 12.5427 42.16C12.4367 42.377 12.3811 42.6164 12.3811 42.8577L12.3813 42.8784C12.3835 43.0471 12.4125 43.2143 12.4674 43.3739C12.6042 43.772 12.8937 44.0994 13.272 44.2841C13.4889 44.39 13.7271 44.4451 13.9684 44.4451L14.0049 44.4446C14.5982 44.431 15.1344 44.0875 15.3948 43.5542C16.7947 40.6873 19.5007 38.9973 19.5007 38.9973C22.2067 37.3072 25.3972 37.3072 25.3972 37.3072C28.5876 37.3072 31.2936 38.9973 31.2936 38.9973Z" fill="#010F4D"/>
<path d="M15.369 13.4064C16.3165 14.4149 16.576 15.7741 16.576 15.7741C16.6549 16.1876 16.8949 16.5528 17.2431 16.7894C17.5062 16.9682 17.817 17.0638 18.1351 17.0638L18.1454 17.0638C18.2419 17.0631 18.338 17.0537 18.4328 17.0356C19.1811 16.8928 19.7225 16.2384 19.7225 15.4765L19.7224 15.4675C19.7219 15.3706 19.7125 15.274 19.6943 15.1788C19.2619 12.9135 17.6827 11.2326 17.6827 11.2326C16.1036 9.5518 13.8696 8.97902 13.8696 8.97902C11.6356 8.40624 9.44248 9.11992 9.44248 9.11992C7.24941 9.8336 5.78034 11.6115 5.78034 11.6115C4.31128 13.3893 4.02378 15.6776 4.02378 15.6776C3.73628 17.9659 4.71989 20.0519 4.71989 20.0519C5.70351 22.1379 7.65188 23.3719 7.65188 23.3719C9.59957 24.6055 11.9045 24.6036 11.9045 24.6036L11.9065 24.6036C12.3275 24.6031 12.7311 24.4355 13.0285 24.1375C13.3254 23.8399 13.4923 23.4372 13.4923 23.0168L13.4922 23.0146C13.4913 22.1386 12.781 21.429 11.9049 21.429L11.9033 21.4289C10.5195 21.4303 9.35052 20.6899 9.35052 20.6899C8.1815 19.9495 7.59132 18.6979 7.59132 18.6979C7.00116 17.4463 7.17365 16.0733 7.17365 16.0733C7.34615 14.7004 8.22759 13.6337 8.22759 13.6337C9.10903 12.5669 10.4249 12.1387 10.4249 12.1387C11.7407 11.7105 13.0811 12.0542 13.0811 12.0542C14.4215 12.3979 15.369 13.4064 15.369 13.4064Z" fill="#010F4D"/>
<path d="M41.4438 20.6899C40.2748 21.4303 38.891 21.4289 38.891 21.4289L38.8894 21.429C38.8645 21.429 38.8396 21.4295 38.8148 21.4307L37.3038 23.0909C37.3224 23.4851 37.4871 23.8582 37.7659 24.1375C38.0632 24.4355 38.4668 24.6031 38.8878 24.6036L38.8894 24.6036C41.1948 24.6055 43.1424 23.3719 43.1424 23.3719C45.0908 22.1379 46.0744 20.0519 46.0744 20.0519C47.058 17.9659 46.7705 15.6776 46.7705 15.6776C46.4831 13.3893 45.014 11.6115 45.014 11.6115C43.5449 9.8336 41.3518 9.11992 41.3518 9.11992C39.1588 8.40624 36.9248 8.97902 36.9248 8.97902C34.6907 9.5518 33.1116 11.2326 33.1116 11.2326C31.5324 12.9135 31.1 15.1788 31.1 15.1788C31.0813 15.2769 31.0719 15.3766 31.0719 15.4765C31.0719 15.5242 31.074 15.5718 31.0783 15.6194C31.1421 16.3249 31.6657 16.9028 32.3616 17.0356C32.4597 17.0544 32.5593 17.0638 32.6592 17.0638C32.7069 17.0638 32.7546 17.0616 32.8021 17.0573C33.5076 16.9936 34.0855 16.47 34.2183 15.7741C34.4778 14.4149 35.4253 13.4064 35.4253 13.4064C36.3728 12.3979 37.7132 12.0542 37.7132 12.0542C39.0536 11.7105 40.3694 12.1387 40.3694 12.1387C41.6853 12.5669 42.5667 13.6337 42.5667 13.6337C43.4482 14.7004 43.6207 16.0733 43.6207 16.0733C43.7932 17.4463 43.203 18.6979 43.203 18.6979C42.6128 19.9495 41.4438 20.6899 41.4438 20.6899Z" fill="#010F4D"/>
</svg>
