<svg width="51" height="51" viewBox="0 0 51 51" fill="none" xmlns="http://www.w3.org/2000/svg">
<path fill-rule="evenodd" clip-rule="evenodd" d="M4.76196 15.8732C4.76196 15.8732 4.76196 14.5582 5.69179 13.6284C5.69179 13.6284 6.62162 12.6986 7.9366 12.6986H42.8577C42.8577 12.6986 44.1726 12.6986 45.1025 13.6284C45.1025 13.6284 46.0323 14.5582 46.0323 15.8732V41.2703C46.0323 41.2703 46.0323 42.5853 45.1025 43.5151C45.1025 43.5151 44.1726 44.445 42.8577 44.445H7.9366C7.9366 44.445 6.62162 44.445 5.69179 43.5151C5.69179 43.5151 4.76196 42.5853 4.76196 41.2703V15.8732ZM7.9366 15.8732V41.2703H42.8577V15.8732H7.9366Z" fill="#010F4D"/>
<path d="M31.7464 14.2859V20.6352C31.7464 21.5118 32.4571 22.2225 33.3337 22.2225C34.2104 22.2225 34.9211 21.5118 34.9211 20.6352V14.2859C34.9211 10.3409 32.1316 7.55145 32.1316 7.55145C29.3421 4.76196 25.3971 4.76196 25.3971 4.76196C21.4522 4.76196 18.6627 7.55146 18.6627 7.55146C15.8732 10.3409 15.8732 14.2859 15.8732 14.2859V20.6352C15.8732 21.5118 16.5839 22.2225 17.4605 22.2225C18.3372 22.2225 19.0478 21.5118 19.0478 20.6352V14.2859C19.0478 11.6559 20.9075 9.79627 20.9075 9.79627C22.7672 7.9366 25.3971 7.9366 25.3971 7.9366C28.0271 7.9366 29.8867 9.79626 29.8867 9.79626C31.7464 11.6559 31.7464 14.2859 31.7464 14.2859Z" fill="#010F4D"/>
</svg>
