<svg width="51" height="51" viewBox="0 0 51 51" fill="none" xmlns="http://www.w3.org/2000/svg">
<path d="M19.0479 20.6351H31.7465C32.6231 20.6351 33.3338 19.9245 33.3338 19.0478C33.3338 18.1712 32.6231 17.4605 31.7465 17.4605H19.0479C18.1713 17.4605 17.4606 18.1712 17.4606 19.0478C17.4606 19.9245 18.1713 20.6351 19.0479 20.6351Z" fill="#010F4D"/>
<path d="M19.0479 26.9844H31.7465C32.6231 26.9844 33.3338 26.2737 33.3338 25.3971C33.3338 24.5204 32.6231 23.8098 31.7465 23.8098H19.0479C18.1713 23.8098 17.4606 24.5204 17.4606 25.3971C17.4606 26.2737 18.1713 26.9844 19.0479 26.9844Z" fill="#010F4D"/>
<path d="M19.0479 33.3337H25.3972C26.2739 33.3337 26.9845 32.623 26.9845 31.7464C26.9845 30.8697 26.2739 30.1591 25.3972 30.1591H19.0479C18.1713 30.1591 17.4606 30.8697 17.4606 31.7464C17.4606 32.623 18.1713 33.3337 19.0479 33.3337Z" fill="#010F4D"/>
<path fill-rule="evenodd" clip-rule="evenodd" d="M9.52401 44.4449H31.0891L31.0917 44.4449C31.0917 44.4449 31.7171 44.4461 32.2958 44.2084C32.2958 44.2084 32.877 43.9697 33.3225 43.5264L43.5238 33.3251C43.5238 33.3251 43.9698 32.8769 44.2085 32.2957C44.2085 32.2957 44.4473 31.7144 44.445 31.086L44.4451 9.52388C44.4451 9.52388 44.4451 8.2089 43.5152 7.27907C43.5152 7.27907 42.5854 6.34924 41.2704 6.34924H9.52401C9.52401 6.34924 8.20903 6.34924 7.2792 7.27907C7.2792 7.27907 6.34937 8.20891 6.34937 9.52388V41.2703C6.34937 41.2703 6.34937 42.5853 7.2792 43.5151C7.2792 43.5151 8.20903 44.4449 9.52401 44.4449ZM41.2704 31.0889L31.089 41.2703H9.52401V9.52388H41.2704L41.2704 31.0889Z" fill="#010F4D"/>
<path d="M30.1592 31.7464V42.7187C30.1592 43.5954 30.8698 44.306 31.7465 44.306C32.6231 44.306 33.3338 43.5954 33.3338 42.7187V33.3337H42.7188C43.5955 33.3337 44.3062 32.623 44.3062 31.7464C44.3062 30.8697 43.5955 30.1591 42.7188 30.1591H31.7465C30.8698 30.1591 30.1592 30.8697 30.1592 31.7464Z" fill="#010F4D"/>
</svg>
