<?xml version="1.0" encoding="utf-8"?>
<!-- Generator: Adobe Illustrator 22.1.0, SVG Export Plug-In . SVG Version: 6.00 Build 0)  -->
<svg version="1.1" id="Capa_1" xmlns="http://www.w3.org/2000/svg" xmlns:xlink="http://www.w3.org/1999/xlink" x="0px" y="0px"
	 viewBox="0 0 512 512" style="enable-background:new 0 0 512 512;" xml:space="preserve">
<style type="text/css">
	.st0{fill:#00349E;}
</style>
<g>
	<path class="st0" d="M444.4,241.1c9.6-10.9,20.5-23.3,20.5-39.7c0-16.3-10.7-28.7-20.3-39.6c-5.4-6.2-11-12.6-12.6-17.8
		c-1.5-4.7-0.7-12.9,0-20.8c1.4-14.7,3-31.4-6.8-45c-9.9-13.7-26.2-17.3-40.6-20.5c-7.7-1.7-15.7-3.5-19.7-6.4
		c-4.4-3.2-8.7-10.5-12.9-17.6c-7.4-12.5-15.8-26.6-31.3-31.6C305.2-3,290,3.5,276.7,9.2c-7.5,3.2-15.2,6.5-20.4,6.5c0,0,0,0,0,0
		c-5.1,0-12.7-3.3-20.1-6.6c-13.4-5.9-28.7-12.5-44.5-7.4c-15.3,4.9-23.6,18.9-31,31.3c-4.3,7.2-8.7,14.6-13.3,17.9
		c-4.5,3.3-12.9,5.2-21.1,7c-14,3.2-29.9,6.8-39.3,19.8c-9.7,13.4-8.2,30-6.8,44.6c0.8,8,1.5,16.4,0,21.2c-1.6,5-7.2,11.3-12.6,17.5
		C58,172,47.1,184.4,47.1,200.8c0,16.3,10.7,28.7,20.3,39.6c5.4,6.2,11,12.6,12.6,17.8c1.5,4.7,0.7,12.9,0,20.8
		c-1.4,14.7-3,31.4,6.8,45c9.9,13.7,26.2,17.3,40.6,20.5c4.2,0.9,8.5,1.9,12.1,3V497c0,4.7,2.2,9.2,6,12c3.8,2.8,8.7,3.7,13.2,2.4
		l97.2-28.8l97.2,28.8c1.4,0.4,2.8,0.6,4.3,0.6c3.2,0,6.4-1,9-3c3.8-2.8,6-7.3,6-12V347.5c4-1.3,8.6-2.3,13.2-3.4
		c14-3.2,29.9-6.8,39.3-19.8c9.7-13.4,8.2-30,6.8-44.6c-0.8-8-1.5-16.4,0-21.2C433.4,253.5,439,247.2,444.4,241.1L444.4,241.1z
		 M169.5,383.3c5.5,7.4,12.3,13.8,21.7,16.8c15.6,5.1,30.8-1.4,44.1-7.2c1.9-0.8,3.8-1.6,5.7-2.4v65.2l-71.5,21.2L169.5,383.3
		L169.5,383.3z M271,455.7v-64.9c1.6,0.7,3.3,1.4,4.9,2.1c10.1,4.4,21.1,9.2,32.7,9.2c3.9,0,7.8-0.5,11.8-1.8
		c9.6-3.1,16.5-9.8,22.1-17.5v94.1L271,455.7z M421.9,221.3c-7.4,8.4-15.1,17.1-18.6,28c-3.5,10.8-2.4,22.2-1.4,33.3
		c0.9,9.3,1.9,19.9-1.2,24.1c-2.8,3.9-12.8,6.1-21.7,8.1c-10.6,2.4-22.6,5.1-32.1,12c-9.5,6.9-15.8,17.5-21.4,26.8
		c-4.7,7.8-9.9,16.6-14.4,18.1c-5,1.6-14.7-2.6-23.2-6.3c-10.1-4.4-20.5-8.9-31.7-9.1c-0.1,0-0.1,0-0.2,0c0,0,0,0-0.1,0
		c0,0-0.1,0-0.1,0c0,0-0.1,0-0.1,0c-11.4,0-22,4.6-32.3,9c-8.5,3.7-18.1,7.8-23,6.2c-4.7-1.5-10.1-10.5-14.8-18.4
		c-5.8-9.7-11.7-19.7-21-26.5c-9-6.6-20.1-9-30.8-11.4c-9.2-2.1-19.6-4.4-22.9-8.9c-3.2-4.5-2.2-15.1-1.3-24.6
		c1.1-10.9,2.2-22.3-1.3-32.9c-3.5-11-11.2-19.8-18.6-28.3c-6-6.9-12.9-14.8-12.9-19.8c0-5.1,7-13,13.1-20
		c7.4-8.4,15.1-17.1,18.6-28c3.5-10.8,2.4-22.2,1.4-33.3c-0.9-9.3-1.9-19.9,1.2-24.1c2.8-3.9,12.8-6.1,21.7-8.1
		c10.6-2.4,22.6-5.1,32.1-12c9.5-6.9,15.8-17.5,21.4-26.8c4.7-7.8,9.9-16.6,14.4-18.1c5-1.6,14.7,2.6,23.2,6.3
		c10.2,4.4,20.7,9,32,9.1h0.1c11.4,0,22-4.6,32.3-9c8.5-3.7,18.1-7.8,23-6.2c4.7,1.5,10.1,10.5,14.8,18.4c5.7,9.7,11.7,19.7,21,26.5
		c9,6.6,20.1,9,30.8,11.4c9.2,2.1,19.6,4.4,22.9,8.9c3.2,4.5,2.2,15.1,1.3,24.6c-1.1,10.9-2.2,22.3,1.3,32.9
		c3.5,11,11.2,19.8,18.6,28.3c6,6.9,12.9,14.8,12.9,19.8C434.9,206.4,428,214.3,421.9,221.3L421.9,221.3z"/>
	<path class="st0" d="M256,77c-68.3,0-123.8,55.6-123.8,124.1S187.7,325.1,256,325.1s123.8-55.6,123.8-124.1S324.3,77,256,77L256,77
		z M256,295.1c-51.7,0-93.8-42.2-93.8-94s42.1-94,93.8-94c51.7,0,93.8,42.2,93.8,94C349.8,252.9,307.7,295.1,256,295.1z"/>
	<path class="st0" d="M257,144.4h-20c-8.3,0-15,6.7-15,15c0,8.3,6.7,15,15,15h5v78.8c0,8.3,6.7,15,15,15c8.3,0,15-6.7,15-15v-93.8
		C272,151.1,265.3,144.4,257,144.4L257,144.4z"/>
</g>
</svg>
