<?xml version="1.0" encoding="utf-8"?>
<!-- Generator: Adobe Illustrator 22.1.0, SVG Export Plug-In . SVG Version: 6.00 Build 0)  -->
<svg version="1.1" id="Layer_1" xmlns="http://www.w3.org/2000/svg" xmlns:xlink="http://www.w3.org/1999/xlink" x="0px" y="0px"
	 viewBox="0 0 512 512" style="enable-background:new 0 0 512 512;" xml:space="preserve">
<style type="text/css">
	.st0{fill:#00349E;}
</style>
<g>
	<g>
		<path class="st0" d="M502.2,220.7l-85.4-34.3c-1.9-0.7-3.8-1.1-5.8-1.1h-24l-49.5-90.7c-2.7-5-8-8.2-13.8-8.2H72.6
			c-8.7,0-15.7,7-15.7,15.7v46.8H15.7c-8.7,0-15.7,7-15.7,15.7v116.2c0,8.7,7,15.7,15.7,15.7h41.2v64.1c0,8.7,7,15.7,15.7,15.7h12.2
			c7,28.4,32.7,49.5,63.2,49.5s56.2-21.1,63.2-49.5h132.6c7,28.4,32.7,49.5,63.2,49.5c30.5,0,56.2-21.1,63.2-49.5h26
			c8.7,0,15.7-7,15.7-15.7V235.2C512,228.8,508.1,223.1,502.2,220.7z M56.9,200.9V265H31.3v-84.8h25.5V200.9z M220.1,117.7h94.2
			l36.8,67.5h-131V117.7z M88.2,117.7h100.5v67.5H88.2V117.7z M88.2,216.6h289.3c0,0,0.1,0,0.1,0c0,0,0.1,0,0.1,0h30.2l70.7,28.4
			H88.2V216.6z M148,394.3c-18.6,0-33.8-15.2-33.8-33.8c0-18.6,15.2-33.8,33.8-33.8c18.6,0,33.8,15.2,33.8,33.8
			C181.8,379.1,166.6,394.3,148,394.3z M407,394.3c-18.6,0-33.8-15.2-33.8-33.8c0-18.6,15.2-33.8,33.8-33.8s33.8,15.2,33.8,33.8
			C440.8,379.1,425.7,394.3,407,394.3z M480.7,344.8h-10.4c-7-28.4-32.7-49.5-63.2-49.5c-30.5,0-56.2,21.1-63.2,49.5H211.2
			c-7-28.4-32.7-49.5-63.2-49.5c-26.7,0-49.7,16.2-59.8,39.2v-58.2h392.4L480.7,344.8L480.7,344.8z"/>
	</g>
</g>
</svg>
