<?xml version="1.0" encoding="utf-8"?>
<!-- Generator: Adobe Illustrator 22.1.0, SVG Export Plug-In . SVG Version: 6.00 Build 0)  -->
<svg version="1.1" id="Capa_1" xmlns="http://www.w3.org/2000/svg" xmlns:xlink="http://www.w3.org/1999/xlink" x="0px" y="0px"
	 viewBox="0 0 18.2 18.2" style="enable-background:new 0 0 18.2 18.2;" xml:space="preserve">
<style type="text/css">
	.st0{fill:#ACACAC;}
</style>
<g>
	<path class="st0" d="M16.7,13.8c0,1.6-1.3,2.9-2.9,2.9H4.4c-1.6,0-2.9-1.3-2.9-2.9V4.4c0-1.6,1.3-2.9,2.9-2.9h9.4
		c1.6,0,2.9,1.3,2.9,2.9V13.8z M13.8,0H4.4C2,0,0,2,0,4.4v9.4c0,2.4,2,4.4,4.4,4.4h9.4c2.4,0,4.4-2,4.4-4.4V4.4
		C18.2,2,16.3,0,13.8,0"/>
	<path class="st0" d="M12.8,11.4c-0.1,0.8-0.6,1.3-1.5,1.4c-0.3,0-0.7,0.1-1,0.1c-1,0-2,0-3.1,0c-0.2,0-0.4,0-0.6-0.1
		c-0.7-0.2-1-0.6-1.1-1.3c-0.1-0.3-0.1-0.6-0.1-0.9c0-0.5,0-0.9,0-1.4c0,0,0-1.3,0-1.9c0-0.2,0-0.4,0.1-0.6c0.2-0.6,0.6-1,1.3-1.1
		c0.3-0.1,0.6-0.1,1-0.1c0.6,0,1.2,0,1.8,0c0.5,0,1,0,1.5,0c0.2,0,0.4,0,0.6,0.1c0.6,0.2,1,0.6,1.1,1.3c0.1,0.3,0.1,0.7,0.1,1
		c0,0.8,0,1.6,0,2.4C12.8,10.6,12.8,11,12.8,11.4 M13.1,5.6c-0.5-0.7-1.2-0.9-1.9-1c-0.7,0-2.7-0.1-3,0c-0.5,0-1,0-1.5,0.1
		c-1,0.2-1.7,0.8-2,1.8C4.6,6.9,4.6,7.3,4.6,7.7c0,0.8,0,1.6,0,2.4c0,0.5,0,1,0.1,1.5c0.2,1,0.8,1.7,1.8,2c0.4,0.1,0.8,0.1,1.2,0.1
		c0.8,0,1.6,0,2.4,0c0.4,0,0.9,0,1.3-0.1c1.2-0.1,2-0.9,2.2-2.1c0.1-0.4,0.1-0.9,0.1-1.4c0-1,0-2.1,0-3.1C13.6,6.5,13.5,6,13.1,5.6"
		/>
	<path class="st0" d="M9.1,10.6c-0.8,0-1.5-0.7-1.5-1.5c0-0.8,0.7-1.5,1.5-1.5c0.8,0,1.5,0.7,1.5,1.5C10.6,10,10,10.6,9.1,10.6
		 M9.1,6.8c-1.3,0-2.3,1-2.3,2.3c0,1.3,1,2.3,2.3,2.3c1.3,0,2.3-1,2.3-2.3C11.5,7.8,10.4,6.8,9.1,6.8"/>
	<path class="st0" d="M11.5,6.1c-0.3,0-0.5,0.2-0.5,0.6c0,0.3,0.2,0.5,0.5,0.5c0.3,0,0.5-0.2,0.5-0.5C12.1,6.4,11.9,6.1,11.5,6.1"/>
</g>
</svg>
