<?xml version="1.0" encoding="utf-8"?>
<!-- Generator: Adobe Illustrator 22.1.0, SVG Export Plug-In . SVG Version: 6.00 Build 0)  -->
<svg version="1.1" id="Capa_1" xmlns="http://www.w3.org/2000/svg" xmlns:xlink="http://www.w3.org/1999/xlink" x="0px" y="0px"
	 viewBox="0 0 512 512" style="enable-background:new 0 0 512 512;" xml:space="preserve">
<style type="text/css">
	.st0{fill:#00349E;}
</style>
<g>
	<g>
		<path class="st0" d="M153.3,160.4c-6.1-23-22.5-40.9-44.8-49.1c-23.4-8.6-49.9-4.9-70.7,9.7c-2.6,1.8-4,5-3.6,8.2
			c0.5,3.2,2.7,5.8,5.7,6.9l102.4,34.6c0.9,0.3,1.8,0.5,2.7,0.5c2.1,0,4.2-0.8,5.8-2.3C153.2,166.7,154.1,163.5,153.3,160.4z
			 M64.9,126.5c12.3-3.8,25.6-3.6,37.8,0.9c11.2,4.1,20.5,11.4,26.8,21L64.9,126.5z"/>
	</g>
</g>
<g>
	<g>
		<path class="st0" d="M149.5,155.4c-20.6-12.5-47.6-12.3-70.6,0.6c-22.4,12.6-36.3,34.6-36.3,57.3c0,3,1.6,5.8,4.2,7.3
			c1.3,0.8,2.9,1.2,4.4,1.2c1.4,0,2.8-0.3,4.1-1l93.9-50.7c2.7-1.5,4.4-4.2,4.5-7.3C153.7,159.8,152.1,156.9,149.5,155.4z M63,197.3
			c4.4-10.5,12.9-20,24.3-26.4c9.2-5.2,19-7.8,28.4-7.8c3.1,0,6.1,0.3,9,0.8L63,197.3z"/>
	</g>
</g>
<g>
	<g>
		<path class="st0" d="M148.5,170.5l-6.8-15.6c-25.6,11.2-41.7,27.3-48.1,47.9c-10.2,33.1,9.3,65,10.2,66.3c1.6,2.5,4.3,4,7.2,4
			c0.3,0,0.7,0,1-0.1c3.3-0.4,6-2.7,7.1-5.8l27.6-83.3l-14.2-4.7C137.1,176,142.5,173.1,148.5,170.5z M110,240.1
			c-2.5-9.4-3.7-21-0.2-32.4c3.1-10.1,9.7-18.9,19.6-26.3L110,240.1z"/>
	</g>
</g>
<g>
	<g>
		<path class="st0" d="M194.3,54.2c-2-2.4-5.3-3.5-8.4-2.8c-1.4,0.3-34.6,8-50.1,37.6c-10.9,20.7-10.2,46.4,1.9,76.3
			c1.3,3.2,4.4,5.3,7.9,5.3c0,0,0,0,0,0c3.5,0,6.6-2.1,7.9-5.3L195.6,63C196.8,60,196.3,56.7,194.3,54.2z M146.7,136.9
			c-3.1-15.4-1.7-28.8,4.1-39.9c5.3-10.1,13.6-17,21.2-21.5L146.7,136.9z"/>
	</g>
</g>
<g>
	<g>
		<path class="st0" d="M243,112c-22-12-47.7-13-68.7-2.7c-19.9,9.8-33.5,28.6-37.1,51.5c-0.5,3.1,0.8,6.2,3.3,8.1
			c1.5,1.2,3.3,1.7,5.2,1.7c1.2,0,2.4-0.3,3.6-0.8l93.4-42.7c2.9-1.3,4.9-4.2,5-7.5C247.6,116.5,245.9,113.5,243,112z M159.5,146.4
			c4.9-9.4,12.5-16.9,22.3-21.7c7.3-3.6,15.4-5.4,23.6-5.4c3.7,0,7.4,0.3,11.1,1.1L159.5,146.4z"/>
	</g>
</g>
<g>
	<g>
		<path class="st0" d="M255.7,194.2c-5.8-22.8-21.8-40.6-43.7-48.8c-23.5-8.7-50.1-5.1-71.3,9.8l9.8,14
			c16.6-11.6,37.4-14.5,55.6-7.7c11.1,4.1,20.2,11.5,26.3,21.2l-63.4-20l-5.1,16.3l81.1,25.6c0.8,0.3,1.7,0.4,2.6,0.4
			c2.1,0,4.3-0.8,5.9-2.3C255.6,200.3,256.5,197.2,255.7,194.2z"/>
	</g>
</g>
<g>
	<g>
		<path class="st0" d="M143.6,165.9l-14.2,9.5c0.5,0.7,49.5,76.1,41.3,190.9l17,1.2C196.4,246.6,145.8,169.2,143.6,165.9z"/>
	</g>
</g>
<g>
	<g>
		<path class="st0" d="M169,157l-13.7,10.2c0.5,0.7,49.5,67.4,49.5,191.1h17.1C221.9,229,171.1,159.9,169,157z"/>
	</g>
</g>
<g>
	<g>
		<path class="st0" d="M422.3,52.3c-7.8-4.3-16.3-7.2-25.1-8.5c-40.8-6.2-78.8,22.1-84.9,62.8c-0.5,3.1,0.8,6.3,3.4,8.2
			c1.5,1.1,3.3,1.6,5,1.6c1.3,0,2.6-0.3,3.8-0.9l97.5-48c2.9-1.4,4.7-4.3,4.8-7.5C426.7,56.8,425,53.8,422.3,52.3z M334.8,91.3
			C344.6,72.4,364.3,60,386,60c2.8,0,5.7,0.2,8.6,0.6c0.6,0.1,1.2,0.2,1.8,0.3L334.8,91.3z"/>
	</g>
</g>
<g>
	<g>
		<path class="st0" d="M426.6,144.1c-2.7-22.8-18.2-42-41.5-51.6c-24-9.8-50.7-6.5-69.8,8.6c-2.4,1.9-3.6,5-3.1,8
			c0.5,3,2.5,5.6,5.4,6.7l97.5,37.3c1,0.4,2,0.6,3,0.6c1.9,0,3.7-0.6,5.2-1.8C425.7,150,427,147,426.6,144.1z M341,106.4
			c11.8-3.8,25.1-3.3,37.6,1.8c11.8,4.8,20.8,12.8,26.1,22.6L341,106.4z"/>
	</g>
</g>
<g>
	<g>
		<path class="st0" d="M376.5,141.3c-8.8-19.6-26.8-33.7-53.3-41.7l-4.9,16.3c21.6,6.5,35.9,17.4,42.6,32.2
			c5.2,11.5,5.2,23.9,3.7,33.8l-29.5-55.8l-15.1,8l39.4,74.7c1.5,2.8,4.4,4.5,7.6,4.5c0.1,0,0.2,0,0.2,0c3.3-0.1,6.2-2,7.5-5
			C375.3,206.9,390.7,172.9,376.5,141.3z"/>
	</g>
</g>
<g>
	<g>
		<path class="st0" d="M320.7,33.4C301.5,4.9,267.1,0.2,265.6,0.1c-3.3-0.4-6.3,1-8.1,3.7c-1.8,2.7-1.9,6.1-0.4,8.9l55.1,98.9
			c1.5,2.7,4.4,4.4,7.5,4.4c0.3,0,0.7,0,1-0.1c3.5-0.4,6.3-2.9,7.2-6.2C336.3,78.7,333.9,53,320.7,33.4z M315.5,82.4L282.3,23
			c8.3,3.9,17.6,10.1,24.2,20C313.6,53.6,316.6,66.8,315.5,82.4z"/>
	</g>
</g>
<g>
	<g>
		<path class="st0" d="M327.9,105.1c-6.4-22.3-22.2-39.3-43.2-46.7c-22.1-7.7-47.4-3.7-67.8,10.8c-2.6,1.9-4,5.1-3.5,8.3
			c0.5,3.2,2.8,5.8,5.8,6.8l97.8,31.2c0.9,0.3,1.7,0.4,2.6,0.4c2.2,0,4.3-0.8,6-2.4C327.9,111.4,328.7,108.1,327.9,105.1z
			 M244.1,74.4c11.6-3.7,23.7-3.8,34.9,0.2c10.3,3.6,18.7,10.1,24.8,18.9L244.1,74.4z"/>
	</g>
</g>
<g>
	<g>
		<path class="st0" d="M266,112.8c14.7-7.6,32.8-6.8,49.6,2.2l8-15.1c-21.8-11.6-45.7-12.5-65.5-2.3c-19.8,10.2-33,30.2-36.3,54.9
			c-0.4,3,0.8,6,3.3,7.9c1.5,1.2,3.4,1.8,5.2,1.8c1.1,0,2.2-0.2,3.3-0.6l73-29.9l-6.5-15.8l-57.4,23.5
			C247.5,127.5,255.5,118.2,266,112.8z"/>
	</g>
</g>
<g>
	<g>
		<path class="st0" d="M342.7,120.3l-15.6-7c-29.6,66.1-42.4,139.3-37,211.6l17-1.3C302,254.2,314.3,183.9,342.7,120.3z"/>
	</g>
</g>
<g>
	<g>
		<path class="st0" d="M319.5,107.4l-15.1-8c-36.9,69.2-53.7,147.2-48.4,225.4l17-1.1C268,248.6,284.1,173.9,319.5,107.4z"/>
	</g>
</g>
<g>
	<g>
		<rect y="392.5" class="st0" width="512" height="17.1"/>
	</g>
</g>
<g>
	<g>
		<rect x="187.7" y="426.7" class="st0" width="238.9" height="17.1"/>
	</g>
</g>
<g>
	<g>
		<rect x="76.8" y="426.7" class="st0" width="93.9" height="17.1"/>
	</g>
</g>
<g>
	<g>
		<rect x="281.6" y="349.9" class="st0" width="17.1" height="17.1"/>
	</g>
</g>
<g>
	<g>
		<rect x="324.3" y="358.4" class="st0" width="17.1" height="17.1"/>
	</g>
</g>
<g>
	<g>
		<rect x="238.9" y="358.4" class="st0" width="17.1" height="17.1"/>
	</g>
</g>
<g>
	<g>
		<rect x="247.5" y="460.8" class="st0" width="136.5" height="17.1"/>
	</g>
</g>
<g>
	<g>
		<rect x="119.5" y="460.8" class="st0" width="110.9" height="17.1"/>
	</g>
</g>
<g>
	<g>
		<rect x="204.8" y="494.9" class="st0" width="93.9" height="17.1"/>
	</g>
</g>
<g>
	<g>
		<path class="st0" d="M256,315.7c-14.7,0-29.4,1.1-43.9,3.2l2.4,16.9c13.7-2,27.6-3,41.4-3c74.4,0,141.9,29.2,168.1,72.7l14.6-8.8
			C409.1,347.5,337.4,315.7,256,315.7z"/>
	</g>
</g>
<g>
	<g>
		<path class="st0" d="M176.9,326.5c-47,13.4-84.8,39-103.6,70.2l14.6,8.8c16.6-27.5,50.8-50.3,93.7-62.6L176.9,326.5z"/>
	</g>
</g>
</svg>
