<?xml version="1.0" encoding="utf-8"?>
<!-- Generator: Adobe Illustrator 22.1.0, SVG Export Plug-In . SVG Version: 6.00 Build 0)  -->
<svg version="1.1" id="Layer_1" xmlns="http://www.w3.org/2000/svg" xmlns:xlink="http://www.w3.org/1999/xlink" x="0px" y="0px"
	 viewBox="0 0 48 48" style="enable-background:new 0 0 48 48;" xml:space="preserve">
<style type="text/css">
	.st0{fill:none;stroke:#FFFFFF;stroke-width:2.5;stroke-linecap:round;stroke-linejoin:round;}
</style>
<path class="st0" d="M44,33.8v6c0,2.2-1.8,4-4,4c-0.1,0-0.3,0-0.4,0c-6.2-0.7-12.1-2.8-17.3-6.1c-4.8-3.1-8.9-7.2-12-12
	C7,20.5,4.9,14.5,4.2,8.4C4,6.2,5.7,4.2,7.9,4C8,4,8.1,4,8.2,4h6c2,0,3.7,1.5,4,3.4c0.3,1.9,0.7,3.8,1.4,5.6
	c0.5,1.5,0.2,3.1-0.9,4.2l-2.5,2.5c2.8,5,7,9.2,12,12l2.5-2.5c1.1-1.1,2.8-1.4,4.2-0.9c1.8,0.7,3.7,1.1,5.6,1.4
	C42.6,30.1,44.1,31.8,44,33.8z"/>
</svg>
