<?xml version="1.0" encoding="utf-8"?>
<!-- Generator: Adobe Illustrator 23.0.5, SVG Export Plug-In . SVG Version: 6.00 Build 0)  -->
<svg version="1.1" id="Capa_1" xmlns="http://www.w3.org/2000/svg" xmlns:xlink="http://www.w3.org/1999/xlink" x="0px" y="0px"
	 viewBox="0 0 38.1 36" style="enable-background:new 0 0 38.1 36;" xml:space="preserve">
<style type="text/css">
	.st0{fill-rule:evenodd;clip-rule:evenodd;fill:#FFFFFF;}
	.st1{fill:#FFFFFF;}
</style>
<path class="st0" d="M28,3H10.3c-3.9,0-7,3.1-7,7v15.2c0,3.9,3.1,7,7,7H28c3.9,0,7-3.1,7-7V10C35,6.1,31.8,3,28,3z M10.3,1
	c-5,0-9,4-9,9v15.2c0,5,4,9,9,9H28c5,0,9-4,9-9V10c0-5-4-9-9-9H10.3z"/>
<path class="st1" d="M19.5,8.4c1,0,2,0,3,0c0.1,1.2,0.5,2.4,1.3,3.2c0.9,0.8,2.1,1.2,3.2,1.4v3.1c-1.1,0-2.2-0.3-3.2-0.7
	c-0.4-0.2-0.8-0.5-1.2-0.7c0,2.2,0,4.5,0,6.7c-0.1,1.1-0.4,2.1-1,3c-1,1.5-2.7,2.4-4.5,2.5C16,26.8,14.9,26.5,14,26
	c-1.5-0.9-2.6-2.6-2.8-4.4c0-0.4,0-0.8,0-1.1c0.1-1.5,0.9-2.9,2-3.8c1.3-1.1,3-1.6,4.7-1.3c0,1.1,0,2.3,0,3.4
	c-0.8-0.2-1.6-0.2-2.3,0.3c-0.5,0.3-0.9,0.8-1,1.3c-0.2,0.4-0.1,0.8-0.1,1.2c0.2,1.3,1.4,2.3,2.7,2.2c0.9,0,1.7-0.5,2.1-1.2
	c0.1-0.3,0.3-0.5,0.3-0.8c0.1-1.4,0-2.7,0.1-4.1C19.5,14.6,19.5,11.5,19.5,8.4z"/>
</svg>
