<svg width="83" height="83" viewBox="0 0 83 83" fill="none" xmlns="http://www.w3.org/2000/svg">
<path d="M9.07291 48.7949H9.07826C10.4187 48.7949 11.5068 47.7098 11.5099 46.3685C11.5271 38.3834 14.6467 30.8758 20.2941 25.2284C21.2438 24.279 21.2438 22.7392 20.2941 21.7896C19.3447 20.8401 17.8049 20.8401 16.8553 21.7896C10.292 28.3526 6.6664 37.078 6.64646 46.3581C6.64354 47.701 7.73 48.792 9.07291 48.7949Z" fill="#000B50"/>
<path d="M71.4902 46.3685C71.4932 47.7096 72.5811 48.7949 73.9219 48.7949H73.9272C75.2702 48.792 76.3565 47.701 76.3537 46.3581C76.3338 37.078 72.7082 28.3528 66.145 21.7896C65.1955 20.8401 63.6558 20.8401 62.7062 21.7896C61.7565 22.7391 61.7565 24.2788 62.7062 25.2284C68.3534 30.8758 71.4731 38.3834 71.4902 46.3685Z" fill="#000B50"/>
<path d="M47.5002 75.822C43.5186 76.6309 39.4812 76.6309 35.4998 75.822C34.1835 75.5537 32.8999 76.4046 32.6326 77.7206C32.3653 79.0368 33.2152 80.3203 34.5314 80.5878C36.8434 81.0576 39.1718 81.2927 41.5 81.2927C43.8282 81.2927 46.1566 81.0578 48.4686 80.5878C49.7848 80.3205 50.6347 79.0369 50.3674 77.7206C50.0999 76.4046 48.8158 75.5542 47.5002 75.822Z" fill="#000B50"/>
<path d="M55.5155 25.7676L54.0097 19.7277C53.3285 16.9955 51.438 14.8293 48.9925 13.7394C49.8916 12.3479 50.416 10.6926 50.416 8.91602C50.416 3.99972 46.4163 0 41.5 0C36.5837 0 32.584 3.99972 32.584 8.91602C32.584 10.6926 33.1082 12.3479 34.0073 13.7396C31.5619 14.8293 29.6715 16.9955 28.9903 19.7277L27.4843 25.7676C27.1804 26.9865 27.4496 28.2532 28.2231 29.2431C28.9965 30.2329 30.1604 30.8006 31.4166 30.8006H51.5832C52.8394 30.8006 54.0033 30.2329 54.7768 29.2431C55.5502 28.2532 55.8195 26.9865 55.5155 25.7676ZM41.5 4.86328C43.7347 4.86328 45.5527 6.68134 45.5527 8.91602C45.5527 11.1507 43.7347 12.9688 41.5 12.9688C39.2653 12.9688 37.4473 11.1507 37.4473 8.91602C37.4473 6.68134 39.2653 4.86328 41.5 4.86328ZM32.4541 25.9375L33.709 20.9043C34.1602 19.0953 35.7772 17.832 37.6415 17.832H45.3585C47.2228 17.832 48.84 19.0953 49.291 20.9043L50.5459 25.9375H32.4541Z" fill="#000B50"/>
<path d="M26.6475 71.927C25.9663 69.1948 24.0758 67.0285 21.6306 65.9388C22.5296 64.5471 23.0539 62.8918 23.0539 61.1152C23.0539 56.1989 19.0542 52.1992 14.1379 52.1992C9.22157 52.1992 5.22184 56.1989 5.22184 61.1152C5.22184 62.8918 5.7461 64.5471 6.64516 65.9388C4.19974 67.0285 2.30938 69.1949 1.6282 71.9271L0.1222 77.967C-0.181755 79.1859 0.087509 80.4526 0.860933 81.4425C1.6342 82.4323 2.7983 83 4.05449 83H24.2211C25.4773 83 26.6414 82.4323 27.4148 81.4425C28.1882 80.4526 28.4575 79.1857 28.1535 77.967L26.6475 71.927ZM14.1379 57.0625C16.3725 57.0625 18.1906 58.8806 18.1906 61.1152C18.1906 63.3499 16.3725 65.168 14.1379 65.168C11.9032 65.168 10.0851 63.3499 10.0851 61.1152C10.0851 58.8806 11.9032 57.0625 14.1379 57.0625ZM5.09199 78.1367L6.34704 73.1035C6.79787 71.2946 8.41507 70.0312 10.2793 70.0312H17.9964C19.8607 70.0312 21.4779 71.2946 21.9288 73.1035L23.1837 78.1367H5.09199Z" fill="#000B50"/>
<path d="M82.8778 77.9668L81.3718 71.927C80.6906 69.1948 78.8001 67.0285 76.3548 65.9386C77.2539 64.5469 77.7782 62.8916 77.7782 61.1151C77.7782 56.1988 73.7784 52.1991 68.8621 52.1991C63.9458 52.1991 59.9461 56.1988 59.9461 61.1151C59.9461 62.8916 60.4704 64.5469 61.3694 65.9386C58.924 67.0283 57.0336 69.1946 56.3525 71.9268L54.8465 77.9667C54.5425 79.1856 54.8118 80.4523 55.5852 81.4421C56.3586 82.432 57.5227 82.9997 58.7789 82.9997H78.9455C80.2017 82.9997 81.3658 82.432 82.1392 81.4421C82.9125 80.4525 83.1817 79.1857 82.8778 77.9668ZM68.8621 57.0625C71.0968 57.0625 72.9149 58.8806 72.9149 61.1152C72.9149 63.3499 71.0968 65.168 68.8621 65.168C66.6274 65.168 64.8094 63.3499 64.8094 61.1152C64.8094 58.8806 66.6274 57.0625 68.8621 57.0625ZM59.8163 78.1367L61.0711 73.1035C61.5223 71.2946 63.1393 70.0312 65.0036 70.0312H72.7207C74.5849 70.0312 76.202 71.2946 76.6529 73.1035L77.908 78.1367H59.8163Z" fill="#000B50"/>
<path d="M47.8861 41.7944L37.7465 51.934L35.114 49.3015C34.1645 48.352 32.6248 48.352 31.6752 49.3015C30.7256 50.251 30.7256 51.7907 31.6752 52.7403L36.0272 57.0923C36.502 57.5671 37.1243 57.8046 37.7465 57.8046C38.3687 57.8046 38.9912 57.5671 39.4658 57.0923L51.3248 45.2334C52.2744 44.2839 52.2744 42.7442 51.3248 41.7946C50.3753 40.8449 48.8356 40.8449 47.8861 41.7944Z" fill="#000B50"/>
</svg>
