<svg width="68" height="83" viewBox="0 0 68 83" fill="none" xmlns="http://www.w3.org/2000/svg">
<path d="M56.3767 19.7589L67.5768 5.6912C64.8634 5.36213 43.3472 -0.389449 21.8651 4.24065V0H17.0062V58.8971C12.8194 59.9839 9.71783 63.8112 9.71783 68.3529V68.5985C4.18012 69.7327 0 74.6644 0 80.5588V83H38.8713V80.5588C38.8713 74.6642 34.6912 69.7327 29.1535 68.5985V68.3529C29.1535 63.8114 26.0519 59.9839 21.8651 58.8971V38.5974C46.6998 33.5541 64.6449 39.75 68 40.1979L56.3767 19.7589ZM33.596 78.1177H5.27516C6.27772 75.276 8.97976 73.2353 12.1473 73.2353H26.724C29.8914 73.2353 32.5933 75.276 33.596 78.1177ZM24.2946 68.3529H14.5767C14.5767 65.6608 16.7564 63.4706 19.4356 63.4706C22.1149 63.4706 24.2946 65.6608 24.2946 68.3529ZM21.8651 33.6187V9.2392C32.608 6.75425 44.718 6.67499 58.7179 9.00241L50.5194 19.2999L58.4232 33.1984C46.2684 31.1312 34.0057 31.2713 21.8651 33.6187Z" fill="#000B50"/>
</svg>
