<?xml version="1.0" encoding="utf-8"?>
<!-- Generator: Adobe Illustrator 22.1.0, SVG Export Plug-In . SVG Version: 6.00 Build 0)  -->
<svg version="1.1" xmlns="http://www.w3.org/2000/svg" xmlns:xlink="http://www.w3.org/1999/xlink" x="0px" y="0px"
	 viewBox="0 0 1316 340" style="enable-background:new 0 0 1316 340;" xml:space="preserve">
<style type="text/css">
	.st0{fill-rule:evenodd;clip-rule:evenodd;fill:#FFFFFF;}
	.st1{fill-rule:evenodd;clip-rule:evenodd;fill:#FFFFFF;}
</style>
<g id="Capa_2">
	<path class="st0" d="M241.5,104.4c4.3-3.7,8.7-7.7,13.2-12c-14.3-9.5-31.4-15-49.9-15c-49.9,0-90.3,40.5-90.3,90.3
		c0,49.9,40.4,90.3,90.3,90.3c49.9,0,90.3-40.5,90.3-90.3c0-24.8-10-47.2-26.1-63.5c-0.2,9.6-0.8,18-1.7,25.5
		c6.8,11.1,10.7,24.1,10.7,38.1c0,40.4-32.8,73.2-73.2,73.2c-40.4,0-73.2-32.8-73.2-73.2c0-40.4,32.8-73.2,73.2-73.2
		C218.2,94.6,230.7,98.2,241.5,104.4z"/>
</g>
<g id="Capa_3">
	<path class="st0" d="M255.1,156.4c-35.5,48.4-69.7,68.5-92.7,76.7l10.2,5.6C193.6,234.9,232.3,219.1,255.1,156.4z"/>
</g>
<g id="Capa_4">
	<path class="st1" d="M252.5,135.1c-33,74.9-91.9,83.1-114.9,76.1C144,210.7,203.2,197.3,252.5,135.1z"/>
</g>
<g id="Capa_5">
	<path class="st1" d="M252.7,114.8c-31.1,65.8-76.1,70.7-95.2,65.3C172.5,175.9,206.9,166.6,252.7,114.8z"/>
</g>
<g id="Capa_6">
	<circle class="st1" cx="194.5" cy="134" r="13.9"/>
</g>
<g id="Capa_7">
	<path class="st1" d="M332.9,114.5v73.2c0,15.4,12.6,28.1,28.1,28.1h30.4v-12.1h-29c-8.8,0-16-7.2-16-16v-73.2H332.9z"/>
</g>
<g id="Capa_8">
	<path class="st1" d="M491.4,215.7h-16l-12.4-33h-44.8l-11.8,33h-14.9l41-101.2h15.4L491.4,215.7L491.4,215.7z M458.9,171.4
		l-18.9-44l-17.9,44H458.9z"/>
</g>
<g id="Capa_9">
	<polygon class="st1" points="534.9,126.6 513,126.6 513,215.8 499.6,215.8 499.6,126.6 477.6,126.6 477.6,114.6 534.9,114.6 	"/>
</g>
<g id="Capa_10">
	<rect x="544" y="114.6" class="st1" width="13.3" height="101.2"/>
</g>
<g id="Capa_11">
	<polygon class="st1" points="649.9,215.8 636.2,215.8 583,136 583,215.8 570.3,215.8 570.3,114.6 584.2,114.6 637.1,194.6 
		637.1,114.6 649.9,114.6 	"/>
</g>
<g id="Capa_12">
	<path class="st0" d="M758.8,215.8h-16.1c-12-29.7-23.5-58.6-35.5-88.3c-11.4,29.9-22.2,58.5-33.7,88.3h-14.9l41.1-101.2h15.4
		L758.8,215.8z"/>
</g>
<g id="Capa_13">
	<path class="st0" d="M850,164.6c0,34.1-17.2,51.2-51.6,51.2h-32.1V114.5h32.1C832.8,114.5,850,131.2,850,164.6L850,164.6z
		 M836.2,164.6L836.2,164.6c0-5.9-0.6-11.2-1.8-16c-1.2-4.7-3.2-8.7-6.1-12s-6.8-5.8-11.7-7.5c-4.9-1.7-11-2.6-18.4-2.6h-18.6v77.2
		h18.6c7.4,0,13.5-0.9,18.4-2.6c4.9-1.8,8.8-4.3,11.7-7.7c2.9-3.4,5-7.5,6.1-12.3C835.6,176.2,836.2,170.7,836.2,164.6z"/>
</g>
<g id="Capa_14">
	<polygon class="st0" points="939.5,114.5 900,215.7 886.2,215.7 846.8,114.5 861.2,114.5 893.1,201.3 925.2,114.5 	"/>
</g>
<g id="Capa_15">
	<rect x="948.8" y="114.5" class="st0" width="13.3" height="101.2"/>
</g>
<g id="Capa_16">
	<path class="st0" d="M1004.6,215.8c-5.5,0-10.3-0.8-14.4-2.4c-4.1-1.6-7.5-3.9-10.2-6.9c-4.3-4.6-8.3-13.2-8.5-20.5h11.2
		c0.3,4.3,3.3,10.6,6,13c2,1.8,4.3,3.1,7,3.9c2.6,0.8,5.4,1.3,8.4,1.3c2.9,0,5.5-0.4,7.9-1.2c2.4-0.8,4.4-1.9,6.1-3.3
		c1.7-1.5,3-3.2,3.9-5.3c0.9-2.1,1.4-4.4,1.4-6.9c0-2.7-0.4-4.9-1.3-6.8c-0.8-1.9-2.2-3.5-4.1-4.9c-1.9-1.4-4.4-2.6-7.5-3.7
		c-3.1-1.1-6.9-2.3-11.4-3.4c-4.3-1.2-8.1-2.7-11.2-4.3c-3.2-1.6-5.7-3.5-7.7-5.6c-2-2.2-3.5-4.6-4.5-7.4c-1-2.8-1.5-6-1.5-9.6
		c0-3.9,0.7-7.5,2-10.9c1.3-3.3,3.2-6.2,5.6-8.6c2.4-2.4,5.3-4.3,8.7-5.6c3.4-1.4,7.1-2,11.2-2c4.3,0,8.3,0.7,11.9,2
		c3.6,1.3,6.7,3.3,9.3,5.8c2.6,2.5,4.6,5.6,6.1,9.3c1.5,3.6,2.3,7.7,2.4,12.3h-10.8c-1.1-11.8-6.6-17.7-18.4-17.7
		c-5.8,0-10.2,1.3-13.3,4c-3.1,2.7-4.7,6.3-4.7,10.9c0,2.1,0.3,3.8,0.9,5.3c0.6,1.5,1.5,2.7,2.9,3.9c1.4,1.1,3.2,2.1,5.5,3
		c2.3,0.9,5.1,1.8,8.5,2.7c2.3,0.6,4.7,1.2,7.1,1.9c2.4,0.7,4.8,1.5,7.2,2.6c2.3,1,4.5,2.2,6.6,3.7c2.1,1.4,3.9,3.2,5.4,5.2
		c1.5,2,2.8,4.4,3.7,7.2c0.9,2.8,1.4,6,1.4,9.7c0,4.3-0.7,8.3-2.1,11.9c-1.4,3.6-3.4,6.7-6,9.3c-2.6,2.6-5.6,4.6-9.1,6.1
		C1012.6,215.1,1008.8,215.8,1004.6,215.8z"/>
</g>
<g id="Capa_17">
	<path class="st0" d="M1093.6,114.5c7.6,0,14.6,1.3,21.1,3.8c6.4,2.5,12,6,16.6,10.6c4.7,4.6,8.3,10.1,10.9,16.5
		c2.6,6.4,3.9,13.6,3.9,21.4c0,7.8-1.3,14.9-3.9,21.3c-2.6,6.4-6.2,11.9-10.8,16.6c-4.6,4.6-10.2,8.2-16.6,10.8
		c-6.4,2.6-13.5,3.8-21.2,3.8s-14.8-1.3-21.2-3.8c-6.4-2.5-12-6.1-16.6-10.7c-4.7-4.6-8.3-10.1-10.9-16.6
		c-2.6-6.4-3.9-13.6-3.9-21.4c0-7.9,1.3-15,4-21.5c2.6-6.4,6.3-12,10.9-16.5c4.7-4.6,10.2-8.1,16.6-10.6
		C1079,115.7,1086,114.5,1093.6,114.5L1093.6,114.5z M1093.5,207.8L1093.5,207.8c5.5,0,10.5-0.9,15.2-2.8c4.6-1.9,8.6-4.6,11.9-8.1
		c3.3-3.5,5.9-7.8,7.8-12.8c1.9-5.1,2.8-10.8,2.8-17.3c0-6.4-0.9-12.2-2.8-17.3c-1.9-5.1-4.5-9.3-7.8-12.8
		c-3.3-3.5-7.3-6.1-11.8-7.9c-4.6-1.8-9.5-2.7-14.8-2.7c-5.5,0-10.5,0.9-15.1,2.8c-4.6,1.8-8.6,4.5-11.9,8c-3.4,3.5-6,7.8-7.9,12.8
		c-1.9,5-2.8,10.8-2.8,17.1c0,6.4,0.9,12.2,2.8,17.3c1.9,5.1,4.5,9.3,7.8,12.8c3.3,3.5,7.3,6.2,11.9,8.1
		C1083.1,206.8,1088.1,207.8,1093.5,207.8z"/>
</g>
<g id="Capa_18">
	<path class="st0" d="M1171.3,216h-12.7V114.5h27.1c6.8,0,13.9,0.3,20.5,2.3c14.5,4.2,22.5,14.6,22.5,30.2
		c0,18.2-11.2,28.7-27.9,31.8l26,37l-14.6,0l-34-47.5c5.5,0,10.3,0.1,15.8-0.4c6.6-0.7,13.4-2.9,17.7-8.5c2.4-3.2,3.6-7.4,3.6-12.6
		c-0.1-12.8-8.1-18.2-19.5-19.4c-2.6-0.3-5.9-0.4-9.9-0.4h-14.5V216z"/>
</g>
</svg>
