<svg width="40" height="40" viewBox="0 0 40 40" fill="none" xmlns="http://www.w3.org/2000/svg">
<path d="M28.3332 18.3332H29.9998C30.4419 18.3332 30.8658 18.1576 31.1784 17.845C31.4909 17.5325 31.6665 17.1085 31.6665 16.6665V14.9998C31.6665 14.5578 31.4909 14.1339 31.1784 13.8213C30.8658 13.5088 30.4419 13.3332 29.9998 13.3332H28.3332C27.8911 13.3332 27.4672 13.5088 27.1547 13.8213C26.8421 14.1339 26.6665 14.5578 26.6665 14.9998V16.6665C26.6665 17.1085 26.8421 17.5325 27.1547 17.845C27.4672 18.1576 27.8911 18.3332 28.3332 18.3332ZM9.99984 19.9998H18.3332C18.7752 19.9998 19.1991 19.8242 19.5117 19.5117C19.8242 19.1991 19.9998 18.7752 19.9998 18.3332C19.9998 17.8911 19.8242 17.4672 19.5117 17.1547C19.1991 16.8421 18.7752 16.6665 18.3332 16.6665H9.99984C9.55781 16.6665 9.13389 16.8421 8.82133 17.1547C8.50877 17.4672 8.33317 17.8911 8.33317 18.3332C8.33317 18.7752 8.50877 19.1991 8.82133 19.5117C9.13389 19.8242 9.55781 19.9998 9.99984 19.9998ZM36.6665 6.6665H3.33317C2.89114 6.6665 2.46722 6.8421 2.15466 7.15466C1.8421 7.46722 1.6665 7.89114 1.6665 8.33317V31.6665C1.6665 32.1085 1.8421 32.5325 2.15466 32.845C2.46722 33.1576 2.89114 33.3332 3.33317 33.3332H36.6665C37.1085 33.3332 37.5325 33.1576 37.845 32.845C38.1576 32.5325 38.3332 32.1085 38.3332 31.6665V8.33317C38.3332 7.89114 38.1576 7.46722 37.845 7.15466C37.5325 6.8421 37.1085 6.6665 36.6665 6.6665ZM34.9998 29.9998H4.99984V9.99984H34.9998V29.9998ZM9.99984 26.6665H18.3332C18.7752 26.6665 19.1991 26.4909 19.5117 26.1783C19.8242 25.8658 19.9998 25.4419 19.9998 24.9998C19.9998 24.5578 19.8242 24.1339 19.5117 23.8213C19.1991 23.5088 18.7752 23.3332 18.3332 23.3332H9.99984C9.55781 23.3332 9.13389 23.5088 8.82133 23.8213C8.50877 24.1339 8.33317 24.5578 8.33317 24.9998C8.33317 25.4419 8.50877 25.8658 8.82133 26.1783C9.13389 26.4909 9.55781 26.6665 9.99984 26.6665Z" fill="#010F4D"/>
</svg>
