<svg width="40" height="40" viewBox="0 0 40 40" fill="none" xmlns="http://www.w3.org/2000/svg">
<path d="M22.7335 16.2332L22.2502 19.1166C22.1699 19.6006 22.2292 20.0975 22.4211 20.5491C22.6129 21.0007 22.9294 21.3883 23.3335 21.6666C23.7116 21.942 24.161 22.1027 24.6281 22.1293C25.0951 22.1559 25.5599 22.0473 25.9668 21.8166L28.3335 20.4666L30.7335 21.7832C31.1335 22.0119 31.5901 22.1224 32.0504 22.1017C32.5107 22.0811 32.9556 21.9302 33.3335 21.6666C33.7258 21.3868 34.0321 21.0028 34.2176 20.5581C34.4032 20.1133 34.4606 19.6256 34.3835 19.1499L33.9002 16.2666L35.9002 14.2332C36.2302 13.8978 36.4617 13.478 36.5693 13.0199C36.6768 12.5618 36.6564 12.0829 36.5102 11.6356C36.3639 11.1883 36.0975 10.7898 35.7401 10.4837C35.3827 10.1776 34.948 9.97562 34.4835 9.89991L31.7835 9.4999L30.5668 6.91657C30.3659 6.48477 30.0459 6.11934 29.6443 5.86328C29.2428 5.60722 28.7764 5.47119 28.3002 5.47119C27.8239 5.47119 27.3576 5.60722 26.956 5.86328C26.5545 6.11934 26.2344 6.48477 26.0335 6.91657L24.8168 9.4999L22.1168 9.89991C21.6524 9.97562 21.2176 10.1776 20.8602 10.4837C20.5028 10.7898 20.2364 11.1883 20.0902 11.6356C19.9439 12.0829 19.9235 12.5618 20.0311 13.0199C20.1386 13.478 20.3701 13.8978 20.7002 14.2332L22.7335 16.2332ZM25.7835 12.6832C26.1922 12.6213 26.5793 12.4596 26.9107 12.2126C27.2421 11.9655 27.5075 11.6406 27.6835 11.2666L28.3335 9.88324L28.9835 11.2666C29.1621 11.6403 29.4279 11.9656 29.7586 12.2151C30.0893 12.4645 30.4751 12.6308 30.8835 12.6999L32.5502 12.9332L31.3335 14.1666C31.0515 14.4589 30.8414 14.813 30.7199 15.2006C30.5984 15.5883 30.5688 15.9989 30.6335 16.3999L30.9002 18.0666L29.5835 17.3499C29.2165 17.1456 28.8035 17.0383 28.3835 17.0383C27.9635 17.0383 27.5504 17.1456 27.1835 17.3499L25.8668 18.0666L26.1335 16.3999C26.1995 16.0014 26.1705 15.593 26.0488 15.2078C25.9272 14.8226 25.7164 14.4716 25.4335 14.1832L24.2168 12.9332L25.7835 12.6832ZM35.0002 25.4332C34.5581 25.4332 34.1342 25.6088 33.8216 25.9214C33.5091 26.234 33.3335 26.6579 33.3335 27.0999V32.0999C33.3335 32.5419 33.1579 32.9659 32.8453 33.2784C32.5328 33.591 32.1089 33.7666 31.6668 33.7666H8.3335C7.89147 33.7666 7.46755 33.591 7.15498 33.2784C6.84242 32.9659 6.66683 32.5419 6.66683 32.0999V16.1166L16.4668 25.9166C16.9234 26.3815 17.4681 26.7506 18.0691 27.0025C18.6701 27.2543 19.3152 27.3838 19.9668 27.3832H20.4168C20.8564 27.3451 21.2629 27.1342 21.5472 26.7967C21.8315 26.4593 21.9704 26.0229 21.9335 25.5832C21.9147 25.364 21.8526 25.1507 21.7509 24.9556C21.6493 24.7605 21.51 24.5875 21.3411 24.4465C21.1722 24.3055 20.9771 24.1993 20.7669 24.1341C20.5568 24.0689 20.3359 24.046 20.1168 24.0666C19.8816 24.0907 19.6439 24.0612 19.4216 23.9804C19.1994 23.8996 18.9983 23.7695 18.8335 23.5999L9.01683 13.7666H15.0002C15.4422 13.7666 15.8661 13.591 16.1787 13.2784C16.4912 12.9659 16.6668 12.5419 16.6668 12.0999C16.6668 11.6579 16.4912 11.234 16.1787 10.9214C15.8661 10.6088 15.4422 10.4332 15.0002 10.4332H8.3335C7.00741 10.4332 5.73564 10.96 4.79796 11.8977C3.86028 12.8354 3.3335 14.1072 3.3335 15.4332V32.0999C3.3335 33.426 3.86028 34.6978 4.79796 35.6354C5.73564 36.5731 7.00741 37.0999 8.3335 37.0999H31.6668C32.9929 37.0999 34.2647 36.5731 35.2024 35.6354C36.14 34.6978 36.6668 33.426 36.6668 32.0999V27.0999C36.6668 26.6579 36.4912 26.234 36.1787 25.9214C35.8661 25.6088 35.4422 25.4332 35.0002 25.4332Z" fill="#010F4D"/>
</svg>
