<svg width="40" height="40" viewBox="0 0 40 40" fill="none" xmlns="http://www.w3.org/2000/svg">
<path d="M36.1835 3.81673C36.0285 3.66051 35.8442 3.53652 35.6411 3.45191C35.438 3.36729 35.2202 3.32373 35.0001 3.32373C34.7801 3.32373 34.5623 3.36729 34.3592 3.45191C34.1561 3.53652 33.9718 3.66051 33.8168 3.81673L30.2835 7.35006L29.1001 6.18339C28.7879 5.87298 28.3655 5.69874 27.9251 5.69874C27.4848 5.69874 27.0624 5.87298 26.7501 6.18339L24.4001 8.53339L23.2168 7.35006C23.0619 7.19385 22.8775 7.06986 22.6744 6.98524C22.4713 6.90063 22.2535 6.85706 22.0335 6.85706C21.8135 6.85706 21.5956 6.90063 21.3925 6.98524C21.1894 7.06986 21.0051 7.19385 20.8501 7.35006L7.90015 20.3167L6.66681 19.1501C6.34332 18.924 5.9501 18.82 5.55715 18.8567C5.1642 18.8934 4.79702 19.0683 4.52096 19.3504C4.24491 19.6325 4.07791 20.0033 4.04968 20.397C4.02145 20.7906 4.13383 21.1815 4.36681 21.5001L10.2501 27.4001L7.36681 30.3001L6.18348 29.1001C5.86964 28.7862 5.44398 28.6099 5.00015 28.6099C4.55631 28.6099 4.13065 28.7862 3.81681 29.1001C3.50297 29.4139 3.32666 29.8396 3.32666 30.2834C3.32666 30.7272 3.50297 31.1529 3.81681 31.4667L8.53348 36.1834C8.68921 36.3379 8.87391 36.4601 9.07697 36.543C9.28003 36.626 9.49747 36.668 9.71681 36.6667C9.93616 36.668 10.1536 36.626 10.3567 36.543C10.5597 36.4601 10.7444 36.3379 10.9001 36.1834C11.0564 36.0285 11.1804 35.8441 11.265 35.641C11.3496 35.4379 11.3931 35.2201 11.3931 35.0001C11.3931 34.78 11.3496 34.5622 11.265 34.3591C11.1804 34.156 11.0564 33.9717 10.9001 33.8167L9.71681 32.6501L12.6168 29.7501L18.5001 35.6334C18.6545 35.7909 18.8386 35.9162 19.0417 36.002C19.2448 36.0878 19.463 36.1325 19.6835 36.1334C20.0131 36.132 20.3349 36.0329 20.6082 35.8486C20.8815 35.6644 21.094 35.4032 21.2189 35.0981C21.3438 34.7931 21.3754 34.4579 21.3098 34.1348C21.2441 33.8118 21.0842 33.5155 20.8501 33.2834L19.6835 32.1001L32.6501 19.1501C32.8064 18.9951 32.9303 18.8108 33.015 18.6077C33.0996 18.4046 33.1431 18.1867 33.1431 17.9667C33.1431 17.7467 33.0996 17.5289 33.015 17.3258C32.9303 17.1227 32.8064 16.9383 32.6501 16.7834L31.4668 15.6001L33.8168 13.3334C34.1272 13.0211 34.3015 12.5987 34.3015 12.1584C34.3015 11.7181 34.1272 11.2957 33.8168 10.9834L32.6501 9.80006L36.1835 6.26673C36.3526 6.11066 36.4877 5.92124 36.58 5.7104C36.6724 5.49957 36.72 5.2719 36.72 5.04173C36.72 4.81156 36.6724 4.58388 36.58 4.37305C36.4877 4.16222 36.3526 3.9728 36.1835 3.81673ZM12.6168 25.0001L10.2501 22.6834L12.6001 20.3167L15.0001 22.6834L12.6168 25.0001ZM17.3168 29.7167L15.0001 27.4001L17.3168 25.0001L19.6835 27.3667L17.3168 29.7167ZM22.0335 25.0001L15.0001 17.9667L22.0668 10.9001L23.2501 12.0667L29.1335 17.9667L22.0335 25.0001ZM29.1001 13.3334L26.7501 10.9001L27.9335 9.71673L29.1001 10.8834L30.2668 12.0501L29.1001 13.3334Z" fill="#010F4D"/>
</svg>
