<svg width="40" height="40" viewBox="0 0 40 40" fill="none" xmlns="http://www.w3.org/2000/svg">
<path d="M23.3333 18.3335H21.6667V11.6668H25C25.442 11.6668 25.8659 11.8424 26.1785 12.155C26.4911 12.4675 26.6667 12.8915 26.6667 13.3335C26.6667 13.7755 26.8423 14.1994 27.1548 14.512C27.4674 14.8246 27.8913 15.0002 28.3333 15.0002C28.7754 15.0002 29.1993 14.8246 29.5118 14.512C29.8244 14.1994 30 13.7755 30 13.3335C30 12.0074 29.4732 10.7356 28.5355 9.79796C27.5979 8.86028 26.3261 8.3335 25 8.3335H21.6667V5.00016C21.6667 4.55814 21.4911 4.13421 21.1785 3.82165C20.8659 3.50909 20.442 3.3335 20 3.3335C19.558 3.3335 19.134 3.50909 18.8215 3.82165C18.5089 4.13421 18.3333 4.55814 18.3333 5.00016V8.3335H16.6667C14.8986 8.3335 13.2029 9.03587 11.9526 10.2861C10.7024 11.5364 10 13.2321 10 15.0002C10 16.7683 10.7024 18.464 11.9526 19.7142C13.2029 20.9645 14.8986 21.6668 16.6667 21.6668H18.3333V28.3335H15C14.558 28.3335 14.134 28.1579 13.8215 27.8453C13.5089 27.5328 13.3333 27.1089 13.3333 26.6668C13.3333 26.2248 13.1577 25.8009 12.8452 25.4883C12.5326 25.1758 12.1087 25.0002 11.6667 25.0002C11.2246 25.0002 10.8007 25.1758 10.4882 25.4883C10.1756 25.8009 10 26.2248 10 26.6668C10 27.9929 10.5268 29.2647 11.4645 30.2024C12.4021 31.14 13.6739 31.6668 15 31.6668H18.3333V35.0002C18.3333 35.4422 18.5089 35.8661 18.8215 36.1787C19.134 36.4912 19.558 36.6668 20 36.6668C20.442 36.6668 20.8659 36.4912 21.1785 36.1787C21.4911 35.8661 21.6667 35.4422 21.6667 35.0002V31.6668H23.3333C25.1014 31.6668 26.7971 30.9644 28.0474 29.7142C29.2976 28.464 30 26.7683 30 25.0002C30 23.2321 29.2976 21.5364 28.0474 20.2861C26.7971 19.0359 25.1014 18.3335 23.3333 18.3335ZM18.3333 18.3335H16.6667C15.7826 18.3335 14.9348 17.9823 14.3096 17.3572C13.6845 16.7321 13.3333 15.8842 13.3333 15.0002C13.3333 14.1161 13.6845 13.2683 14.3096 12.6431C14.9348 12.018 15.7826 11.6668 16.6667 11.6668H18.3333V18.3335ZM23.3333 28.3335H21.6667V21.6668H23.3333C24.2174 21.6668 25.0652 22.018 25.6904 22.6431C26.3155 23.2683 26.6667 24.1161 26.6667 25.0002C26.6667 25.8842 26.3155 26.7321 25.6904 27.3572C25.0652 27.9823 24.2174 28.3335 23.3333 28.3335Z" fill="#010F4D"/>
</svg>
