<svg width="40" height="40" viewBox="0 0 40 40" fill="none" xmlns="http://www.w3.org/2000/svg">
<path d="M11.6668 23.3335H15.0002C15.4422 23.3335 15.8661 23.1579 16.1787 22.8453C16.4912 22.5328 16.6668 22.1089 16.6668 21.6668C16.6668 21.2248 16.4912 20.8009 16.1787 20.4883C15.8661 20.1758 15.4422 20.0002 15.0002 20.0002H11.6668C11.2248 20.0002 10.8009 20.1758 10.4883 20.4883C10.1758 20.8009 10.0002 21.2248 10.0002 21.6668C10.0002 22.1089 10.1758 22.5328 10.4883 22.8453C10.8009 23.1579 11.2248 23.3335 11.6668 23.3335ZM21.6668 26.6668H11.6668C11.2248 26.6668 10.8009 26.8424 10.4883 27.155C10.1758 27.4675 10.0002 27.8915 10.0002 28.3335C10.0002 28.7755 10.1758 29.1994 10.4883 29.512C10.8009 29.8246 11.2248 30.0002 11.6668 30.0002H21.6668C22.1089 30.0002 22.5328 29.8246 22.8453 29.512C23.1579 29.1994 23.3335 28.7755 23.3335 28.3335C23.3335 27.8915 23.1579 27.4675 22.8453 27.155C22.5328 26.8424 22.1089 26.6668 21.6668 26.6668ZM31.6668 3.3335H8.3335C7.00741 3.3335 5.73564 3.86028 4.79796 4.79796C3.86028 5.73564 3.3335 7.00741 3.3335 8.3335V31.6668C3.3335 32.9929 3.86028 34.2647 4.79796 35.2024C5.73564 36.14 7.00741 36.6668 8.3335 36.6668H31.6668C32.9929 36.6668 34.2647 36.14 35.2024 35.2024C36.14 34.2647 36.6668 32.9929 36.6668 31.6668V8.3335C36.6668 7.00741 36.14 5.73564 35.2024 4.79796C34.2647 3.86028 32.9929 3.3335 31.6668 3.3335ZM23.3335 6.66683V12.1502L20.8168 10.7502C20.5635 10.6039 20.2761 10.5269 19.9835 10.5269C19.6909 10.5269 19.4035 10.6039 19.1502 10.7502L16.6668 12.1502V6.66683H23.3335ZM33.3335 31.6668C33.3335 32.1089 33.1579 32.5328 32.8453 32.8453C32.5328 33.1579 32.1089 33.3335 31.6668 33.3335H8.3335C7.89147 33.3335 7.46755 33.1579 7.15498 32.8453C6.84242 32.5328 6.66683 32.1089 6.66683 31.6668V8.3335C6.66683 7.89147 6.84242 7.46755 7.15498 7.15498C7.46755 6.84242 7.89147 6.66683 8.3335 6.66683H13.3335V15.0002C13.3353 15.291 13.4131 15.5764 13.5593 15.8278C13.7055 16.0793 13.9149 16.2881 14.1668 16.4335C14.4202 16.5798 14.7076 16.6568 15.0002 16.6568C15.2927 16.6568 15.5801 16.5798 15.8335 16.4335L20.0002 14.1168L24.1835 16.4502C24.4326 16.5913 24.7138 16.666 25.0002 16.6668C25.4422 16.6668 25.8661 16.4912 26.1787 16.1787C26.4912 15.8661 26.6668 15.4422 26.6668 15.0002V6.66683H31.6668C32.1089 6.66683 32.5328 6.84242 32.8453 7.15498C33.1579 7.46755 33.3335 7.89147 33.3335 8.3335V31.6668Z" fill="#010F4D"/>
</svg>
