<svg width="35" height="35" viewBox="0 0 35 35" fill="none" xmlns="http://www.w3.org/2000/svg">
<path d="M34.9117 16.2402C34.8051 16.8825 34.7168 17.529 34.5894 18.1679C34.367 19.2809 33.9714 20.3372 33.4717 21.3536C33.1194 22.07 32.3732 22.3466 31.6894 22.03C31.0289 21.7243 30.7383 20.9687 31.0597 20.2598C31.5045 19.2776 31.8893 18.2796 32.0775 17.2149C32.5048 14.7957 32.15 12.4873 31.0098 10.3205C29.1741 6.82995 26.2308 4.69397 22.5196 3.55351C20.2967 2.8704 18.0205 2.72045 15.716 3.02535C13.2482 3.35191 10.9645 4.18247 8.92817 5.61951C6.16725 7.56887 4.27666 10.1314 3.68533 13.5136C3.18728 16.3652 3.78943 19.0168 5.3677 21.441C5.6692 21.9042 6.0065 22.3482 6.3663 22.7664C6.84686 23.3246 6.93181 23.9002 6.63615 24.5775C6.02066 25.9871 5.43433 27.4091 4.83634 28.8261C4.79886 28.9161 4.76305 29.0069 4.70641 29.1469C4.84716 29.0944 4.94544 29.0619 5.04122 29.0219C6.85602 28.258 8.67582 27.5024 10.4831 26.721C10.9953 26.4994 11.4717 26.4844 11.9881 26.6893C14.0652 27.5157 16.229 27.8515 18.4594 27.7815C19.543 27.7473 20.2459 28.5746 19.9427 29.5201C19.767 30.0674 19.3048 30.4023 18.651 30.4331C17.0602 30.5073 15.4819 30.3881 13.9295 30.0349C13.1225 29.8516 12.3346 29.5826 11.5334 29.371C11.3784 29.3301 11.1819 29.331 11.037 29.391C8.36183 30.5089 5.68918 31.6302 3.0232 32.7707C2.39356 33.0398 1.7989 33.1414 1.27087 32.6191C0.734505 32.0901 0.811961 31.4836 1.08847 30.8405C1.99296 28.7362 2.86746 26.6194 3.77611 24.5159C3.92186 24.1785 3.90187 23.9511 3.677 23.657C2.39523 21.9759 1.53322 20.0981 1.12678 18.0196C0.535452 14.9931 0.900244 12.0774 2.28029 9.3233C4.30247 5.28961 7.5906 2.70545 11.7924 1.21843C13.324 0.67611 14.9073 0.365378 16.5305 0.26541C16.628 0.259579 16.7237 0.228755 16.8195 0.209595C17.5291 0.209595 18.2387 0.209595 18.9483 0.209595C19.2864 0.250415 19.6254 0.293734 19.9636 0.331222C23.6848 0.745254 27.0004 2.11398 29.8271 4.58484C32.2807 6.72998 33.9306 9.37495 34.6152 12.5839C34.746 13.197 34.8143 13.8235 34.9109 14.4441C34.9117 15.0431 34.9117 15.6413 34.9117 16.2402Z" fill="#94D827"/>
<path d="M34.9116 30.7405C34.7551 31.4336 34.5427 32.0976 34.1054 32.6791C32.7162 34.5243 29.9811 34.8225 28.2863 33.2505C27.0844 32.1359 25.9501 30.9488 24.7874 29.7925C23.5306 28.5421 22.2805 27.285 21.0187 26.0387C20.7106 25.7346 20.4982 25.3931 20.3741 24.9766C19.8952 23.3646 19.3955 21.7593 18.9141 20.149C18.6392 19.2293 19.1181 18.4204 19.9985 18.3245C20.2217 18.3004 20.4632 18.3454 20.6839 18.4054C22.3488 18.8577 24.0162 19.3051 25.6702 19.7941C26.0142 19.8957 26.3615 20.1098 26.618 20.3622C28.9459 22.6573 31.2496 24.9766 33.5699 27.2791C34.2604 27.9639 34.7359 28.7478 34.865 29.7242C34.8692 29.7542 34.895 29.7817 34.9108 29.81C34.9116 30.1199 34.9116 30.4306 34.9116 30.7405ZM27.7774 29.0652C28.4353 28.4071 29.0525 27.7898 29.7188 27.1234C29.6496 27.0742 29.5489 27.0209 29.4714 26.9443C28.2071 25.6872 26.9195 24.4509 25.6944 23.1563C25.1156 22.5448 24.4826 22.1316 23.6564 21.9767C23.1542 21.8826 22.6661 21.7151 22.1264 21.5685C22.3896 22.4407 22.6336 23.2546 22.8843 24.066C22.9093 24.146 22.9718 24.2201 23.0317 24.281C24.6142 25.8788 26.1983 27.4741 27.7774 29.0652ZM29.7646 30.9904C30.1385 31.4261 30.5949 31.7135 31.2221 31.5611C31.7818 31.4245 32.1232 31.0546 32.2265 30.4956C32.3364 29.9016 32.0516 29.4643 31.6368 29.121C31.003 29.7533 30.3884 30.3681 29.7646 30.9904Z" fill="#94D827"/>
<path d="M11.8215 13.6486C12.5527 13.6427 13.1582 14.2434 13.159 14.9748C13.1599 15.7062 12.556 16.3085 11.8248 16.3044C11.106 16.301 10.513 15.7129 10.5039 14.9948C10.4939 14.2634 11.0902 13.6536 11.8215 13.6486Z" fill="#94D827"/>
<path d="M19.1456 14.9648C19.1523 15.6962 18.5526 16.3027 17.8214 16.3044C17.0901 16.306 16.4871 15.7029 16.4905 14.9715C16.493 14.2534 17.0801 13.6594 17.7981 13.6486C18.5285 13.6377 19.139 14.2334 19.1456 14.9648Z" fill="#94D827"/>
<path d="M23.8105 16.3044C23.0792 16.3077 22.4754 15.7062 22.4762 14.9748C22.4771 14.2434 23.0825 13.6427 23.8138 13.6486C24.5317 13.6544 25.1239 14.2434 25.1314 14.9615C25.1397 15.6929 24.5417 16.3002 23.8105 16.3044Z" fill="#94D827"/>
</svg>
