<svg width="29" height="40" viewBox="0 0 29 40" fill="none" xmlns="http://www.w3.org/2000/svg">
<path d="M23.773 14.6417C23.773 17.1751 23.7751 19.7086 23.773 22.241C23.7698 26.0515 20.9894 28.8999 17.2685 28.9064C15.6509 28.9097 14.0333 28.9107 12.4157 28.9064C8.74789 28.8966 5.95692 26.0352 5.95373 22.2801C5.95054 17.1599 5.95054 12.0387 5.95373 6.91854C5.95692 3.16232 8.74895 0.304155 12.4178 0.295467C14.0482 0.29221 15.6796 0.291124 17.31 0.295467C20.9788 0.304155 23.7666 3.16123 23.773 6.92071C23.7762 9.49436 23.773 12.068 23.773 14.6417ZM12.3136 15.9111H8.53001V18.5162H12.2956C12.996 18.5162 13.5635 19.0961 13.5635 19.8118V19.8259C13.5635 20.5415 12.996 21.1214 12.2956 21.1214H8.50131C8.50131 21.6122 8.49281 22.0585 8.50238 22.5038C8.55126 24.5714 10.1923 26.2643 12.2212 26.2958C13.9918 26.323 15.7646 26.323 17.5353 26.2947C19.5695 26.2622 21.2084 24.5768 21.218 22.4983C21.2403 17.2305 21.2403 11.9627 21.218 6.69484C21.2095 4.62072 19.5759 2.93319 17.5459 2.90169C15.7699 2.87455 13.994 2.88866 12.218 2.89844C11.5569 2.90169 10.933 3.0863 10.3719 3.44574C8.66286 4.54362 8.33445 6.12147 8.54914 8.1098H12.2903C12.9907 8.1098 13.5582 8.68969 13.5582 9.40531V9.41943C13.5582 10.1351 12.9907 10.7149 12.2903 10.7149H8.52576V13.3201H12.3136C13.014 13.3201 13.5816 13.9 13.5816 14.6156C13.5816 15.3312 13.014 15.9111 12.3136 15.9111Z" fill="#94D827"/>
<path d="M21.1988 39.2922H8.51832V36.7251H13.5657V34.0385C12.7483 34.0385 11.9395 34.0971 11.1414 34.0287C6.11741 33.5987 1.76941 29.4114 1.02012 24.3075C0.949974 23.8264 0.880891 23.3399 0.874514 22.8545C0.860697 21.8468 0.862823 20.838 0.866011 19.8215C0.868137 19.107 1.43462 18.5282 2.13502 18.5282C2.83754 18.5282 3.40615 19.1113 3.40403 19.8291C3.40084 20.5882 3.39977 21.344 3.41465 22.0998C3.42847 22.76 3.46567 23.4279 3.57195 24.0784C4.19795 27.9063 7.47675 31.1293 11.2636 31.4019C13.7006 31.5767 16.1717 31.5745 18.6077 31.3888C22.2776 31.1076 25.5394 27.8454 26.1537 24.0925C26.2579 23.455 26.2993 22.8013 26.3131 22.1541C26.3291 21.3722 26.3269 20.5904 26.3237 19.8031C26.3206 19.0983 26.8785 18.5238 27.5683 18.5206H27.6013C28.291 18.5173 28.8533 19.0842 28.8575 19.789C28.866 21.0389 28.883 22.317 28.7842 23.5278C28.3824 28.4731 24.8209 32.6203 20.0861 33.7833C18.9031 34.0732 17.7032 34.1341 16.4937 34.1091C16.3896 34.1069 16.2865 34.1091 16.16 34.1091V36.7012H21.1988V39.2922Z" fill="#94D827"/>
</svg>
