<svg width="39" height="28" viewBox="0 0 39 28" fill="none" xmlns="http://www.w3.org/2000/svg">
<path d="M0.569824 9.7429C0.776103 9.13226 1.23031 8.88641 1.83428 8.74549C9.93173 6.85461 18.0252 4.94574 26.1197 3.04187C29.7276 2.19337 33.3365 1.34588 36.9444 0.49438C37.4492 0.37545 37.9103 0.416426 38.2703 0.828182C38.6392 1.24893 38.6343 1.71666 38.4349 2.22336C35.2515 10.3226 32.074 18.4238 28.8935 26.524C28.5335 27.4414 27.7907 27.6863 26.9567 27.1666C25.4741 26.2431 23.9914 25.3207 22.5177 24.3832C22.2936 24.2403 22.1141 24.2313 21.8691 24.3203C19.3353 25.2357 16.7965 26.1382 14.2596 27.0456C13.257 27.4044 12.6927 27.1136 12.3793 26.0772C11.3668 22.7322 10.3512 19.3882 9.3476 16.0412C9.27322 15.7923 9.14727 15.6414 8.92909 15.5165C6.43886 14.0853 3.95558 12.6412 1.46436 11.213C1.0637 10.9832 0.731476 10.7143 0.569824 10.2666C0.569824 10.0917 0.569824 9.9168 0.569824 9.7429ZM19.1677 19.4761C21.8493 21.1531 24.4804 22.7992 27.1461 24.4672C29.5659 18.3008 31.9699 12.1755 34.3738 6.05009C34.35 6.0351 34.3252 6.01911 34.3014 6.00411C29.2714 10.4825 24.2414 14.9598 19.1677 19.4761ZM29.4687 7.11146C29.4539 7.09347 29.439 7.07548 29.4251 7.05649C23.4837 9.77388 17.5422 12.4913 11.579 15.2187C12.3615 17.8021 13.134 20.3536 13.9274 22.9761C14.0325 22.8022 14.098 22.7012 14.1565 22.5973C14.7842 21.4819 15.4051 20.3636 16.0418 19.2533C16.1697 19.0304 16.3303 18.8135 16.5198 18.6436C19.3224 16.1391 22.1329 13.6426 24.9405 11.1441C26.4509 9.80086 27.9593 8.45566 29.4687 7.11146ZM4.98896 10.4675C5.15458 10.5724 5.23491 10.6274 5.3192 10.6753C6.76613 11.5119 8.21604 12.3434 9.65702 13.1899C9.86528 13.3128 10.02 13.3058 10.2332 13.2078C15.9317 10.5954 21.6341 7.99094 27.3365 5.38448C27.4407 5.33651 27.5408 5.28054 27.643 5.22757C27.6331 5.20159 27.6241 5.17661 27.6142 5.15062C20.1029 6.91557 12.5925 8.68053 4.98896 10.4675ZM17.6067 21.318C17.1465 22.1406 16.7112 22.9171 16.2768 23.6936C16.3006 23.7156 16.3244 23.7376 16.3482 23.7606C17.4203 23.3768 18.4933 22.992 19.6288 22.5853C18.9277 22.1455 18.2831 21.7418 17.6067 21.318Z" fill="#94D827"/>
</svg>
