<svg width="15" height="15" viewBox="0 0 15 15" fill="none" xmlns="http://www.w3.org/2000/svg">
<path fill-rule="evenodd" clip-rule="evenodd" d="M7.17888 1.03496C7.5694 0.644434 8.20257 0.644434 8.59309 1.03496L14.4013 6.8432C14.5889 7.03074 14.6942 7.28509 14.6942 7.55031C14.6942 7.81552 14.5889 8.06988 14.4013 8.25741L8.59309 14.0657C8.20257 14.4562 7.5694 14.4562 7.17888 14.0657C6.78836 13.6751 6.78835 13.042 7.17888 12.6514L12.28 7.55031L7.17888 2.44917C6.78836 2.05865 6.78835 1.42548 7.17888 1.03496Z" fill="#010F4D"/>
<path fill-rule="evenodd" clip-rule="evenodd" d="M0.337646 7.54968C0.337647 6.9974 0.785362 6.54968 1.33765 6.54968L13.6943 6.54968C14.2466 6.54968 14.6942 6.99802 14.6942 7.55031C14.6942 8.10259 14.2466 8.54968 13.6943 8.54968L1.33765 8.54968C0.785362 8.54968 0.337646 8.10197 0.337646 7.54968Z" fill="#010F4D"/>
</svg>
