<svg width="33" height="33" viewBox="0 0 33 33" fill="none" xmlns="http://www.w3.org/2000/svg">
<path d="M32.3367 15.5786C32.2122 15.7919 32.1222 16.0388 31.9555 16.2106C31.5993 16.5771 31.1445 16.6763 30.6616 16.4981C30.1677 16.3153 29.8969 15.9403 29.8444 15.4153C29.8288 15.2606 29.8374 15.1028 29.8374 14.9466C29.8374 12.7692 29.8381 10.5927 29.8366 8.41533C29.8358 6.75283 28.7877 5.70596 27.1252 5.70361C26.668 5.70283 26.2109 5.70361 25.7092 5.70361C25.7092 6.14346 25.7248 6.56689 25.7061 6.98877C25.663 7.96611 24.6165 8.52236 23.7985 8.00674C23.4181 7.76689 23.2263 7.4083 23.2154 6.96221C23.2052 6.55752 23.213 6.15205 23.213 5.72549C21.3165 5.72549 19.4387 5.72549 17.5241 5.72549C17.5241 6.04736 17.5241 6.36689 17.5241 6.68643C17.5241 7.62393 17.0544 8.19658 16.2826 8.20127C15.4991 8.20674 15.0248 7.62939 15.0248 6.67158C15.0248 6.36143 15.0248 6.05049 15.0248 5.72236C13.1509 5.72236 11.3013 5.72236 9.39922 5.72236C9.39922 6.12314 9.40705 6.53486 9.39766 6.9458C9.38513 7.51143 9.05247 7.96846 8.5476 8.13486C7.74295 8.40049 6.93672 7.83721 6.90463 6.97471C6.88898 6.56143 6.90228 6.14736 6.90228 5.67158C6.16494 5.70752 5.44717 5.66455 4.76227 5.79424C3.64452 6.0044 2.90483 6.97783 2.84142 8.14893C2.83673 8.23174 2.83751 8.31533 2.83751 8.39893C2.83751 14.7739 2.83829 21.1481 2.83673 27.5231C2.83673 28.606 3.25784 29.4599 4.25349 29.9278C4.6339 30.1067 5.09337 30.1888 5.5184 30.1919C8.59065 30.2138 11.6637 30.206 14.7367 30.2013C15.1398 30.2005 15.5023 30.288 15.7911 30.5817C16.3914 31.1927 16.2075 32.2091 15.4318 32.5794C15.3394 32.6239 15.2439 32.6622 15.15 32.7036C11.6919 32.7036 8.23372 32.7036 4.77558 32.7036C4.42569 32.6138 4.0672 32.5489 3.72749 32.4302C1.6587 31.7083 0.342133 29.8528 0.340568 27.6356C0.335088 21.1778 0.338219 14.72 0.339002 8.26221C0.339002 8.14736 0.340568 8.03252 0.348395 7.91846C0.400839 7.13799 0.598089 6.39814 1.00433 5.72705C2.00076 4.08174 3.46762 3.24033 5.39159 3.20518C5.88707 3.1958 6.38332 3.20361 6.89993 3.20361C6.89993 2.86377 6.91637 2.56299 6.8968 2.26377C6.84514 1.48955 7.15276 0.958301 7.90028 0.703613C8.067 0.703613 8.23372 0.703613 8.40045 0.703613C9.14562 0.958301 9.45558 1.48721 9.40392 2.26064C9.38357 2.56689 9.40079 2.87627 9.40079 3.18252C11.2966 3.18252 13.1517 3.18252 15.0256 3.18252C15.0256 2.86143 15.042 2.55986 15.0224 2.26064C14.9708 1.48721 15.2807 0.958301 16.0259 0.703613C16.1926 0.703613 16.3594 0.703613 16.5261 0.703613C17.2712 0.958301 17.5812 1.48721 17.5295 2.26064C17.5092 2.56689 17.5264 2.87627 17.5264 3.18252C19.4433 3.18252 21.3196 3.18252 23.2138 3.18252C23.2138 2.86143 23.2303 2.55986 23.2107 2.26064C23.159 1.48721 23.469 0.958301 24.2142 0.703613C24.3809 0.703613 24.5476 0.703613 24.7143 0.703613C25.4595 0.958301 25.7695 1.48799 25.7178 2.26143C25.6974 2.56768 25.7147 2.87705 25.7147 3.2083C26.3369 3.2083 26.9193 3.18096 27.4985 3.21299C29.471 3.32314 30.9301 4.26455 31.8193 6.02393C32.0713 6.52314 32.1707 7.09971 32.3398 7.64033C32.3367 10.2872 32.3367 12.9325 32.3367 15.5786Z" fill="#94D827"/>
<path d="M24.1494 32.7036C23.4269 32.5224 22.6802 32.4052 21.9851 32.1489C18.7602 30.9606 16.7126 27.3669 17.316 23.9833C17.8507 20.9864 19.5617 18.9138 22.4422 17.9755C25.3916 17.0146 28.0333 17.7325 30.2289 19.9294C31.421 21.1224 32.0785 22.5997 32.2813 24.2771C32.2907 24.3583 32.3181 24.4364 32.3368 24.5169C32.3368 24.9333 32.3368 25.3505 32.3368 25.7669C32.3157 25.8677 32.2907 25.9669 32.275 26.0685C31.8085 29.0567 30.1773 31.1294 27.3594 32.2263C26.7379 32.4677 26.0546 32.5497 25.3994 32.7044C24.983 32.7036 24.5658 32.7036 24.1494 32.7036ZM24.7795 30.2028C27.566 30.1997 29.8438 27.913 29.8352 25.1286C29.8266 22.3536 27.559 20.0872 24.7842 20.0802C21.9992 20.0731 19.7144 22.3528 19.7128 25.1388C19.7112 27.9239 21.9945 30.206 24.7795 30.2028Z" fill="#94D827"/>
<path d="M9.39785 13.82C9.40254 14.5075 8.83819 15.0755 8.15094 15.0763C7.46369 15.0763 6.89855 14.5083 6.90247 13.8216C6.90638 13.1466 7.459 12.5896 8.13372 12.581C8.82097 12.5724 9.39315 13.1333 9.39785 13.82Z" fill="#94D827"/>
<path d="M14.8348 13.8435C14.8262 14.5302 14.2508 15.0888 13.5644 15.0763C12.8779 15.0638 12.3229 14.4849 12.3394 13.7981C12.3558 13.1239 12.9194 12.5771 13.5941 12.581C14.2814 12.5849 14.8434 13.1567 14.8348 13.8435Z" fill="#94D827"/>
<path d="M20.2725 13.8341C20.2693 14.5216 19.6987 15.0841 19.0115 15.077C18.3242 15.07 17.7653 14.495 17.7771 13.8083C17.788 13.1333 18.3469 12.5825 19.0224 12.581C19.7089 12.5794 20.2748 13.1466 20.2725 13.8341Z" fill="#94D827"/>
<path d="M24.4546 12.581C25.1419 12.5771 25.7094 13.1427 25.7094 13.8294C25.7086 14.5169 25.1403 15.081 24.4531 15.0763C23.7784 15.0716 23.2218 14.5177 23.214 13.8435C23.2062 13.1567 23.7682 12.5849 24.4546 12.581Z" fill="#94D827"/>
<path d="M9.39785 19.2724C9.39393 19.9599 8.82253 20.5216 8.13607 20.5138C7.44882 20.506 6.89073 19.931 6.90247 19.2442C6.91421 18.5692 7.47387 18.0192 8.14859 18.0185C8.83584 18.0177 9.40176 18.5856 9.39785 19.2724Z" fill="#94D827"/>
<path d="M13.5706 20.5138C12.8834 20.5044 12.3261 19.9278 12.3402 19.2411C12.3535 18.5544 12.9335 18.0005 13.6207 18.0185C14.2955 18.0364 14.841 18.6005 14.8355 19.2747C14.8301 19.9622 14.2571 20.5231 13.5706 20.5138Z" fill="#94D827"/>
<path d="M8.14468 25.9513C7.45743 25.9481 6.89464 25.3778 6.90247 24.6903C6.90951 24.0036 7.48405 23.4442 8.17129 23.4552C8.84601 23.4661 9.39706 24.0255 9.39785 24.7005C9.39941 25.388 8.83192 25.9544 8.14468 25.9513Z" fill="#94D827"/>
<path d="M13.5792 23.456C14.2665 23.4513 14.8348 24.0161 14.8355 24.7028C14.8355 25.3903 14.2673 25.9552 13.5808 25.9513C12.9061 25.9474 12.3488 25.3942 12.3402 24.72C12.3308 24.0325 12.892 23.4606 13.5792 23.456Z" fill="#94D827"/>
<path d="M26.0209 23.8958C26.2675 23.8958 26.4655 23.8849 26.6612 23.8981C27.3351 23.9442 27.8439 24.4958 27.8345 25.1599C27.8251 25.8114 27.3187 26.3575 26.6557 26.3817C26.0013 26.406 25.3446 26.4067 24.691 26.3802C24.0531 26.3544 23.5506 25.8474 23.5341 25.2075C23.5114 24.3138 23.5114 23.4185 23.5334 22.5247C23.5498 21.8466 24.1079 21.3325 24.7724 21.331C25.4362 21.3302 25.9865 21.8435 26.017 22.5208C26.0366 22.9646 26.0209 23.4106 26.0209 23.8958Z" fill="#94D827"/>
</svg>
