<svg width="44" height="25" viewBox="0 0 44 25" fill="none" xmlns="http://www.w3.org/2000/svg">
<path d="M43.5627 19.9396C43.2865 20.535 42.8307 20.7416 42.193 20.7369C38.9318 20.7159 35.6707 20.7276 32.4095 20.7276C32.2561 20.7276 32.1026 20.7276 31.9025 20.7276C31.9025 21.4874 31.9048 22.2123 31.9025 22.936C31.8991 23.8126 31.5024 24.227 30.6579 24.2282C27.9776 24.2305 25.2984 24.2317 22.6181 24.227C21.9963 24.2259 21.5848 23.8885 21.4791 23.3282C21.3927 22.8707 21.6382 22.3547 22.0736 22.1866C22.3043 22.0979 22.5715 22.0746 22.8215 22.0734C24.9631 22.0652 27.1034 22.0687 29.245 22.0687C29.4121 22.0687 29.5791 22.0687 29.736 22.0687C30.4635 18.5389 28.9142 14.8679 26.027 13.1823C25.7053 12.9944 25.47 12.9734 25.1154 13.1753C22.85 14.464 20.572 14.4348 18.3237 13.1065C18.0997 12.9746 17.9395 12.9536 17.7121 13.0866C15.2944 14.4967 13.9588 16.6153 13.7815 19.4727C13.7292 20.3132 13.7735 21.1594 13.7735 22.0676C14.3987 22.0676 15.0023 22.0652 15.6058 22.0687C15.8184 22.0699 16.0332 22.0629 16.2424 22.0933C16.7925 22.1738 17.1756 22.6349 17.1586 23.1741C17.1415 23.7204 16.7414 24.1978 16.1935 24.2107C15.0034 24.2387 13.811 24.241 12.6209 24.2095C12.0457 24.1943 11.6706 23.7158 11.6627 23.0796C11.6524 22.3104 11.6604 21.54 11.6604 20.7252C11.4706 20.7252 11.3183 20.7252 11.1671 20.7252C7.89227 20.7252 4.61634 20.7252 1.34154 20.7252C0.370805 20.7252 -0.0133959 20.3482 0.00365442 19.3607C0.0241148 18.2389 -0.0293096 17.102 0.136647 16.0013C0.437869 13.9983 1.4643 12.4014 3.06476 11.2062C3.13296 11.156 3.20002 11.1034 3.29664 11.0299C2.52142 9.5965 2.31 8.09539 2.80332 6.52425C3.16819 5.36166 3.85248 4.43368 4.82435 3.73449C6.69307 2.38863 9.18696 2.46917 11.0113 3.92592C13.0676 5.56826 13.4916 7.86778 12.3174 11.0252C12.6686 11.3334 13.0403 11.6252 13.3722 11.959C13.6951 12.2835 13.9781 12.6501 14.2793 13.0002C14.9659 12.4493 15.6627 11.8913 16.3856 11.3124C15.2114 9.593 14.7806 7.67284 15.2512 5.58344C15.6138 3.97845 16.4515 2.67111 17.7212 1.66259C20.2378 -0.334603 23.7673 -0.208538 26.1884 1.95207C28.4527 3.97144 29.5189 7.87011 27.1887 11.3217C27.8787 11.8762 28.5675 12.4295 29.1324 12.8835C29.7576 12.2112 30.3976 11.5225 31.1205 10.7439C30.501 9.59417 30.2941 8.09189 30.7863 6.51959C31.1512 5.35465 31.8377 4.42901 32.8085 3.73215C34.692 2.38046 37.2029 2.47384 39.0296 3.95627C41.0529 5.59861 41.4666 7.90396 40.2856 11.0497C41.1666 11.6684 41.9111 12.4365 42.4726 13.3843C43.0034 14.2796 43.3456 15.2437 43.4854 16.2838C43.4968 16.3666 43.5354 16.4449 43.5616 16.5254C43.5627 17.6635 43.5627 18.8016 43.5627 19.9396ZM21.8213 2.40614C19.2728 2.37812 17.1972 4.48271 17.1699 7.12656C17.1426 9.76108 19.175 11.9229 21.7178 11.9637C24.2674 12.0046 26.3737 9.86264 26.3919 7.21061C26.4101 4.56792 24.3799 2.43532 21.8213 2.40614ZM2.14972 18.5389C5.34041 18.5389 8.53223 18.5389 11.74 18.5389C11.9218 17.3098 12.2799 16.167 12.8425 15.0908C12.8971 14.9869 12.8516 14.7838 12.7869 14.6648C12.3879 13.9259 11.8275 13.3388 11.1568 12.852C10.9159 12.6769 10.7419 12.6851 10.4805 12.8403C8.68454 13.9049 6.87153 13.8979 5.0801 12.8287C4.82776 12.6781 4.66635 12.6816 4.44015 12.8403C2.57825 14.1465 1.85759 16.1519 2.14972 18.5389ZM41.453 18.5459C41.453 18.0102 41.4791 17.5152 41.4484 17.0238C41.3371 15.2332 40.5368 13.8442 39.1023 12.8287C38.8841 12.6746 38.7306 12.6804 38.4987 12.8193C36.6766 13.9072 34.8431 13.9084 33.0256 12.8076C32.8028 12.6734 32.6402 12.6559 32.4618 12.8252C32.0162 13.2465 31.5615 13.6609 31.1353 14.1033C30.7011 14.5539 30.5078 15.0523 30.9659 15.6266C31.0523 15.7352 31.0989 15.8846 31.141 16.0223C31.3967 16.8511 31.6445 17.681 31.9071 18.5471C35.0364 18.5459 38.218 18.5459 41.453 18.5459ZM7.8002 11.4618C9.54274 11.4583 10.9625 9.98753 10.9545 8.19228C10.9454 6.38885 9.53024 4.93677 7.78429 4.93911C6.03833 4.94261 4.62998 6.40519 4.63566 8.20862C4.64021 10.0155 6.05197 11.4653 7.8002 11.4618ZM35.7866 11.4618C37.5303 11.4548 38.942 9.98053 38.9261 8.18294C38.9102 6.37018 37.4996 4.92977 35.7525 4.94027C34.0088 4.95078 32.5948 6.42504 32.6073 8.21913C32.6209 10.0202 34.0406 11.47 35.7866 11.4618Z" fill="#94D827"/>
<path d="M19.183 24.2189C18.2259 24.227 17.6689 23.5886 17.9372 22.8042C18.1043 22.3186 18.4635 22.0886 19.067 22.0676C19.6422 22.0478 20.189 22.0968 20.4595 22.7306C20.7414 23.3913 20.3151 24.1255 19.6058 24.2154C19.4672 24.2341 19.3239 24.2189 19.183 24.2189Z" fill="#94D827"/>
</svg>
