<svg width="39" height="39" viewBox="0 0 39 39" fill="none" xmlns="http://www.w3.org/2000/svg">
<path d="M23.1192 0.935303C23.5147 1.01843 23.9181 1.07582 24.3057 1.18864C27.1525 2.01593 29.0062 3.85655 29.8537 6.69567C29.932 6.95692 30.043 7.0628 30.2938 7.0816C30.5029 7.09744 30.7269 7.09348 30.9143 7.17067C31.2117 7.29338 31.5655 7.41114 31.7529 7.64567C33.8642 10.278 35.9537 12.9281 38.0294 15.5891C38.2048 15.8137 38.3119 16.1501 38.3178 16.4381C38.3466 17.8849 38.3386 19.3317 38.3228 20.7784C38.3198 21.0169 38.2524 21.2703 38.1533 21.4889C37.2404 23.5018 36.3244 25.5126 35.3798 27.5116C35.246 27.7946 34.9962 28.0637 34.7325 28.2349C33.8721 28.7921 32.9741 29.2898 32.1058 29.8341C31.7271 30.0716 31.3435 30.1498 30.9073 30.0944C29.142 29.8727 27.3736 29.6748 25.6112 29.4313C25.3168 29.3908 24.9986 29.2225 24.7775 29.0197C24.1501 28.4428 23.5772 27.8064 22.9596 27.2196C22.805 27.0722 22.5651 27.0069 22.354 26.9307C22.242 26.8901 22.1091 26.9 21.9862 26.901C21.0584 26.9089 20.2823 26.5734 19.5498 25.9955C18.4931 25.1613 17.3681 24.4151 16.2797 23.6215C16.1023 23.4919 15.9516 23.4642 15.7385 23.5314C12.0184 24.7031 8.2933 25.856 4.57617 27.0375C3.86942 27.2622 3.32622 27.1533 2.88116 26.5467C2.67696 26.2686 2.4351 26.0173 2.20216 25.761C1.85424 25.377 1.73331 24.9416 1.94741 24.4626C2.14863 24.0134 2.10006 23.6067 1.92461 23.1534C1.42206 21.8521 0.96609 20.534 0.489306 19.2228C0.448665 19.111 0.388199 19.0061 0.337646 18.8972C0.337646 17.4376 0.337646 15.978 0.337646 14.5183C0.530937 14.2521 0.695482 13.9562 0.924458 13.7247C1.655 12.9864 2.39644 12.2571 3.16069 11.5555C3.39561 11.3398 3.70289 11.1626 4.00819 11.0706C4.95383 10.7876 5.90938 10.5343 6.87088 10.3106C7.22277 10.2285 7.41011 10.0494 7.57069 9.74556C7.88095 9.15775 8.15354 8.52244 8.58373 8.03259C9.71672 6.74119 10.925 5.51608 12.1056 4.26723C12.6627 3.67843 13.082 3.61707 13.7847 4.00994C14.3537 4.32759 14.9217 4.64723 15.4798 4.96093C15.5234 4.92035 15.5452 4.9065 15.5591 4.88671C15.5938 4.83624 15.6265 4.7828 15.6582 4.73035C16.8278 2.83728 18.4931 1.63296 20.658 1.12134C20.9801 1.04515 21.3092 0.996657 21.6353 0.935303C22.13 0.935303 22.6246 0.935303 23.1192 0.935303ZM4.25005 24.7813C4.42352 24.7328 4.5613 24.6992 4.6971 24.6576C8.34881 23.5146 12.0015 22.3766 15.6493 21.2227C16.1786 21.0555 16.6217 21.1129 17.0737 21.4454C18.3672 22.3984 19.6876 23.3147 20.9791 24.2697C21.3132 24.5171 21.6561 24.6477 22.0596 24.6724C22.4174 24.6942 22.7733 24.7407 23.1311 24.7645C23.5316 24.7912 23.8636 24.9357 24.1461 25.2306C24.7458 25.855 25.3574 26.4675 25.975 27.0742C26.08 27.1771 26.2357 27.2681 26.3784 27.2859C27.8732 27.4789 29.3699 27.661 30.8677 27.8312C30.9995 27.846 31.1571 27.7896 31.2761 27.7213C31.9174 27.3493 32.5558 26.9722 33.1812 26.5754C33.3369 26.4764 33.4855 26.3191 33.5629 26.1538C34.3816 24.3963 35.1865 22.6329 35.9894 20.8685C36.0538 20.727 36.0994 20.5637 36.1004 20.4103C36.1094 19.2604 36.1103 18.1095 36.0994 16.9596C36.0984 16.8241 36.0529 16.6628 35.9706 16.5579C34.117 14.1947 32.2544 11.8366 30.3919 9.48036C30.3314 9.40416 30.2383 9.35369 30.1233 9.26067C30.0727 9.56051 30.041 9.79207 29.9934 10.0207C29.9439 10.2621 29.8894 10.5036 29.819 10.7401C29.0299 13.3892 27.6383 15.7048 25.8848 17.8156C25.2186 18.6172 24.4841 19.3485 23.5653 19.87C22.7554 20.3311 21.9357 20.3757 21.1447 19.869C20.6381 19.5444 20.1316 19.1941 19.7054 18.7745C17.8211 16.92 16.4462 14.7172 15.4054 12.3007C14.7145 10.6956 14.3398 9.03801 14.6759 7.27853C14.6917 7.19343 14.6164 7.044 14.5391 6.99749C14.1297 6.74812 13.7064 6.5215 13.2733 6.27806C12.7618 6.81937 12.282 7.37056 11.7567 7.87327C10.6742 8.90937 9.77916 10.0751 9.17748 11.4526C8.97131 11.9246 8.60851 12.1661 8.11884 12.2868C7.05228 12.55 5.99066 12.8341 4.93103 13.123C4.77243 13.1666 4.60888 13.2536 4.48993 13.3664C3.90411 13.9167 3.32523 14.4748 2.76122 15.0468C2.65515 15.1546 2.57784 15.3387 2.57486 15.4901C2.55702 16.355 2.56 17.2219 2.5709 18.0868C2.57387 18.2916 2.60857 18.5054 2.67795 18.6983C3.1706 20.0818 3.66423 21.4662 4.18265 22.8407C4.39874 23.4137 4.54643 23.9679 4.26492 24.5567C4.24014 24.6022 4.25501 24.6685 4.25005 24.7813ZM27.9911 8.63921C27.9604 8.63228 27.9297 8.62535 27.8999 8.61744C27.8117 5.04108 24.4921 2.48598 21.0138 3.31921C18.1194 4.01192 16.1895 7.01431 16.9349 9.83463C17.7239 12.8182 19.3396 15.3476 21.5729 17.4623C22.347 18.1956 22.2707 18.1481 23.1252 17.4673C23.2025 17.4059 23.2748 17.3376 23.3442 17.2674C25.2167 15.3783 26.6133 13.1834 27.5015 10.6778C27.7334 10.0236 27.8315 9.32004 27.9911 8.63921Z" fill="#94D827"/>
<path d="M30.7626 38.9353C30.491 38.7295 30.1956 38.5474 29.9518 38.3129C29.2827 37.6706 28.6424 36.9987 27.9773 36.3535C27.6829 36.0685 27.5312 35.7419 27.5342 35.3342C27.5381 34.6296 27.5253 33.9241 27.5381 33.2195C27.553 32.4209 28.0694 31.9696 28.8674 32.0448C29.6178 32.1161 30.3661 32.2061 31.1175 32.2685C31.3058 32.2843 31.51 32.2566 31.6894 32.1962C32.2971 31.9914 32.8968 31.7598 33.5014 31.5461C34.0932 31.3363 34.4817 31.4343 34.8971 31.9013C35.1677 32.2061 35.4264 32.5218 35.694 32.8296C35.927 33.0977 36.031 33.4065 35.9736 33.7558C35.8021 34.7919 35.6286 35.827 35.4442 36.8601C35.362 37.3203 35.0438 37.5786 34.6205 37.728C33.5619 38.1021 32.5032 38.4781 31.4456 38.8551C31.3891 38.8749 31.3375 38.9076 31.284 38.9343C31.1086 38.9353 30.9351 38.9353 30.7626 38.9353ZM29.817 34.3466C29.704 34.7721 29.7704 35.0413 30.0479 35.2867C30.4266 35.6212 30.7606 36.0081 31.1353 36.3475C31.2295 36.4326 31.4268 36.4841 31.5447 36.4475C32.0859 36.2802 32.6182 36.0804 33.1485 35.8805C33.2407 35.8458 33.3656 35.7637 33.3815 35.6845C33.4974 35.0967 33.5896 34.5039 33.7116 33.7835C32.412 34.4782 31.1462 34.7345 29.817 34.3466Z" fill="#94D827"/>
<path d="M25.6726 8.77973C25.632 10.658 24.1095 12.1117 22.233 12.0651C20.432 12.0196 18.9669 10.4818 19.0066 8.67681C19.0472 6.80056 20.5717 5.34588 22.4472 5.3914C24.2492 5.43593 25.7123 6.97275 25.6726 8.77973ZM23.4463 8.73124C23.4483 8.12166 22.9487 7.61796 22.3421 7.61598C21.7354 7.614 21.2339 8.11572 21.2319 8.7253C21.2299 9.3339 21.7305 9.83957 22.3361 9.84155C22.9428 9.84254 23.4453 9.33983 23.4463 8.73124Z" fill="#94D827"/>
</svg>
