<svg width="39" height="31" viewBox="0 0 39 31" fill="none" xmlns="http://www.w3.org/2000/svg">
<path d="M38.3098 5.21767C38.3098 13.3448 38.3098 21.4719 38.3098 29.599C37.8278 30.4694 37.3725 30.7072 36.5566 30.4599C33.9984 29.6846 31.393 29.1868 28.7215 29.0615C25.8121 28.9252 22.9704 29.2232 20.2673 30.3981C19.8389 30.5852 19.4293 30.5883 19.0009 30.3997C16.7263 29.3929 14.3225 29.033 11.8604 29.0251C8.76359 29.014 5.74391 29.5435 2.78094 30.4282C2.52103 30.5059 2.2249 30.5582 1.96341 30.5154C1.31127 30.4076 0.955277 29.8828 0.955277 29.1091C0.953702 21.3007 0.953702 13.4922 0.953702 5.6838C0.953702 5.62197 0.952127 5.56172 0.955277 5.49989C0.989932 4.79752 1.49557 4.28383 2.19497 4.26481C2.68171 4.25212 3.16687 4.26164 3.65361 4.26005C4.03796 4.26005 4.42074 4.26005 4.82241 4.26005C4.82241 3.33731 4.81611 2.47006 4.82399 1.60122C4.83029 0.860807 5.24299 0.370897 5.97547 0.280526C7.96968 0.034778 9.95602 0.121979 11.925 0.521517C14.5147 1.04789 16.846 2.10064 18.7504 3.99369C19.0513 4.29176 19.3269 4.61519 19.631 4.94497C19.727 4.8435 19.8137 4.76106 19.8909 4.67069C21.4172 2.86801 23.3532 1.69793 25.5726 0.982888C27.9922 0.202838 30.4747 0.010996 32.995 0.234547C34.0551 0.32809 34.4411 0.770435 34.4411 1.85331C34.4411 2.64446 34.4411 3.43561 34.4411 4.25846C35.2208 4.25846 35.9611 4.28859 36.6983 4.25054C37.4702 4.2109 38.0136 4.48836 38.3098 5.21767ZM7.3522 2.73007C7.3522 9.20988 7.3522 15.6881 7.3522 22.2028C11.3895 22.1473 15.1684 22.8972 18.3613 25.6512C18.3739 25.5386 18.3834 25.4926 18.3834 25.4467C18.3834 19.5614 18.385 13.6761 18.3787 7.79089C18.3787 7.65612 18.322 7.5055 18.2495 7.38659C17.2288 5.73295 15.7874 4.5819 14.0279 3.80344C12.6213 3.18035 11.1374 2.87594 9.6205 2.74276C8.877 2.67775 8.12248 2.73007 7.3522 2.73007ZM31.9113 22.1964C31.9113 15.6881 31.9113 9.21147 31.9113 2.72215C31.8073 2.71105 31.7238 2.69361 31.6419 2.69202C29.9312 2.65397 28.2442 2.82203 26.6012 3.31353C24.5866 3.91759 22.8365 4.94656 21.5322 6.64459C21.2581 7.00132 20.8832 7.32952 20.8832 7.83687C20.8801 13.6714 20.8817 19.5075 20.8817 25.342C20.8817 25.4292 20.9006 25.5164 20.9147 25.6433C24.1108 22.8893 27.885 22.1552 31.9113 22.1964ZM35.78 27.595C35.78 20.6284 35.78 13.7205 35.78 6.80156C35.3232 6.80156 34.8931 6.80156 34.4395 6.80156C34.4395 6.97279 34.4395 7.11865 34.4395 7.26451C34.4395 12.5885 34.4395 17.9109 34.4395 23.2349C34.4395 23.3824 34.4442 23.5298 34.43 23.6757C34.3623 24.3622 33.8393 24.8363 33.1557 24.8315C32.9856 24.8299 32.8154 24.8204 32.6453 24.8061C30.3786 24.6159 28.1544 24.8172 25.9964 25.5656C25.1599 25.8557 24.3582 26.2267 23.569 26.8006C25.6672 26.4851 27.6897 26.4344 29.7202 26.5834C31.7601 26.7325 33.7637 27.094 35.78 27.595ZM3.48349 6.7968C3.48349 13.7491 3.48349 20.6538 3.48349 27.5981C7.49712 26.5834 11.5186 26.1807 15.6835 26.7991C15.5228 26.6865 15.4283 26.6136 15.3275 26.5517C13.6357 25.5053 11.7707 24.9805 9.81268 24.841C8.62969 24.757 7.43568 24.8188 6.2464 24.8347C5.86363 24.8394 5.52338 24.7744 5.23669 24.5096C4.89645 24.1941 4.81926 23.7883 4.81926 23.3412C4.82399 17.9696 4.82241 12.598 4.82241 7.22646C4.82241 7.08535 4.82241 6.94425 4.82241 6.79521C4.34828 6.7968 3.9277 6.7968 3.48349 6.7968Z" fill="#94D827"/>
</svg>
