<svg width="29" height="33" viewBox="0 0 29 33" fill="none" xmlns="http://www.w3.org/2000/svg">
<path d="M2.76463 0.703613C10.4799 0.703613 18.1951 0.703613 25.9104 0.703613C25.9378 0.717808 25.9636 0.738682 25.9927 0.745361C27.5055 1.09521 28.3358 2.13307 28.3358 3.68193C28.3367 12.3664 28.3367 21.0517 28.3358 29.7361C28.3358 31.4996 27.1431 32.7028 25.3934 32.7028C18.0231 32.7044 10.6519 32.7036 3.28164 32.7019C3.10626 32.7019 2.92755 32.7003 2.75549 32.671C1.2801 32.4264 0.339174 31.2975 0.339174 29.767C0.33668 23.2493 0.337511 16.7299 0.337511 10.2113C0.337511 7.99368 0.334187 5.77519 0.339174 3.55752C0.341667 2.56057 0.74314 1.74732 1.57351 1.20376C1.92761 0.971637 2.36482 0.866431 2.76463 0.703613ZM26.4698 16.7299C26.4698 12.3981 26.4698 8.06549 26.4698 3.7337C26.4698 2.91877 26.1307 2.57894 25.3186 2.57894C17.9998 2.57894 10.6802 2.57894 3.36144 2.57894C2.54436 2.57894 2.2044 2.91543 2.2044 3.72785C2.2044 12.3714 2.2044 21.0149 2.2044 29.6577C2.2044 30.4943 2.53771 30.8283 3.37141 30.8283C10.6802 30.8283 17.989 30.8283 25.297 30.8283C26.134 30.8283 26.4698 30.4951 26.4698 29.6627C26.4698 25.3518 26.4698 21.0408 26.4698 16.7299Z" fill="#94D827"/>
<path d="M14.3294 4.45344C17.3865 4.45344 20.4445 4.45344 23.5017 4.45344C24.249 4.45344 24.6031 4.80997 24.6039 5.5631C24.6047 6.7187 24.6056 7.87429 24.6031 9.02988C24.6014 9.69785 24.2274 10.0778 23.5641 10.0778C17.4181 10.0786 11.2722 10.0786 5.12624 10.0778C4.44299 10.0778 4.07227 9.70369 4.07144 9.01485C4.06978 7.84924 4.06978 6.68279 4.07144 5.51635C4.07227 4.82667 4.44133 4.45344 5.12541 4.45344C8.19339 4.45344 11.2614 4.45344 14.3294 4.45344ZM5.9641 6.33461C5.9641 6.95248 5.9641 7.56702 5.9641 8.18322C11.5573 8.18322 17.138 8.18322 22.7121 8.18322C22.7121 7.55449 22.7121 6.94748 22.7121 6.33461C17.1214 6.33461 11.5556 6.33461 5.9641 6.33461Z" fill="#94D827"/>
<path d="M19.0041 22.305C19.0041 20.4731 19.0032 18.6411 19.0041 16.8092C19.0041 16.0594 19.3598 15.7046 20.1096 15.7037C21.2599 15.7029 22.4095 15.7021 23.5599 15.7037C24.2249 15.7046 24.6022 16.0803 24.6022 16.7466C24.6039 20.4413 24.6039 24.1369 24.6022 27.8316C24.6022 28.5179 24.229 28.8895 23.5433 28.8903C22.3829 28.892 21.2225 28.892 20.0613 28.8903C19.3756 28.8895 19.0041 28.5171 19.0032 27.8316C19.0024 25.9897 19.0041 24.1469 19.0041 22.305ZM22.7154 27.0016C22.7154 23.8505 22.7154 20.7235 22.7154 17.6041C22.0895 17.6041 21.4844 17.6041 20.8859 17.6041C20.8859 20.7486 20.8859 23.868 20.8859 27.0016C21.4985 27.0016 22.0961 27.0016 22.7154 27.0016Z" fill="#94D827"/>
<path d="M9.67045 18.571C9.67045 19.1747 9.67377 19.7775 9.66961 20.3812C9.66546 21.0049 9.28144 21.3882 8.65637 21.3907C7.46526 21.394 6.27414 21.394 5.08385 21.3907C4.45962 21.389 4.07394 21.0041 4.07227 20.3812C4.06895 19.1538 4.06812 17.9264 4.07227 16.699C4.07477 16.0953 4.46377 15.7079 5.06889 15.7062C6.26998 15.7021 7.47107 15.7021 8.673 15.7062C9.27729 15.7079 9.66463 16.0953 9.66961 16.6999C9.6746 17.3227 9.67045 17.9465 9.67045 18.571ZM5.95163 19.4936C6.58085 19.4936 7.18431 19.4936 7.77945 19.4936C7.77945 18.844 7.77945 18.2161 7.77945 17.5949C7.15771 17.5949 6.56174 17.5949 5.95163 17.5949C5.95163 18.232 5.95163 18.8516 5.95163 19.4936Z" fill="#94D827"/>
<path d="M17.1372 18.546C17.1372 19.1597 17.1413 19.7734 17.1363 20.3871C17.1314 20.9949 16.7482 21.3865 16.148 21.389C14.9361 21.394 13.7251 21.3949 12.5132 21.389C11.9313 21.3865 11.5415 20.9916 11.539 20.4046C11.534 19.1663 11.534 17.9289 11.539 16.6907C11.5415 16.1029 11.9297 15.7079 12.5107 15.7046C13.7325 15.6987 14.9544 15.6979 16.1763 15.7046C16.7399 15.7079 17.128 16.1037 17.1347 16.6723C17.1422 17.2977 17.1372 17.9222 17.1372 18.546ZM15.2562 17.6008C14.6278 17.6008 14.0235 17.6008 13.4283 17.6008C13.4283 18.2504 13.4283 18.8783 13.4283 19.4995C14.0492 19.4995 14.646 19.4995 15.2562 19.4995C15.2562 18.8632 15.2562 18.2437 15.2562 17.6008Z" fill="#94D827"/>
<path d="M6.86845 23.266C7.46941 23.266 8.06954 23.2627 8.67051 23.2669C9.27645 23.271 9.66712 23.6543 9.66961 24.2571C9.6746 25.4745 9.67543 26.691 9.66961 27.9084C9.66712 28.4937 9.27479 28.8862 8.69212 28.8887C7.48022 28.8945 6.26915 28.8937 5.05725 28.8887C4.47208 28.8862 4.07726 28.4954 4.07394 27.9134C4.06812 26.686 4.06812 25.4586 4.07394 24.2312C4.07726 23.6651 4.47125 23.2735 5.03564 23.2669C5.64575 23.261 6.25668 23.266 6.86845 23.266ZM7.78776 27.0025C7.78776 26.3671 7.78776 25.7684 7.78776 25.1605C7.16768 25.1605 6.5634 25.1605 5.95911 25.1605C5.95911 25.7868 5.95911 26.393 5.95911 27.0025C6.57836 27.0025 7.17433 27.0025 7.78776 27.0025Z" fill="#94D827"/>
<path d="M17.1372 26.1049C17.1372 26.6877 17.1397 27.2697 17.1363 27.8525C17.133 28.5012 16.7573 28.8887 16.1206 28.8903C14.9295 28.8937 13.7384 28.8937 12.5481 28.8903C11.9255 28.8887 11.5407 28.5021 11.539 27.8784C11.5357 26.6819 11.5357 25.4853 11.539 24.2897C11.5407 23.6476 11.9238 23.2685 12.5697 23.2677C13.75 23.2652 14.9311 23.2652 16.1115 23.2677C16.7548 23.2694 17.1338 23.6493 17.1372 24.2955C17.1397 24.8975 17.1372 25.5012 17.1372 26.1049ZM15.2487 27.0025C15.2487 26.3704 15.2487 25.7642 15.2487 25.1664C14.6228 25.1664 14.0185 25.1664 13.4208 25.1664C13.4208 25.7909 13.4208 26.3896 13.4208 27.0025C14.0334 27.0025 14.6294 27.0025 15.2487 27.0025Z" fill="#94D827"/>
<path d="M17.1181 13.8284C16.818 13.8284 16.5179 13.8343 16.2187 13.8276C15.6734 13.8142 15.2653 13.4026 15.2711 12.8807C15.2769 12.3722 15.6801 11.9656 16.2087 11.9573C16.8288 11.9472 17.4497 11.9472 18.0698 11.9573C18.5984 11.9664 18.9991 12.3764 19.0016 12.8874C19.0041 13.3976 18.6059 13.81 18.0789 13.8276C17.7597 13.8368 17.4389 13.8276 17.1181 13.8284Z" fill="#94D827"/>
<path d="M22.7395 13.8284C22.4295 13.8284 22.1186 13.8351 21.8094 13.8267C21.2799 13.8125 20.8776 13.4109 20.8718 12.9016C20.866 12.3806 21.2749 11.9639 21.8194 11.9564C22.4295 11.9481 23.0396 11.9481 23.6497 11.9564C24.1983 11.9639 24.6056 12.3739 24.6031 12.8966C24.5997 13.4193 24.1924 13.8176 23.6397 13.8284C23.3396 13.8334 23.0396 13.8284 22.7395 13.8284Z" fill="#94D827"/>
</svg>
