<svg width="40" height="38" viewBox="0 0 40 38" fill="none" xmlns="http://www.w3.org/2000/svg">
<path d="M0.382965 16.4629C0.429655 16.3108 0.476345 16.1587 0.523035 16.0066C0.884375 14.8333 1.64664 14.018 2.82404 13.6124C3.12854 13.508 3.24932 13.3538 3.32748 13.0615C4.81851 7.49164 8.2553 3.54539 13.719 1.4445C23.0794 -2.15574 33.5176 3.04726 36.1475 12.5634C36.3089 13.148 36.517 13.494 37.1422 13.7516C38.5206 14.3183 39.2331 15.4458 39.2737 16.9173C39.3113 18.2834 39.3133 19.6525 39.2727 21.0177C39.229 22.4902 38.4861 23.563 37.1341 24.1914C36.8296 24.3326 36.7646 24.4857 36.7748 24.773C36.8326 26.4364 36.7068 28.0819 36.0957 29.6509C34.3408 34.1549 31.0471 36.8862 26.1721 37.5394C24.1938 37.8039 22.1517 37.7214 20.145 37.6468C18.2074 37.5752 16.7945 36.0063 16.7701 34.1321C16.7458 32.2708 18.1363 30.7008 20.0709 30.5437C21.1752 30.4533 22.3029 30.4612 23.4062 30.5656C25.4524 30.7595 26.9019 32.8067 26.4766 34.7783C26.4451 34.9235 26.4096 35.0677 26.3609 35.2765C26.6674 35.2108 26.9475 35.1641 27.2196 35.0905C31.4267 33.962 34.42 30.1729 34.488 25.8916C34.4951 25.4571 34.5052 25.0206 34.4809 24.5871C34.4748 24.4757 34.3672 24.3186 34.2637 24.2709C32.7442 23.5699 31.9819 22.4067 31.986 20.7572C31.989 19.5273 31.985 18.2964 31.987 17.0664C31.989 15.6715 32.6001 14.6017 33.815 13.8858C34.0576 13.7426 34.081 13.6114 34.016 13.3847C32.3615 7.68453 28.6111 4.07335 22.7048 2.85736C15.1806 1.30829 7.76709 5.84414 5.67517 13.1033C5.64066 13.2226 5.57469 13.3449 5.58484 13.4612C5.59499 13.5815 5.64777 13.7506 5.73912 13.8033C7.06166 14.5649 7.69604 15.6914 7.68081 17.1917C7.66863 18.4097 7.68284 19.6277 7.67675 20.8457C7.66863 22.7815 6.27301 24.3335 4.3912 24.5085C2.49924 24.6845 0.86915 23.4765 0.44691 21.5864C0.43676 21.5416 0.40428 21.5009 0.382965 21.4591C0.382965 19.7937 0.382965 18.1283 0.382965 16.4629ZM5.39097 18.9993C5.39097 18.354 5.39605 17.7087 5.38996 17.0645C5.38184 16.2313 4.80024 15.6367 4.01463 15.6456C3.24526 15.6536 2.67686 16.2442 2.6728 17.0595C2.66671 18.3242 2.66671 19.5899 2.6728 20.8556C2.67686 21.6878 3.26455 22.2863 4.04813 22.2764C4.8175 22.2665 5.38184 21.6759 5.39097 20.8606C5.39605 20.2391 5.39097 19.6197 5.39097 18.9993ZM36.996 18.9595C36.996 18.3391 36.996 17.7187 36.996 17.0993C36.996 17.0873 36.996 17.0744 36.996 17.0625C36.9818 16.2293 36.4033 15.6357 35.6167 15.6456C34.8473 15.6556 34.2809 16.2452 34.2769 17.0615C34.2708 18.3272 34.2708 19.5919 34.2769 20.8576C34.2809 21.6739 34.8463 22.2655 35.6156 22.2764C36.3992 22.2883 36.9859 21.6898 36.995 20.8586C37.0011 20.2252 36.996 19.5929 36.996 18.9595ZM21.6472 35.4336C22.0644 35.4336 22.4836 35.4475 22.8997 35.4306C23.6894 35.3978 24.2456 34.841 24.2487 34.1032C24.2517 33.3625 23.7056 32.7878 22.9149 32.762C22.0806 32.7341 21.2443 32.7351 20.4099 32.761C19.5989 32.7858 19.0508 33.3645 19.063 34.1261C19.0752 34.8619 19.6365 35.4047 20.4333 35.4326C20.8372 35.4465 21.2422 35.4345 21.6472 35.4336Z" fill="#94D827"/>
</svg>
