<svg width="30" height="35" viewBox="0 0 30 35" fill="none" xmlns="http://www.w3.org/2000/svg">
<path d="M27.286 34.2985C19.3407 34.2985 11.3954 34.2985 3.45007 34.2985C3.43236 34.2868 3.41465 34.2677 3.39533 34.2652C1.90528 34.0581 0.857176 32.741 0.863616 31.0587C0.887766 25.237 0.874886 19.416 0.868446 13.5943C0.867641 13.166 0.99644 12.8309 1.29187 12.5307C2.36976 11.4347 3.43155 10.3229 4.50864 9.22609C4.67366 9.05729 4.74531 8.89264 4.7437 8.64982C4.73484 6.27073 4.73806 3.8908 4.73806 1.51088C4.73887 0.66518 5.09387 0.298462 5.91416 0.298462C12.2165 0.298462 18.5196 0.298462 24.8219 0.298462C25.6414 0.298462 25.9964 0.66518 25.9972 1.51171C25.998 3.89163 26.0012 6.27073 25.9916 8.65065C25.9908 8.8943 26.0624 9.05895 26.2274 9.22692C27.3118 10.3321 28.384 11.4489 29.4651 12.5573C29.7034 12.8018 29.8628 13.0704 29.8628 13.4296C29.8612 19.3844 29.866 25.3384 29.8564 31.2932C29.8548 32.2919 29.4708 33.1443 28.6577 33.7022C28.252 33.9791 27.7465 34.1039 27.286 34.2985ZM6.68052 2.30585C6.67569 2.389 6.67086 2.43308 6.67086 2.47715C6.67006 7.22536 6.66845 11.9727 6.67811 16.7209C6.67811 16.8623 6.76505 17.0369 6.86486 17.1409C8.47486 18.8148 10.0913 20.4821 11.7174 22.1402C11.8301 22.255 12.0281 22.3365 12.1867 22.3373C14.3014 22.3498 16.417 22.3431 18.5317 22.3498C18.7394 22.3506 18.8891 22.2932 19.038 22.1377C20.6424 20.4729 22.2516 18.814 23.8664 17.1608C24.0185 17.0053 24.0676 16.849 24.0668 16.637C24.062 11.9777 24.0636 7.31849 24.0636 2.65926C24.0636 2.54284 24.0636 2.42559 24.0636 2.30668C18.2475 2.30585 12.4757 2.30585 6.68052 2.30585ZM26.5229 32.2894C26.4569 32.2112 26.4198 32.1622 26.378 32.1181C23.9115 29.5744 21.4458 27.0298 18.972 24.4935C18.881 24.4004 18.712 24.3447 18.5784 24.3439C16.4419 24.3347 14.3054 24.3339 12.169 24.3455C12.0201 24.3463 11.8333 24.4245 11.7278 24.5326C9.28388 27.0373 6.84796 29.5503 4.41204 32.0624C4.35086 32.1256 4.29854 32.1996 4.22528 32.2894C11.6715 32.2894 19.0734 32.2894 26.5229 32.2894ZM2.81895 30.7452C5.22187 28.268 7.63927 25.7766 9.99067 23.3526C7.61029 20.8987 5.19772 18.4107 2.81895 15.9584C2.81895 20.858 2.81895 25.8307 2.81895 30.7452ZM20.7092 23.2969C23.1226 25.785 25.536 28.2721 27.9018 30.7111C27.9018 25.8207 27.9018 20.8422 27.9018 15.8836C25.486 18.3741 23.0735 20.8605 20.7092 23.2969ZM4.71311 14.8449C4.71311 13.8695 4.71311 12.8758 4.71311 11.9187C4.23575 12.4093 3.75355 12.9057 3.29149 13.3814C3.75355 13.8571 4.23494 14.3527 4.71311 14.8449ZM26.0133 14.8383C26.4979 14.3377 26.9785 13.8413 27.3931 13.413C26.9334 12.9398 26.4496 12.4426 26.0133 11.9935C26.0133 12.8916 26.0133 13.8803 26.0133 14.8383Z" fill="#94D827"/>
<path d="M15.2804 4.28413C19.0276 4.29328 22.0214 7.29604 22.1229 11.068C22.1567 12.3261 21.6519 13.3107 20.5531 13.8936C19.497 14.4541 18.4593 14.3493 17.4957 13.625C17.3492 13.5144 17.255 13.5136 17.1061 13.6234C15.3802 14.8982 13.148 14.0915 12.5676 11.991C12.2464 10.8277 12.7608 9.44729 13.7694 8.7679C14.7861 8.08353 16.1731 8.1301 17.0908 8.86436C17.8443 9.46724 18.2098 10.2614 18.2677 11.2318C18.3128 11.9819 18.9222 12.4234 19.5557 12.1881C19.9518 12.0409 20.1925 11.675 20.1973 11.2127C20.2198 8.876 18.4167 6.69233 16.1804 6.34889C12.6947 5.81254 9.91026 8.89264 10.6742 12.4384C11.0896 14.366 12.834 15.9576 14.7362 16.1846C15.6571 16.2944 16.5297 16.1546 17.3822 15.8079C17.5022 15.7588 17.6205 15.7056 17.7429 15.6665C18.2444 15.5094 18.7507 15.7489 18.9407 16.2287C19.1379 16.7276 18.9463 17.3122 18.4392 17.4968C17.7155 17.7596 16.9773 18.0556 16.2238 18.1412C13.2751 18.4764 10.9777 17.2897 9.49086 14.6653C7.81083 11.6992 8.53854 7.93717 11.2007 5.77595C12.4235 4.78307 13.8242 4.30242 15.2804 4.28413ZM16.3293 11.2285C16.3229 10.7196 15.8696 10.2622 15.3722 10.2622C14.8336 10.2622 14.3901 10.7296 14.4046 11.2825C14.419 11.8231 14.8666 12.2621 15.3907 12.2505C15.8994 12.238 16.3357 11.7632 16.3293 11.2285Z" fill="#94D827"/>
</svg>
