<svg width="39" height="35" viewBox="0 0 39 35" fill="none" xmlns="http://www.w3.org/2000/svg">
<path d="M33.6639 10.6354C33.5382 10.6786 33.429 10.711 33.3237 10.7533C31.9761 11.2944 30.6315 11.8454 29.2781 12.3737C29.0149 12.4768 28.9369 12.6153 28.9398 12.8923C28.9525 14.4774 28.9047 16.0634 28.9573 17.6456C29.0158 19.4055 28.2231 20.6763 26.8795 21.6712C25.4052 22.7642 23.7135 23.3339 21.9389 23.6589C18.9835 24.2001 16.0495 24.096 13.1672 23.2013C11.5886 22.7102 10.128 21.9933 9.0125 20.7048C8.32801 19.9142 7.97504 18.9989 7.97894 17.9432C7.98479 16.254 7.97406 14.5638 7.98674 12.8746C7.98869 12.5967 7.90776 12.467 7.64644 12.3619C5.91669 11.6696 3.03832 10.5058 0.989717 9.67591C0.118989 9.32334 0.119964 8.081 0.990692 7.72843C5.31605 5.98129 14.3139 2.37898 17.4048 1.14154C18.0923 0.866556 18.8577 0.866556 19.5451 1.14154C22.7355 2.41728 32.215 6.20815 36.3766 7.88753C37.1127 8.1851 37.103 9.24183 36.36 9.52074C36.3532 9.52369 36.3463 9.52565 36.3395 9.5286C36.0957 9.61994 36.007 9.73484 36.008 10.0069C36.0177 13.8311 36.0177 17.6554 36.009 21.4797C36.008 21.7389 36.0831 21.8588 36.322 21.9756C37.5544 22.5806 38.2545 23.5882 38.3306 24.97C38.4057 26.3371 37.8265 27.4095 36.6837 28.1422C36.4175 28.3131 36.3805 28.4456 36.476 28.7285C37.0854 30.5336 37.6783 32.3445 38.2877 34.1899C37.5496 34.4393 36.8319 34.6819 36.0821 34.9353C35.6794 33.7214 35.2874 32.538 34.8564 31.2397C34.4274 32.5272 34.0345 33.7097 33.6269 34.9333C32.8907 34.6859 32.1721 34.4443 31.4223 34.1928C32.0668 32.2355 32.7035 30.3057 33.3158 28.4486C32.8683 28.0233 32.3964 27.6806 32.057 27.2337C30.7329 25.4915 31.3872 22.9066 33.3588 21.9815C33.5586 21.8872 33.6922 21.8126 33.6912 21.5415C33.6805 17.9923 33.6844 14.443 33.6834 10.8937C33.6834 10.8181 33.6717 10.7415 33.6639 10.6354ZM4.85193 8.68499C4.94846 8.73605 4.96991 8.7498 4.99428 8.75962C9.40545 10.5441 13.8156 12.3315 18.2307 14.1032C18.3965 14.17 18.6393 14.1376 18.8128 14.0678C23.1089 12.3452 27.4002 10.6109 31.6924 8.87846C31.8152 8.82935 31.9342 8.77043 32.098 8.69677C31.9693 8.63588 31.8903 8.59267 31.8084 8.56026C27.444 6.79839 23.0807 5.03455 18.7124 3.28348C18.5574 3.22161 18.3311 3.24125 18.1703 3.30509C14.2846 4.86563 10.4029 6.43796 6.52025 8.00832C5.98299 8.22438 5.44476 8.44437 4.85193 8.68499ZM10.3123 13.456C10.3123 13.6298 10.3123 13.7575 10.3123 13.8852C10.3123 15.1815 10.3337 16.4779 10.3035 17.7733C10.2869 18.4755 10.5541 19.0107 11.0484 19.4654C11.7124 20.0753 12.4964 20.4789 13.334 20.7716C16.3732 21.8322 19.4554 21.8971 22.56 21.0996C23.7749 20.7873 24.9264 20.3218 25.882 19.4654C26.2252 19.157 26.4592 18.8054 26.5626 18.3841C26.6435 18.0561 26.6074 13.7565 26.5928 13.4815C26.4056 13.5512 26.2593 13.6013 26.117 13.6593C24.6066 14.2682 22.0344 15.2719 20.2939 15.9485C19.1151 16.4062 17.8114 16.4072 16.6326 15.9505C15.1222 15.3652 13.0336 14.551 11.7904 14.0482C11.3136 13.8537 10.8339 13.6642 10.3123 13.456ZM34.8369 23.9909C34.1973 23.9987 33.6776 24.535 33.6893 25.1743C33.702 25.8107 34.248 26.3469 34.872 26.3341C35.5049 26.3214 36.0207 25.7802 36.0129 25.1389C36.0051 24.4927 35.4834 23.983 34.8369 23.9909Z" fill="#94D827"/>
</svg>
