<svg width="51" height="51" viewBox="0 0 51 51" fill="none" xmlns="http://www.w3.org/2000/svg">
<path fill-rule="evenodd" clip-rule="evenodd" d="M49.4586 24.8145C49.4586 24.8145 49.0417 25.3001 48.4692 25.5863L48.4669 25.5874L43.5651 28.0284C42.7913 28.4138 41.8514 28.1091 41.4509 27.343L35.1016 15.2L35.0885 15.1744C34.6964 14.3903 35.0142 13.4368 35.7984 13.0448L40.7477 10.5702C40.7477 10.5702 41.906 9.97973 43.144 10.3768C43.144 10.3768 44.382 10.7739 44.9788 11.9241L49.8558 21.262C49.8558 21.262 50.1558 21.8289 50.2121 22.4677C50.2121 22.4677 50.2685 23.1066 50.0724 23.7172C50.0724 23.7172 49.8763 24.3279 49.4586 24.8145ZM47.0498 22.7467L42.1719 13.4073L38.6638 15.1614L43.543 24.4929L47.0498 22.7467Z" fill="#010F4D"/>
<path fill-rule="evenodd" clip-rule="evenodd" d="M15.6929 14.9807L9.34364 27.1436C8.94249 27.912 7.99904 28.2165 7.22434 27.8276L2.32349 25.3672C2.32349 25.3672 1.76158 25.0919 1.34176 24.6077C1.34176 24.6077 0.921932 24.1234 0.724347 23.5137C0.724347 23.5137 0.526761 22.904 0.582743 22.2656C0.582743 22.2656 0.638724 21.6271 0.939397 21.0611L5.81524 11.7256C5.81524 11.7256 6.40964 10.5831 7.63499 10.1785C7.63499 10.1785 8.86034 9.77387 10.0205 10.3389L14.9957 12.8264C15.7798 13.2185 16.0976 14.1719 15.7055 14.956L15.6929 14.9807ZM8.63036 13.193L12.1312 14.9435L7.25238 24.2894L3.75244 22.5324L8.62919 13.1953L8.63036 13.193Z" fill="#010F4D"/>
<path d="M8.91344 25.1579L19.7665 33.6301L19.7903 33.649L31.2184 36.506C31.2371 36.5082 31.2557 36.503 31.2557 36.503C31.2741 36.498 31.289 36.4867 31.289 36.4867L38.5154 29.2603L41.6487 25.5786C41.9216 25.258 42.3106 25.0589 42.7302 25.0252C42.7726 25.0218 42.8151 25.0201 42.8575 25.0201C43.2345 25.0201 43.5992 25.1542 43.8863 25.3986C44.2069 25.6714 44.406 26.0605 44.4398 26.4801C44.4431 26.5214 44.4448 26.5628 44.4449 26.6042L44.4449 26.6074C44.4449 26.9844 44.3107 27.3491 44.0664 27.6362L40.8917 31.3664C40.8642 31.3987 40.8354 31.43 40.8053 31.46L33.5036 38.7617C33.4911 38.7742 33.4783 38.7865 33.4654 38.7987C32.8773 39.3486 32.1012 39.563 32.1012 39.563C31.3252 39.7775 30.5382 39.6075 30.5382 39.6075C30.5215 39.6039 30.5049 39.6 30.4883 39.5959L18.9802 36.7188L18.939 36.708C18.3016 36.5303 17.8131 36.1325 17.8131 36.1325L6.95997 27.6604C6.57442 27.3594 6.34917 26.8978 6.34917 26.409C6.34917 26.1004 6.43908 25.7986 6.60791 25.5404C6.63217 25.5033 6.65798 25.4672 6.68526 25.4322C6.98607 25.0469 7.44765 24.8217 7.93649 24.8217C8.24502 24.8217 8.54685 24.9116 8.80509 25.0804C8.8422 25.1047 8.87828 25.1305 8.91344 25.1579Z" fill="#010F4D"/>
<path d="M28.4354 16.0519H36.5082C37.3849 16.0519 38.0955 15.3412 38.0955 14.4646C38.0955 13.5879 37.3849 12.8772 36.5082 12.8772H28.4327C27.8099 12.875 27.2287 13.1138 27.2287 13.1138C26.6474 13.3525 26.202 13.7957 26.202 13.7957L18.4228 21.5551C17.9278 22.063 17.6931 22.7079 17.6931 22.7079C17.4584 23.3529 17.5093 24.0373 17.5093 24.0373C17.5602 24.7218 17.8877 25.3249 17.8877 25.3249C18.2153 25.928 18.7616 26.3434 18.7616 26.3434L19.8339 27.1575C21.9615 28.7455 24.6033 28.7455 24.6033 28.7455C27.2452 28.7455 29.3623 27.1653 29.3623 27.1653L30.9671 25.9618L38.7489 31.6212C39.0206 31.8188 39.3474 31.9251 39.6829 31.9251C39.711 31.9251 39.7391 31.9243 39.7672 31.9228C40.2447 31.8974 40.6853 31.6581 40.9666 31.2714C41.1639 31.0001 41.2702 30.6732 41.2702 30.3378C41.2702 30.3096 41.2694 30.2815 41.2679 30.2535C41.2425 29.7759 41.0032 29.3353 40.6165 29.054L31.8862 22.7048C31.3227 22.2949 30.5577 22.3005 30.0002 22.7186L27.4635 24.6212C26.1911 25.5709 24.6033 25.5709 24.6033 25.5709C23.0156 25.5709 21.7536 24.6291 21.7536 24.6291L20.683 23.8162C20.6796 23.8136 20.6776 23.8098 20.6776 23.8098C20.6755 23.8061 20.6752 23.8018 20.6752 23.8018C20.6749 23.7976 20.6763 23.7936 20.6763 23.7936C20.6755 23.7929 20.6674 23.8001 20.6674 23.8001L28.4354 16.0519Z" fill="#010F4D"/>
<path d="M31.8841 15.91C32.0901 16.0035 32.3137 16.0519 32.54 16.0519C32.5671 16.0519 32.5942 16.0512 32.6213 16.0498C33.214 16.0194 33.7402 15.6609 33.9855 15.1204C34.0789 14.9144 34.1273 14.6908 34.1273 14.4646L34.1271 14.4385C34.1241 14.2566 34.0899 14.0765 34.0259 13.9062C33.8778 13.5122 33.5792 13.193 33.1959 13.0191L26.3307 9.90396C25.2664 9.42295 24.146 9.74425 24.146 9.74425L13.9597 12.7227C13.5553 12.8409 13.2147 13.1147 13.0125 13.484C12.8846 13.7177 12.8175 13.9799 12.8175 14.2463L12.8177 14.2716C12.82 14.4139 12.8414 14.5552 12.8813 14.6918C13.0792 15.3685 13.6998 15.8336 14.4048 15.8336L14.4139 15.8336C14.5616 15.8327 14.7085 15.8113 14.8503 15.7698L25.0211 12.7959L31.8841 15.91Z" fill="#010F4D"/>
<path d="M12.1511 35.3092C11.8625 35.0589 11.4932 34.9211 11.1111 34.9211C11.0736 34.9211 11.036 34.9224 10.9986 34.9251C10.5787 34.9549 10.1878 35.1504 9.91196 35.4684C9.66163 35.757 9.52381 36.1263 9.52381 36.5084C9.52381 36.5459 9.52514 36.5835 9.52781 36.6209C9.55766 37.0409 9.7531 37.4317 10.0711 37.7075L14.5553 41.5965C15.1197 42.101 15.8778 42.2777 15.8778 42.2777L21.8338 43.7816C21.9608 43.8137 22.0914 43.8299 22.2224 43.8299C22.239 43.8299 22.2556 43.8296 22.2723 43.8291C22.9804 43.8068 23.588 43.318 23.7614 42.6312C23.7935 42.5041 23.8097 42.3736 23.8097 42.2426C23.8097 42.2182 23.8091 42.1939 23.808 42.1696C23.796 41.9082 23.7195 41.6538 23.5854 41.4291C23.3697 41.0676 23.0191 40.8066 22.611 40.7036L16.6387 39.1956L16.6298 39.1934L12.1511 35.3092Z" fill="#010F4D"/>
</svg>
